  0
SECTION
  2
HEADER
  9
$ANGBASE
  50
0.0
  9
$ANGDIR
  70
  1
  9
$MEASUREMENT
  70
0
  0
ENDSEC
  0
SECTION
  2
TABLES
  0
TABLE
  2
LTYPE
  70
1
  0
LTYPE
  2
CONTINUOUS
  70
0
  3
Solid line
  72
65
  73
0
  40
0.0
  0
ENDTAB
  0
TABLE
  2
STYLE
  70
4
  0
STYLE
  2
KICAD
  70
0
  40
0
  41
1
  42
1
  50
0
  71
0
  3
isocp.shx
  0
STYLE
  2
KICADB
  70
0
  40
0
  41
1
  42
1
  50
0
  71
0
  3
isocp.shx
  0
STYLE
  2
KICADI
  70
0
  40
0
  41
1
  42
1
  50
15
  71
0
  3
isocp.shx
  0
STYLE
  2
KICADBI
  70
0
  40
0
  41
1
  42
1
  50
15
  71
0
  3
isocp.shx
  0
ENDTAB
  0
TABLE
  2
LAYER
  70
30
  0
LAYER
  2
BLACK
  70
0
  62
7
  6
CONTINUOUS
  0
LAYER
  2
GRAY1
  70
0
  62
251
  6
CONTINUOUS
  0
LAYER
  2
GRAY2
  70
0
  62
8
  6
CONTINUOUS
  0
LAYER
  2
GRAY3
  70
0
  62
9
  6
CONTINUOUS
  0
LAYER
  2
WHITE
  70
0
  62
7
  6
CONTINUOUS
  0
LAYER
  2
LYELLOW
  70
0
  62
51
  6
CONTINUOUS
  0
LAYER
  2
BLUE1
  70
0
  62
178
  6
CONTINUOUS
  0
LAYER
  2
GREEN1
  70
0
  62
98
  6
CONTINUOUS
  0
LAYER
  2
CYAN1
  70
0
  62
138
  6
CONTINUOUS
  0
LAYER
  2
RED1
  70
0
  62
18
  6
CONTINUOUS
  0
LAYER
  2
MAGENTA1
  70
0
  62
228
  6
CONTINUOUS
  0
LAYER
  2
BROWN1
  70
0
  62
58
  6
CONTINUOUS
  0
LAYER
  2
BLUE2
  70
0
  62
5
  6
CONTINUOUS
  0
LAYER
  2
GREEN2
  70
0
  62
3
  6
CONTINUOUS
  0
LAYER
  2
CYAN2
  70
0
  62
4
  6
CONTINUOUS
  0
LAYER
  2
RED2
  70
0
  62
1
  6
CONTINUOUS
  0
LAYER
  2
MAGENTA2
  70
0
  62
6
  6
CONTINUOUS
  0
LAYER
  2
BROWN2
  70
0
  62
54
  6
CONTINUOUS
  0
LAYER
  2
BLUE3
  70
0
  62
171
  6
CONTINUOUS
  0
LAYER
  2
GREEN3
  70
0
  62
91
  6
CONTINUOUS
  0
LAYER
  2
CYAN3
  70
0
  62
131
  6
CONTINUOUS
  0
LAYER
  2
RED3
  70
0
  62
11
  6
CONTINUOUS
  0
LAYER
  2
MAGENTA3
  70
0
  62
221
  6
CONTINUOUS
  0
LAYER
  2
YELLOW3
  70
0
  62
2
  6
CONTINUOUS
  0
LAYER
  2
BLUE4
  70
0
  62
5
  6
CONTINUOUS
  0
LAYER
  2
GREEN4
  70
0
  62
3
  6
CONTINUOUS
  0
LAYER
  2
CYAN4
  70
0
  62
4
  6
CONTINUOUS
  0
LAYER
  2
RED4
  70
0
  62
1
  6
CONTINUOUS
  0
LAYER
  2
MAGENTA4
  70
0
  62
6
  6
CONTINUOUS
  0
LAYER
  2
YELLOW4
  70
0
  62
2
  6
CONTINUOUS
  0
ENDTAB
  0
ENDSEC
  0
SECTION
  2
ENTITIES
0
LINE
8
Black
10
99.75
20
-115.9
11
99.7
21
-115.9
0
LINE
8
Black
10
99.7
20
-115.9
11
99.7
21
-116.029
0
LINE
8
Black
10
99.7
20
-116.029
11
99.715
21
-116.047
0
LINE
8
Black
10
99.715
20
-116.047
11
99.7513
21
-116.147
0
LINE
8
Black
10
99.7513
20
-116.147
11
99.7513
21
-116.253
0
LINE
8
Black
10
99.7513
20
-116.253
11
99.715
21
-116.353
0
LINE
8
Black
10
99.715
20
-116.353
11
99.6467
21
-116.434
0
LINE
8
Black
10
99.6467
20
-116.434
11
99.5546
21
-116.488
0
LINE
8
Black
10
99.5546
20
-116.488
11
99.45
21
-116.506
0
LINE
8
Black
10
99.45
20
-116.506
11
99.3454
21
-116.488
0
LINE
8
Black
10
99.3454
20
-116.488
11
99.2533
21
-116.434
0
LINE
8
Black
10
99.2533
20
-116.434
11
99.185
21
-116.353
0
LINE
8
Black
10
99.185
20
-116.353
11
99.1487
21
-116.253
0
LINE
8
Black
10
99.1487
20
-116.253
11
99.1487
21
-116.147
0
LINE
8
Black
10
99.1487
20
-116.147
11
99.185
21
-116.047
0
LINE
8
Black
10
99.185
20
-116.047
11
99.2533
21
-115.966
0
LINE
8
Black
10
99.2533
20
-115.966
11
99.3454
21
-115.912
0
LINE
8
Black
10
99.3454
20
-115.912
11
99.4162
21
-115.9
0
LINE
8
Black
10
99.4162
20
-115.9
11
99.4
21
-115.9
0
LINE
8
Black
10
99.4
20
-115.9
11
99.4
21
-115.55
0
LINE
8
Black
10
99.4
20
-115.55
11
99.75
21
-115.55
0
LINE
8
Black
10
99.75
20
-115.55
11
99.75
21
-115.9
0
LINE
8
Black
10
100.4
20
-115.9
11
100.35
21
-115.9
0
LINE
8
Black
10
100.35
20
-115.9
11
100.35
21
-115.903
0
LINE
8
Black
10
100.35
20
-115.903
11
100.405
21
-115.912
0
LINE
8
Black
10
100.405
20
-115.912
11
100.497
21
-115.966
0
LINE
8
Black
10
100.497
20
-115.966
11
100.565
21
-116.047
0
LINE
8
Black
10
100.565
20
-116.047
11
100.601
21
-116.147
0
LINE
8
Black
10
100.601
20
-116.147
11
100.601
21
-116.253
0
LINE
8
Black
10
100.601
20
-116.253
11
100.565
21
-116.353
0
LINE
8
Black
10
100.565
20
-116.353
11
100.497
21
-116.434
0
LINE
8
Black
10
100.497
20
-116.434
11
100.405
21
-116.488
0
LINE
8
Black
10
100.405
20
-116.488
11
100.3
21
-116.506
0
LINE
8
Black
10
100.3
20
-116.506
11
100.195
21
-116.488
0
LINE
8
Black
10
100.195
20
-116.488
11
100.103
21
-116.434
0
LINE
8
Black
10
100.103
20
-116.434
11
100.035
21
-116.353
0
LINE
8
Black
10
100.035
20
-116.353
11
99.9987
21
-116.253
0
LINE
8
Black
10
99.9987
20
-116.253
11
99.9987
21
-116.147
0
LINE
8
Black
10
99.9987
20
-116.147
11
100.035
21
-116.047
0
LINE
8
Black
10
100.035
20
-116.047
11
100.1
21
-115.97
0
LINE
8
Black
10
100.1
20
-115.97
11
100.1
21
-115.9
0
LINE
8
Black
10
100.1
20
-115.9
11
100.05
21
-115.9
0
LINE
8
Black
10
100.05
20
-115.9
11
100.05
21
-115.55
0
LINE
8
Black
10
100.05
20
-115.55
11
100.4
21
-115.55
0
LINE
8
Black
10
100.4
20
-115.55
11
100.4
21
-115.9
0
LINE
8
Black
10
98.5471
20
-113.378
11
98.6391
21
-113.431
0
LINE
8
Black
10
98.6391
20
-113.431
11
98.7074
21
-113.512
0
LINE
8
Black
10
98.7074
20
-113.512
11
98.7438
21
-113.612
0
LINE
8
Black
10
98.7438
20
-113.612
11
98.7438
21
-113.718
0
LINE
8
Black
10
98.7438
20
-113.718
11
98.7247
21
-113.771
0
LINE
8
Black
10
98.7247
20
-113.771
11
98.8357
21
-113.882
0
LINE
8
Black
10
98.8357
20
-113.882
11
99.0134
21
-114.059
0
LINE
8
Black
10
99.0134
20
-114.059
11
99.0165
21
-114.064
0
LINE
8
Black
10
99.0165
20
-114.064
11
99.0208
21
-114.067
0
LINE
8
Black
10
99.0208
20
-114.067
11
99.0289
21
-114.082
0
LINE
8
Black
10
99.0289
20
-114.082
11
99.0383
21
-114.095
0
LINE
8
Black
10
99.0383
20
-114.095
11
99.0397
21
-114.1
0
LINE
8
Black
10
99.0397
20
-114.1
11
99.1
21
-114.1
0
LINE
8
Black
10
99.1
20
-114.1
11
99.1
21
-114.45
0
LINE
8
Black
10
99.1
20
-114.45
11
99.0482
21
-114.45
0
LINE
8
Black
10
99.0482
20
-114.45
11
99.0453
21
-114.461
0
LINE
8
Black
10
99.0453
20
-114.461
11
99.0425
21
-114.477
0
LINE
8
Black
10
99.0425
20
-114.477
11
99.0397
21
-114.482
0
LINE
8
Black
10
99.0397
20
-114.482
11
99.0383
21
-114.487
0
LINE
8
Black
10
99.0383
20
-114.487
11
99.0289
21
-114.5
0
LINE
8
Black
10
99.0289
20
-114.5
11
99.0208
21
-114.514
0
LINE
8
Black
10
99.0208
20
-114.514
11
99.0165
21
-114.518
0
LINE
8
Black
10
99.0165
20
-114.518
11
99.0134
21
-114.522
0
LINE
8
Black
10
99.0134
20
-114.522
11
98.4
21
-115.136
0
LINE
8
Black
10
98.4
20
-115.136
11
98.4
21
-115.55
0
LINE
8
Black
10
98.4
20
-115.55
11
98.45
21
-115.55
0
LINE
8
Black
10
98.45
20
-115.55
11
98.45
21
-115.9
0
LINE
8
Black
10
98.45
20
-115.9
11
98.1
21
-115.9
0
LINE
8
Black
10
98.1
20
-115.9
11
98.1
21
-115.55
0
LINE
8
Black
10
98.1
20
-115.55
11
98.15
21
-115.55
0
LINE
8
Black
10
98.15
20
-115.55
11
98.15
21
-115.084
0
LINE
8
Black
10
98.15
20
-115.084
11
98.151
21
-115.079
0
LINE
8
Black
10
98.151
20
-115.079
11
98.1505
21
-115.073
0
LINE
8
Black
10
98.1505
20
-115.073
11
98.1547
21
-115.057
0
LINE
8
Black
10
98.1547
20
-115.057
11
98.1575
21
-115.041
0
LINE
8
Black
10
98.1575
20
-115.041
11
98.1603
21
-115.036
0
LINE
8
Black
10
98.1603
20
-115.036
11
98.1617
21
-115.031
0
LINE
8
Black
10
98.1617
20
-115.031
11
98.1711
21
-115.018
0
LINE
8
Black
10
98.1711
20
-115.018
11
98.1792
21
-115.004
0
LINE
8
Black
10
98.1792
20
-115.004
11
98.1835
21
-115
0
LINE
8
Black
10
98.1835
20
-115
11
98.1866
21
-114.996
0
LINE
8
Black
10
98.1866
20
-114.996
11
98.75
21
-114.432
0
LINE
8
Black
10
98.75
20
-114.432
11
98.75
21
-114.149
0
LINE
8
Black
10
98.75
20
-114.149
11
98.6589
21
-114.058
0
LINE
8
Black
10
98.6589
20
-114.058
11
98.551
21
-113.95
0
LINE
8
Black
10
98.551
20
-113.95
11
98.5471
21
-113.953
0
LINE
8
Black
10
98.5471
20
-113.953
11
98.4425
21
-113.971
0
LINE
8
Black
10
98.4425
20
-113.971
11
98.3378
21
-113.953
0
LINE
8
Black
10
98.3378
20
-113.953
11
98.2458
21
-113.9
0
LINE
8
Black
10
98.2458
20
-113.9
11
98.1775
21
-113.818
0
LINE
8
Black
10
98.1775
20
-113.818
11
98.1412
21
-113.718
0
LINE
8
Black
10
98.1412
20
-113.718
11
98.1412
21
-113.612
0
LINE
8
Black
10
98.1412
20
-113.612
11
98.1775
21
-113.512
0
LINE
8
Black
10
98.1775
20
-113.512
11
98.2458
21
-113.431
0
LINE
8
Black
10
98.2458
20
-113.431
11
98.3378
21
-113.378
0
LINE
8
Black
10
98.3378
20
-113.378
11
98.4425
21
-113.359
0
LINE
8
Black
10
98.4425
20
-113.359
11
98.5471
21
-113.378
0
LINE
8
Black
10
99.1
20
-115.9
11
98.75
21
-115.9
0
LINE
8
Black
10
98.75
20
-115.9
11
98.75
21
-115.55
0
LINE
8
Black
10
98.75
20
-115.55
11
99.1
21
-115.55
0
LINE
8
Black
10
99.1
20
-115.55
11
99.1
21
-115.9
0
LINE
8
Black
10
99.2241
20
-112.916
11
99.2296
21
-112.916
0
LINE
8
Black
10
99.2296
20
-112.916
11
99.2454
21
-112.92
0
LINE
8
Black
10
99.2454
20
-112.92
11
99.2615
21
-112.923
0
LINE
8
Black
10
99.2615
20
-112.923
11
99.2662
21
-112.925
0
LINE
8
Black
10
99.2662
20
-112.925
11
99.2715
21
-112.927
0
LINE
8
Black
10
99.2715
20
-112.927
11
99.2849
21
-112.936
0
LINE
8
Black
10
99.2849
20
-112.936
11
99.2991
21
-112.944
0
LINE
8
Black
10
99.2991
20
-112.944
11
99.3026
21
-112.949
0
LINE
8
Black
10
99.3026
20
-112.949
11
99.3071
21
-112.952
0
LINE
8
Black
10
99.3071
20
-112.952
11
99.6634
21
-113.308
0
LINE
8
Black
10
99.6634
20
-113.308
11
99.6665
21
-113.313
0
LINE
8
Black
10
99.6665
20
-113.313
11
99.6708
21
-113.316
0
LINE
8
Black
10
99.6708
20
-113.316
11
99.6762
21
-113.326
0
LINE
8
Black
10
99.6762
20
-113.326
11
99.6833
21
-113.334
0
LINE
8
Black
10
99.6833
20
-113.334
11
99.6851
21
-113.339
0
LINE
8
Black
10
99.6851
20
-113.339
11
99.6883
21
-113.344
0
LINE
8
Black
10
99.6883
20
-113.344
11
99.6897
21
-113.349
0
LINE
8
Black
10
99.6897
20
-113.349
11
99.6925
21
-113.354
0
LINE
8
Black
10
99.6925
20
-113.354
11
99.6944
21
-113.365
0
LINE
8
Black
10
99.6944
20
-113.365
11
99.6981
21
-113.375
0
LINE
8
Black
10
99.6981
20
-113.375
11
99.6981
21
-113.38
0
LINE
8
Black
10
99.6981
20
-113.38
11
99.6995
21
-113.386
0
LINE
8
Black
10
99.6995
20
-113.386
11
99.699
21
-113.391
0
LINE
8
Black
10
99.699
20
-113.391
11
99.7
21
-113.396
0
LINE
8
Black
10
99.7
20
-113.396
11
99.7
21
-113.85
0
LINE
8
Black
10
99.7
20
-113.85
11
99.7
21
-114.1
0
LINE
8
Black
10
99.7
20
-114.1
11
99.75
21
-114.1
0
LINE
8
Black
10
99.75
20
-114.1
11
99.75
21
-114.45
0
LINE
8
Black
10
99.75
20
-114.45
11
99.4
21
-114.45
0
LINE
8
Black
10
99.4
20
-114.45
11
99.4
21
-114.1
0
LINE
8
Black
10
99.4
20
-114.1
11
99.45
21
-114.1
0
LINE
8
Black
10
99.45
20
-114.1
11
99.45
21
-113.85
0
LINE
8
Black
10
99.45
20
-113.85
11
99.45
21
-113.521
0
LINE
8
Black
10
99.45
20
-113.521
11
99.4264
21
-113.521
0
LINE
8
Black
10
99.4264
20
-113.521
11
99.415
21
-113.553
0
LINE
8
Black
10
99.415
20
-113.553
11
99.3467
21
-113.634
0
LINE
8
Black
10
99.3467
20
-113.634
11
99.2546
21
-113.688
0
LINE
8
Black
10
99.2546
20
-113.688
11
99.15
21
-113.706
0
LINE
8
Black
10
99.15
20
-113.706
11
99.0454
21
-113.688
0
LINE
8
Black
10
99.0454
20
-113.688
11
98.9533
21
-113.634
0
LINE
8
Black
10
98.9533
20
-113.634
11
98.885
21
-113.553
0
LINE
8
Black
10
98.885
20
-113.553
11
98.8487
21
-113.453
0
LINE
8
Black
10
98.8487
20
-113.453
11
98.8487
21
-113.347
0
LINE
8
Black
10
98.8487
20
-113.347
11
98.885
21
-113.247
0
LINE
8
Black
10
98.885
20
-113.247
11
98.9533
21
-113.166
0
LINE
8
Black
10
98.9533
20
-113.166
11
98.9541
21
-113.165
0
LINE
8
Black
10
98.9541
20
-113.165
11
98.3031
21
-113.165
0
LINE
8
Black
10
98.3031
20
-113.165
11
98.0077
21
-113.461
0
LINE
8
Black
10
98.0077
20
-113.461
11
98.0077
21
-113.882
0
LINE
8
Black
10
98.0077
20
-113.882
11
98.2256
21
-114.1
0
LINE
8
Black
10
98.2256
20
-114.1
11
98.45
21
-114.1
0
LINE
8
Black
10
98.45
20
-114.1
11
98.45
21
-114.45
0
LINE
8
Black
10
98.45
20
-114.45
11
98.1
21
-114.45
0
LINE
8
Black
10
98.1
20
-114.45
11
98.1
21
-114.328
0
LINE
8
Black
10
98.1
20
-114.328
11
97.7943
21
-114.022
0
LINE
8
Black
10
97.7943
20
-114.022
11
97.7911
21
-114.018
0
LINE
8
Black
10
97.7911
20
-114.018
11
97.7869
21
-114.014
0
LINE
8
Black
10
97.7869
20
-114.014
11
97.7788
21
-114
0
LINE
8
Black
10
97.7788
20
-114
11
97.7694
21
-113.987
0
LINE
8
Black
10
97.7694
20
-113.987
11
97.768
21
-113.981
0
LINE
8
Black
10
97.768
20
-113.981
11
97.7652
21
-113.977
0
LINE
8
Black
10
97.7652
20
-113.977
11
97.7624
21
-113.961
0
LINE
8
Black
10
97.7624
20
-113.961
11
97.7582
21
-113.945
0
LINE
8
Black
10
97.7582
20
-113.945
11
97.7586
21
-113.939
0
LINE
8
Black
10
97.7586
20
-113.939
11
97.7577
21
-113.934
0
LINE
8
Black
10
97.7577
20
-113.934
11
97.7577
21
-113.409
0
LINE
8
Black
10
97.7577
20
-113.409
11
97.7586
21
-113.403
0
LINE
8
Black
10
97.7586
20
-113.403
11
97.7582
21
-113.398
0
LINE
8
Black
10
97.7582
20
-113.398
11
97.7624
21
-113.382
0
LINE
8
Black
10
97.7624
20
-113.382
11
97.7652
21
-113.366
0
LINE
8
Black
10
97.7652
20
-113.366
11
97.768
21
-113.361
0
LINE
8
Black
10
97.768
20
-113.361
11
97.7694
21
-113.356
0
LINE
8
Black
10
97.7694
20
-113.356
11
97.7788
21
-113.343
0
LINE
8
Black
10
97.7788
20
-113.343
11
97.7869
21
-113.328
0
LINE
8
Black
10
97.7869
20
-113.328
11
97.7911
21
-113.325
0
LINE
8
Black
10
97.7911
20
-113.325
11
97.7943
21
-113.32
0
LINE
8
Black
10
97.7943
20
-113.32
11
98.1629
21
-112.952
0
LINE
8
Black
10
98.1629
20
-112.952
11
98.1674
21
-112.949
0
LINE
8
Black
10
98.1674
20
-112.949
11
98.171
21
-112.944
0
LINE
8
Black
10
98.171
20
-112.944
11
98.1851
21
-112.936
0
LINE
8
Black
10
98.1851
20
-112.936
11
98.1985
21
-112.927
0
LINE
8
Black
10
98.1985
20
-112.927
11
98.2038
21
-112.925
0
LINE
8
Black
10
98.2038
20
-112.925
11
98.2085
21
-112.923
0
LINE
8
Black
10
98.2085
20
-112.923
11
98.2246
21
-112.92
0
LINE
8
Black
10
98.2246
20
-112.92
11
98.2404
21
-112.916
0
LINE
8
Black
10
98.2404
20
-112.916
11
98.2459
21
-112.916
0
LINE
8
Black
10
98.2459
20
-112.916
11
98.2513
21
-112.915
0
LINE
8
Black
10
98.2513
20
-112.915
11
99.2187
21
-112.915
0
LINE
8
Black
10
99.2187
20
-112.915
11
99.2241
21
-112.916
0
LINE
8
Black
10
100.4
20
-114.45
11
100.05
21
-114.45
0
LINE
8
Black
10
100.05
20
-114.45
11
100.05
21
-114.1
0
LINE
8
Black
10
100.05
20
-114.1
11
100.4
21
-114.1
0
LINE
8
Black
10
100.4
20
-114.1
11
100.4
21
-114.45
0
LINE
8
Black
10
100.051
20
-112.009
11
100.097
21
-112.035
0
LINE
8
Black
10
100.097
20
-112.035
11
100.13
21
-112.075
0
LINE
8
Black
10
100.13
20
-112.075
11
100.148
21
-112.124
0
LINE
8
Black
10
100.148
20
-112.124
11
100.148
21
-112.176
0
LINE
8
Black
10
100.148
20
-112.176
11
100.13
21
-112.225
0
LINE
8
Black
10
100.13
20
-112.225
11
100.097
21
-112.265
0
LINE
8
Black
10
100.097
20
-112.265
11
100.051
21
-112.291
0
LINE
8
Black
10
100.051
20
-112.291
11
100
21
-112.301
0
LINE
8
Black
10
100
20
-112.301
11
99.9485
21
-112.291
0
LINE
8
Black
10
99.9485
20
-112.291
11
99.9032
21
-112.265
0
LINE
8
Black
10
99.9032
20
-112.265
11
99.8696
21
-112.225
0
LINE
8
Black
10
99.8696
20
-112.225
11
99.8517
21
-112.176
0
LINE
8
Black
10
99.8517
20
-112.176
11
99.8517
21
-112.124
0
LINE
8
Black
10
99.8517
20
-112.124
11
99.8696
21
-112.075
0
LINE
8
Black
10
99.8696
20
-112.075
11
99.9032
21
-112.035
0
LINE
8
Black
10
99.9032
20
-112.035
11
99.9485
21
-112.009
0
LINE
8
Black
10
99.9485
20
-112.009
11
100
21
-111.999
0
LINE
8
Black
10
100
20
-111.999
11
100.051
21
-112.009
0
LINE
8
Black
10
99.4515
20
-112.009
11
99.4968
21
-112.035
0
LINE
8
Black
10
99.4968
20
-112.035
11
99.5304
21
-112.075
0
LINE
8
Black
10
99.5304
20
-112.075
11
99.5483
21
-112.124
0
LINE
8
Black
10
99.5483
20
-112.124
11
99.5483
21
-112.176
0
LINE
8
Black
10
99.5483
20
-112.176
11
99.5304
21
-112.225
0
LINE
8
Black
10
99.5304
20
-112.225
11
99.4968
21
-112.265
0
LINE
8
Black
10
99.4968
20
-112.265
11
99.4515
21
-112.291
0
LINE
8
Black
10
99.4515
20
-112.291
11
99.4
21
-112.301
0
LINE
8
Black
10
99.4
20
-112.301
11
99.3485
21
-112.291
0
LINE
8
Black
10
99.3485
20
-112.291
11
99.3032
21
-112.265
0
LINE
8
Black
10
99.3032
20
-112.265
11
99.2696
21
-112.225
0
LINE
8
Black
10
99.2696
20
-112.225
11
99.2517
21
-112.176
0
LINE
8
Black
10
99.2517
20
-112.176
11
99.2517
21
-112.124
0
LINE
8
Black
10
99.2517
20
-112.124
11
99.2696
21
-112.075
0
LINE
8
Black
10
99.2696
20
-112.075
11
99.3032
21
-112.035
0
LINE
8
Black
10
99.3032
20
-112.035
11
99.3485
21
-112.009
0
LINE
8
Black
10
99.3485
20
-112.009
11
99.4
21
-111.999
0
LINE
8
Black
10
99.4
20
-111.999
11
99.4515
21
-112.009
0
LINE
8
Black
10
101.251
20
-112.009
11
101.297
21
-112.035
0
LINE
8
Black
10
101.297
20
-112.035
11
101.33
21
-112.075
0
LINE
8
Black
10
101.33
20
-112.075
11
101.348
21
-112.124
0
LINE
8
Black
10
101.348
20
-112.124
11
101.348
21
-112.176
0
LINE
8
Black
10
101.348
20
-112.176
11
101.33
21
-112.225
0
LINE
8
Black
10
101.33
20
-112.225
11
101.297
21
-112.265
0
LINE
8
Black
10
101.297
20
-112.265
11
101.251
21
-112.291
0
LINE
8
Black
10
101.251
20
-112.291
11
101.2
21
-112.301
0
LINE
8
Black
10
101.2
20
-112.301
11
101.149
21
-112.291
0
LINE
8
Black
10
101.149
20
-112.291
11
101.103
21
-112.265
0
LINE
8
Black
10
101.103
20
-112.265
11
101.07
21
-112.225
0
LINE
8
Black
10
101.07
20
-112.225
11
101.052
21
-112.176
0
LINE
8
Black
10
101.052
20
-112.176
11
101.052
21
-112.124
0
LINE
8
Black
10
101.052
20
-112.124
11
101.07
21
-112.075
0
LINE
8
Black
10
101.07
20
-112.075
11
101.103
21
-112.035
0
LINE
8
Black
10
101.103
20
-112.035
11
101.149
21
-112.009
0
LINE
8
Black
10
101.149
20
-112.009
11
101.2
21
-111.999
0
LINE
8
Black
10
101.2
20
-111.999
11
101.251
21
-112.009
0
LINE
8
Black
10
98.8515
20
-112.009
11
98.8968
21
-112.035
0
LINE
8
Black
10
98.8968
20
-112.035
11
98.9304
21
-112.075
0
LINE
8
Black
10
98.9304
20
-112.075
11
98.9483
21
-112.124
0
LINE
8
Black
10
98.9483
20
-112.124
11
98.9483
21
-112.176
0
LINE
8
Black
10
98.9483
20
-112.176
11
98.9304
21
-112.225
0
LINE
8
Black
10
98.9304
20
-112.225
11
98.8968
21
-112.265
0
LINE
8
Black
10
98.8968
20
-112.265
11
98.8515
21
-112.291
0
LINE
8
Black
10
98.8515
20
-112.291
11
98.8
21
-112.301
0
LINE
8
Black
10
98.8
20
-112.301
11
98.7485
21
-112.291
0
LINE
8
Black
10
98.7485
20
-112.291
11
98.7032
21
-112.265
0
LINE
8
Black
10
98.7032
20
-112.265
11
98.6696
21
-112.225
0
LINE
8
Black
10
98.6696
20
-112.225
11
98.6517
21
-112.176
0
LINE
8
Black
10
98.6517
20
-112.176
11
98.6517
21
-112.124
0
LINE
8
Black
10
98.6517
20
-112.124
11
98.6696
21
-112.075
0
LINE
8
Black
10
98.6696
20
-112.075
11
98.7032
21
-112.035
0
LINE
8
Black
10
98.7032
20
-112.035
11
98.7485
21
-112.009
0
LINE
8
Black
10
98.7485
20
-112.009
11
98.8
21
-111.999
0
LINE
8
Black
10
98.8
20
-111.999
11
98.8515
21
-112.009
0
LINE
8
Black
10
100.651
20
-112.009
11
100.697
21
-112.035
0
LINE
8
Black
10
100.697
20
-112.035
11
100.73
21
-112.075
0
LINE
8
Black
10
100.73
20
-112.075
11
100.748
21
-112.124
0
LINE
8
Black
10
100.748
20
-112.124
11
100.748
21
-112.176
0
LINE
8
Black
10
100.748
20
-112.176
11
100.73
21
-112.225
0
LINE
8
Black
10
100.73
20
-112.225
11
100.697
21
-112.265
0
LINE
8
Black
10
100.697
20
-112.265
11
100.651
21
-112.291
0
LINE
8
Black
10
100.651
20
-112.291
11
100.6
21
-112.301
0
LINE
8
Black
10
100.6
20
-112.301
11
100.549
21
-112.291
0
LINE
8
Black
10
100.549
20
-112.291
11
100.503
21
-112.265
0
LINE
8
Black
10
100.503
20
-112.265
11
100.47
21
-112.225
0
LINE
8
Black
10
100.47
20
-112.225
11
100.452
21
-112.176
0
LINE
8
Black
10
100.452
20
-112.176
11
100.452
21
-112.124
0
LINE
8
Black
10
100.452
20
-112.124
11
100.47
21
-112.075
0
LINE
8
Black
10
100.47
20
-112.075
11
100.503
21
-112.035
0
LINE
8
Black
10
100.503
20
-112.035
11
100.549
21
-112.009
0
LINE
8
Black
10
100.549
20
-112.009
11
100.6
21
-111.999
0
LINE
8
Black
10
100.6
20
-111.999
11
100.651
21
-112.009
0
LINE
8
Black
10
99.4515
20
-110.709
11
99.4968
21
-110.735
0
LINE
8
Black
10
99.4968
20
-110.735
11
99.5304
21
-110.775
0
LINE
8
Black
10
99.5304
20
-110.775
11
99.5483
21
-110.824
0
LINE
8
Black
10
99.5483
20
-110.824
11
99.5483
21
-110.876
0
LINE
8
Black
10
99.5483
20
-110.876
11
99.5304
21
-110.925
0
LINE
8
Black
10
99.5304
20
-110.925
11
99.4968
21
-110.965
0
LINE
8
Black
10
99.4968
20
-110.965
11
99.4515
21
-110.991
0
LINE
8
Black
10
99.4515
20
-110.991
11
99.4
21
-111.001
0
LINE
8
Black
10
99.4
20
-111.001
11
99.3485
21
-110.991
0
LINE
8
Black
10
99.3485
20
-110.991
11
99.3032
21
-110.965
0
LINE
8
Black
10
99.3032
20
-110.965
11
99.2696
21
-110.925
0
LINE
8
Black
10
99.2696
20
-110.925
11
99.2517
21
-110.876
0
LINE
8
Black
10
99.2517
20
-110.876
11
99.2517
21
-110.824
0
LINE
8
Black
10
99.2517
20
-110.824
11
99.2696
21
-110.775
0
LINE
8
Black
10
99.2696
20
-110.775
11
99.3032
21
-110.735
0
LINE
8
Black
10
99.3032
20
-110.735
11
99.3485
21
-110.709
0
LINE
8
Black
10
99.3485
20
-110.709
11
99.4
21
-110.699
0
LINE
8
Black
10
99.4
20
-110.699
11
99.4515
21
-110.709
0
LINE
8
Black
10
98.8515
20
-110.709
11
98.8968
21
-110.735
0
LINE
8
Black
10
98.8968
20
-110.735
11
98.9304
21
-110.775
0
LINE
8
Black
10
98.9304
20
-110.775
11
98.9483
21
-110.824
0
LINE
8
Black
10
98.9483
20
-110.824
11
98.9483
21
-110.876
0
LINE
8
Black
10
98.9483
20
-110.876
11
98.9304
21
-110.925
0
LINE
8
Black
10
98.9304
20
-110.925
11
98.8968
21
-110.965
0
LINE
8
Black
10
98.8968
20
-110.965
11
98.8515
21
-110.991
0
LINE
8
Black
10
98.8515
20
-110.991
11
98.8
21
-111.001
0
LINE
8
Black
10
98.8
20
-111.001
11
98.7485
21
-110.991
0
LINE
8
Black
10
98.7485
20
-110.991
11
98.7032
21
-110.965
0
LINE
8
Black
10
98.7032
20
-110.965
11
98.6696
21
-110.925
0
LINE
8
Black
10
98.6696
20
-110.925
11
98.6517
21
-110.876
0
LINE
8
Black
10
98.6517
20
-110.876
11
98.6517
21
-110.824
0
LINE
8
Black
10
98.6517
20
-110.824
11
98.6696
21
-110.775
0
LINE
8
Black
10
98.6696
20
-110.775
11
98.7032
21
-110.735
0
LINE
8
Black
10
98.7032
20
-110.735
11
98.7485
21
-110.709
0
LINE
8
Black
10
98.7485
20
-110.709
11
98.8
21
-110.699
0
LINE
8
Black
10
98.8
20
-110.699
11
98.8515
21
-110.709
0
LINE
8
Black
10
101.251
20
-110.709
11
101.297
21
-110.735
0
LINE
8
Black
10
101.297
20
-110.735
11
101.33
21
-110.775
0
LINE
8
Black
10
101.33
20
-110.775
11
101.348
21
-110.824
0
LINE
8
Black
10
101.348
20
-110.824
11
101.348
21
-110.876
0
LINE
8
Black
10
101.348
20
-110.876
11
101.33
21
-110.925
0
LINE
8
Black
10
101.33
20
-110.925
11
101.297
21
-110.965
0
LINE
8
Black
10
101.297
20
-110.965
11
101.251
21
-110.991
0
LINE
8
Black
10
101.251
20
-110.991
11
101.2
21
-111.001
0
LINE
8
Black
10
101.2
20
-111.001
11
101.149
21
-110.991
0
LINE
8
Black
10
101.149
20
-110.991
11
101.103
21
-110.965
0
LINE
8
Black
10
101.103
20
-110.965
11
101.07
21
-110.925
0
LINE
8
Black
10
101.07
20
-110.925
11
101.052
21
-110.876
0
LINE
8
Black
10
101.052
20
-110.876
11
101.052
21
-110.824
0
LINE
8
Black
10
101.052
20
-110.824
11
101.07
21
-110.775
0
LINE
8
Black
10
101.07
20
-110.775
11
101.103
21
-110.735
0
LINE
8
Black
10
101.103
20
-110.735
11
101.149
21
-110.709
0
LINE
8
Black
10
101.149
20
-110.709
11
101.2
21
-110.699
0
LINE
8
Black
10
101.2
20
-110.699
11
101.251
21
-110.709
0
LINE
8
Black
10
100.051
20
-110.709
11
100.097
21
-110.735
0
LINE
8
Black
10
100.097
20
-110.735
11
100.13
21
-110.775
0
LINE
8
Black
10
100.13
20
-110.775
11
100.148
21
-110.824
0
LINE
8
Black
10
100.148
20
-110.824
11
100.148
21
-110.876
0
LINE
8
Black
10
100.148
20
-110.876
11
100.13
21
-110.925
0
LINE
8
Black
10
100.13
20
-110.925
11
100.097
21
-110.965
0
LINE
8
Black
10
100.097
20
-110.965
11
100.051
21
-110.991
0
LINE
8
Black
10
100.051
20
-110.991
11
100
21
-111.001
0
LINE
8
Black
10
100
20
-111.001
11
99.9485
21
-110.991
0
LINE
8
Black
10
99.9485
20
-110.991
11
99.9032
21
-110.965
0
LINE
8
Black
10
99.9032
20
-110.965
11
99.8696
21
-110.925
0
LINE
8
Black
10
99.8696
20
-110.925
11
99.8517
21
-110.876
0
LINE
8
Black
10
99.8517
20
-110.876
11
99.8517
21
-110.824
0
LINE
8
Black
10
99.8517
20
-110.824
11
99.8696
21
-110.775
0
LINE
8
Black
10
99.8696
20
-110.775
11
99.9032
21
-110.735
0
LINE
8
Black
10
99.9032
20
-110.735
11
99.9485
21
-110.709
0
LINE
8
Black
10
99.9485
20
-110.709
11
100
21
-110.699
0
LINE
8
Black
10
100
20
-110.699
11
100.051
21
-110.709
0
LINE
8
Black
10
100.651
20
-110.709
11
100.697
21
-110.735
0
LINE
8
Black
10
100.697
20
-110.735
11
100.73
21
-110.775
0
LINE
8
Black
10
100.73
20
-110.775
11
100.748
21
-110.824
0
LINE
8
Black
10
100.748
20
-110.824
11
100.748
21
-110.876
0
LINE
8
Black
10
100.748
20
-110.876
11
100.73
21
-110.925
0
LINE
8
Black
10
100.73
20
-110.925
11
100.697
21
-110.965
0
LINE
8
Black
10
100.697
20
-110.965
11
100.651
21
-110.991
0
LINE
8
Black
10
100.651
20
-110.991
11
100.6
21
-111.001
0
LINE
8
Black
10
100.6
20
-111.001
11
100.549
21
-110.991
0
LINE
8
Black
10
100.549
20
-110.991
11
100.503
21
-110.965
0
LINE
8
Black
10
100.503
20
-110.965
11
100.47
21
-110.925
0
LINE
8
Black
10
100.47
20
-110.925
11
100.452
21
-110.876
0
LINE
8
Black
10
100.452
20
-110.876
11
100.452
21
-110.824
0
LINE
8
Black
10
100.452
20
-110.824
11
100.47
21
-110.775
0
LINE
8
Black
10
100.47
20
-110.775
11
100.503
21
-110.735
0
LINE
8
Black
10
100.503
20
-110.735
11
100.549
21
-110.709
0
LINE
8
Black
10
100.549
20
-110.709
11
100.6
21
-110.699
0
LINE
8
Black
10
100.6
20
-110.699
11
100.651
21
-110.709
0
LINE
8
Black
10
100.755
20
-90.945
11
101.75
21
-90.945
0
LINE
8
Black
10
101.75
20
-90.945
11
101.758
21
-90.9463
0
LINE
8
Black
10
101.758
20
-90.9463
11
101.765
21
-90.9454
0
LINE
8
Black
10
101.765
20
-90.9454
11
101.81
21
-90.9555
0
LINE
8
Black
10
101.81
20
-90.9555
11
101.854
21
-90.9634
0
LINE
8
Black
10
101.854
20
-90.9634
11
101.861
21
-90.9673
0
LINE
8
Black
10
101.861
20
-90.9673
11
101.869
21
-90.969
0
LINE
8
Black
10
101.869
20
-90.969
11
105.052
21
-92.312
0
LINE
8
Black
10
105.052
20
-92.312
11
105.055
21
-92.3125
0
LINE
8
Black
10
105.055
20
-92.3125
11
105.059
21
-92.3148
0
LINE
8
Black
10
105.059
20
-92.3148
11
105.069
21
-92.319
0
LINE
8
Black
10
105.069
20
-92.319
11
105.073
21
-92.3221
0
LINE
8
Black
10
105.073
20
-92.3221
11
105.079
21
-92.3236
0
LINE
8
Black
10
105.079
20
-92.3236
11
105.103
21
-92.3402
0
LINE
8
Black
10
105.103
20
-92.3402
11
105.147
21
-92.3656
0
LINE
8
Black
10
105.147
20
-92.3656
11
105.154
21
-92.374
0
LINE
8
Black
10
105.154
20
-92.374
11
105.158
21
-92.3765
0
LINE
8
Black
10
105.158
20
-92.3765
11
105.161
21
-92.381
0
LINE
8
Black
10
105.161
20
-92.381
11
105.166
21
-92.3843
0
LINE
8
Black
10
105.166
20
-92.3843
11
107.616
21
-94.8343
0
LINE
8
Black
10
107.616
20
-94.8343
11
107.619
21
-94.839
0
LINE
8
Black
10
107.619
20
-94.839
11
107.624
21
-94.8425
0
LINE
8
Black
10
107.624
20
-94.8425
11
107.649
21
-94.8823
0
LINE
8
Black
10
107.649
20
-94.8823
11
107.676
21
-94.9211
0
LINE
8
Black
10
107.676
20
-94.9211
11
107.678
21
-94.9266
0
LINE
8
Black
10
107.678
20
-94.9266
11
107.681
21
-94.9314
0
LINE
8
Black
10
107.681
20
-94.9314
11
109.031
21
-98.1314
0
LINE
8
Black
10
109.031
20
-98.1314
11
109.033
21
-98.139
0
LINE
8
Black
10
109.033
20
-98.139
11
109.037
21
-98.1457
0
LINE
8
Black
10
109.037
20
-98.1457
11
109.044
21
-98.1904
0
LINE
8
Black
10
109.044
20
-98.1904
11
109.055
21
-98.2347
0
LINE
8
Black
10
109.055
20
-98.2347
11
109.054
21
-98.2424
0
LINE
8
Black
10
109.054
20
-98.2424
11
109.055
21
-98.25
0
LINE
8
Black
10
109.055
20
-98.25
11
109.055
21
-100.75
0
LINE
8
Black
10
109.055
20
-100.75
11
109.055
21
-101.7
0
LINE
8
Black
10
109.055
20
-101.7
11
109.037
21
-101.804
0
LINE
8
Black
10
109.037
20
-101.804
11
109.018
21
-101.836
0
LINE
8
Black
10
109.018
20
-101.836
11
107.685
21
-105.045
0
LINE
8
Black
10
107.685
20
-105.045
11
107.675
21
-105.082
0
LINE
8
Black
10
107.675
20
-105.082
11
107.614
21
-105.168
0
LINE
8
Black
10
107.614
20
-105.168
11
105.064
21
-107.668
0
LINE
8
Black
10
105.064
20
-107.668
11
105.06
21
-107.67
0
LINE
8
Black
10
105.06
20
-107.67
11
105.057
21
-107.674
0
LINE
8
Black
10
105.057
20
-107.674
11
105.016
21
-107.7
0
LINE
8
Black
10
105.016
20
-107.7
11
104.976
21
-107.728
0
LINE
8
Black
10
104.976
20
-107.728
11
104.972
21
-107.729
0
LINE
8
Black
10
104.972
20
-107.729
11
104.968
21
-107.731
0
LINE
8
Black
10
104.968
20
-107.731
11
101.868
21
-109.031
0
LINE
8
Black
10
101.868
20
-109.031
11
101.861
21
-109.033
0
LINE
8
Black
10
101.861
20
-109.033
11
101.854
21
-109.037
0
LINE
8
Black
10
101.854
20
-109.037
11
101.809
21
-109.045
0
LINE
8
Black
10
101.809
20
-109.045
11
101.765
21
-109.055
0
LINE
8
Black
10
101.765
20
-109.055
11
101.757
21
-109.054
0
LINE
8
Black
10
101.757
20
-109.054
11
101.75
21
-109.055
0
LINE
8
Black
10
101.75
20
-109.055
11
99.2555
21
-109.055
0
LINE
8
Black
10
99.2555
20
-109.055
11
99.25
21
-109.056
0
LINE
8
Black
10
99.25
20
-109.056
11
99.2445
21
-109.055
0
LINE
8
Black
10
99.2445
20
-109.055
11
98.25
21
-109.055
0
LINE
8
Black
10
98.25
20
-109.055
11
98.2424
21
-109.054
0
LINE
8
Black
10
98.2424
20
-109.054
11
98.2347
21
-109.055
0
LINE
8
Black
10
98.2347
20
-109.055
11
98.1904
21
-109.044
0
LINE
8
Black
10
98.1904
20
-109.044
11
98.1457
21
-109.037
0
LINE
8
Black
10
98.1457
20
-109.037
11
98.139
21
-109.033
0
LINE
8
Black
10
98.139
20
-109.033
11
98.1314
21
-109.031
0
LINE
8
Black
10
98.1314
20
-109.031
11
94.9314
21
-107.681
0
LINE
8
Black
10
94.9314
20
-107.681
11
94.9266
21
-107.678
0
LINE
8
Black
10
94.9266
20
-107.678
11
94.9211
21
-107.676
0
LINE
8
Black
10
94.9211
20
-107.676
11
94.8823
21
-107.649
0
LINE
8
Black
10
94.8823
20
-107.649
11
94.8425
21
-107.624
0
LINE
8
Black
10
94.8425
20
-107.624
11
94.839
21
-107.619
0
LINE
8
Black
10
94.839
20
-107.619
11
94.8343
21
-107.616
0
LINE
8
Black
10
94.8343
20
-107.616
11
92.3843
21
-105.166
0
LINE
8
Black
10
92.3843
20
-105.166
11
92.381
21
-105.161
0
LINE
8
Black
10
92.381
20
-105.161
11
92.3765
21
-105.158
0
LINE
8
Black
10
92.3765
20
-105.158
11
92.3508
21
-105.118
0
LINE
8
Black
10
92.3508
20
-105.118
11
92.3236
21
-105.079
0
LINE
8
Black
10
92.3236
20
-105.079
11
92.3221
21
-105.073
0
LINE
8
Black
10
92.3221
20
-105.073
11
92.319
21
-105.069
0
LINE
8
Black
10
92.319
20
-105.069
11
90.969
21
-101.869
0
LINE
8
Black
10
90.969
20
-101.869
11
90.9673
21
-101.861
0
LINE
8
Black
10
90.9673
20
-101.861
11
90.9634
21
-101.854
0
LINE
8
Black
10
90.9634
20
-101.854
11
90.9555
21
-101.81
0
LINE
8
Black
10
90.9555
20
-101.81
11
90.9454
21
-101.765
0
LINE
8
Black
10
90.9454
20
-101.765
11
90.9463
21
-101.758
0
LINE
8
Black
10
90.9463
20
-101.758
11
90.945
21
-101.75
0
LINE
8
Black
10
90.945
20
-101.75
11
90.945
21
-99.25
0
LINE
8
Black
10
90.945
20
-99.25
11
90.945
21
-98.25
0
LINE
8
Black
10
90.945
20
-98.25
11
90.9463
21
-98.2424
0
LINE
8
Black
10
90.9463
20
-98.2424
11
90.9454
21
-98.2347
0
LINE
8
Black
10
90.9454
20
-98.2347
11
90.9555
21
-98.1904
0
LINE
8
Black
10
90.9555
20
-98.1904
11
90.9634
21
-98.1457
0
LINE
8
Black
10
90.9634
20
-98.1457
11
90.9673
21
-98.139
0
LINE
8
Black
10
90.9673
20
-98.139
11
90.969
21
-98.1314
0
LINE
8
Black
10
90.969
20
-98.1314
11
92.319
21
-94.9314
0
LINE
8
Black
10
92.319
20
-94.9314
11
92.3221
21
-94.9266
0
LINE
8
Black
10
92.3221
20
-94.9266
11
92.3236
21
-94.9211
0
LINE
8
Black
10
92.3236
20
-94.9211
11
92.3508
21
-94.8823
0
LINE
8
Black
10
92.3508
20
-94.8823
11
92.3765
21
-94.8425
0
LINE
8
Black
10
92.3765
20
-94.8425
11
92.381
21
-94.839
0
LINE
8
Black
10
92.381
20
-94.839
11
92.3843
21
-94.8343
0
LINE
8
Black
10
92.3843
20
-94.8343
11
94.8343
21
-92.3843
0
LINE
8
Black
10
94.8343
20
-92.3843
11
94.839
21
-92.381
0
LINE
8
Black
10
94.839
20
-92.381
11
94.8425
21
-92.3765
0
LINE
8
Black
10
94.8425
20
-92.3765
11
94.8823
21
-92.3508
0
LINE
8
Black
10
94.8823
20
-92.3508
11
94.9211
21
-92.3236
0
LINE
8
Black
10
94.9211
20
-92.3236
11
94.9266
21
-92.3221
0
LINE
8
Black
10
94.9266
20
-92.3221
11
94.9314
21
-92.319
0
LINE
8
Black
10
94.9314
20
-92.319
11
98.1314
21
-90.969
0
LINE
8
Black
10
98.1314
20
-90.969
11
98.139
21
-90.9673
0
LINE
8
Black
10
98.139
20
-90.9673
11
98.1457
21
-90.9634
0
LINE
8
Black
10
98.1457
20
-90.9634
11
98.1904
21
-90.9555
0
LINE
8
Black
10
98.1904
20
-90.9555
11
98.2347
21
-90.9454
0
LINE
8
Black
10
98.2347
20
-90.9454
11
98.2424
21
-90.9463
0
LINE
8
Black
10
98.2424
20
-90.9463
11
98.25
21
-90.945
0
LINE
8
Black
10
98.25
20
-90.945
11
100.745
21
-90.945
0
LINE
8
Black
10
100.745
20
-90.945
11
100.75
21
-90.944
0
LINE
8
Black
10
100.75
20
-90.944
11
100.755
21
-90.945
0
LINE
8
Black
10
98.3117
20
-91.555
11
95.2235
21
-92.8578
0
LINE
8
Black
10
95.2235
20
-92.8578
11
92.8578
21
-95.2235
0
LINE
8
Black
10
92.8578
20
-95.2235
11
91.555
21
-98.3117
0
LINE
8
Black
10
91.555
20
-98.3117
11
91.555
21
-99.25
0
LINE
8
Black
10
91.555
20
-99.25
11
91.555
21
-101.688
0
LINE
8
Black
10
91.555
20
-101.688
11
92.8578
21
-104.776
0
LINE
8
Black
10
92.8578
20
-104.776
11
95.2235
21
-107.142
0
LINE
8
Black
10
95.2235
20
-107.142
11
98.3117
21
-108.445
0
LINE
8
Black
10
98.3117
20
-108.445
11
99.2445
21
-108.445
0
LINE
8
Black
10
99.2445
20
-108.445
11
99.25
21
-108.444
0
LINE
8
Black
10
99.25
20
-108.444
11
99.2555
21
-108.445
0
LINE
8
Black
10
99.2555
20
-108.445
11
101.689
21
-108.445
0
LINE
8
Black
10
101.689
20
-108.445
11
104.678
21
-107.191
0
LINE
8
Black
10
104.678
20
-107.191
11
107.151
21
-104.767
0
LINE
8
Black
10
107.151
20
-104.767
11
108.445
21
-101.652
0
LINE
8
Black
10
108.445
20
-101.652
11
108.445
21
-100.75
0
LINE
8
Black
10
108.445
20
-100.75
11
108.445
21
-98.3117
0
LINE
8
Black
10
108.445
20
-98.3117
11
107.142
21
-95.2235
0
LINE
8
Black
10
107.142
20
-95.2235
11
104.776
21
-92.8578
0
LINE
8
Black
10
104.776
20
-92.8578
11
101.688
21
-91.555
0
LINE
8
Black
10
101.688
20
-91.555
11
100.755
21
-91.555
0
LINE
8
Black
10
100.755
20
-91.555
11
100.75
21
-91.556
0
LINE
8
Black
10
100.75
20
-91.556
11
100.745
21
-91.555
0
LINE
8
Black
10
100.745
20
-91.555
11
98.3117
21
-91.555
0
LINE
8
Black
10
100.455
20
-93.1125
11
100.547
21
-93.1656
0
LINE
8
Black
10
100.547
20
-93.1656
11
100.615
21
-93.247
0
LINE
8
Black
10
100.615
20
-93.247
11
100.651
21
-93.3469
0
LINE
8
Black
10
100.651
20
-93.3469
11
100.651
21
-93.4531
0
LINE
8
Black
10
100.651
20
-93.4531
11
100.615
21
-93.553
0
LINE
8
Black
10
100.615
20
-93.553
11
100.547
21
-93.6344
0
LINE
8
Black
10
100.547
20
-93.6344
11
100.455
21
-93.6875
0
LINE
8
Black
10
100.455
20
-93.6875
11
100.35
21
-93.706
0
LINE
8
Black
10
100.35
20
-93.706
11
100.245
21
-93.6875
0
LINE
8
Black
10
100.245
20
-93.6875
11
100.241
21
-93.6853
0
LINE
8
Black
10
100.241
20
-93.6853
11
97.975
21
-95.9518
0
LINE
8
Black
10
97.975
20
-95.9518
11
97.975
21
-98.5982
0
LINE
8
Black
10
97.975
20
-98.5982
11
98.2518
21
-98.875
0
LINE
8
Black
10
98.2518
20
-98.875
11
100.548
21
-98.875
0
LINE
8
Black
10
100.548
20
-98.875
11
101.062
21
-98.3616
0
LINE
8
Black
10
101.062
20
-98.3616
11
101.066
21
-98.3585
0
LINE
8
Black
10
101.066
20
-98.3585
11
101.07
21
-98.3542
0
LINE
8
Black
10
101.07
20
-98.3542
11
101.084
21
-98.3461
0
LINE
8
Black
10
101.084
20
-98.3461
11
101.097
21
-98.3367
0
LINE
8
Black
10
101.097
20
-98.3367
11
101.102
21
-98.3353
0
LINE
8
Black
10
101.102
20
-98.3353
11
101.107
21
-98.3325
0
LINE
8
Black
10
101.107
20
-98.3325
11
101.123
21
-98.3297
0
LINE
8
Black
10
101.123
20
-98.3297
11
101.139
21
-98.3255
0
LINE
8
Black
10
101.139
20
-98.3255
11
101.145
21
-98.326
0
LINE
8
Black
10
101.145
20
-98.326
11
101.15
21
-98.325
0
LINE
8
Black
10
101.15
20
-98.325
11
101.7
21
-98.325
0
LINE
8
Black
10
101.7
20
-98.325
11
101.705
21
-98.326
0
LINE
8
Black
10
101.705
20
-98.326
11
101.711
21
-98.3255
0
LINE
8
Black
10
101.711
20
-98.3255
11
101.727
21
-98.3297
0
LINE
8
Black
10
101.727
20
-98.3297
11
101.743
21
-98.3325
0
LINE
8
Black
10
101.743
20
-98.3325
11
101.748
21
-98.3353
0
LINE
8
Black
10
101.748
20
-98.3353
11
101.753
21
-98.3367
0
LINE
8
Black
10
101.753
20
-98.3367
11
101.766
21
-98.3461
0
LINE
8
Black
10
101.766
20
-98.3461
11
101.78
21
-98.3542
0
LINE
8
Black
10
101.78
20
-98.3542
11
101.784
21
-98.3585
0
LINE
8
Black
10
101.784
20
-98.3585
11
101.788
21
-98.3616
0
LINE
8
Black
10
101.788
20
-98.3616
11
102.138
21
-98.7116
0
LINE
8
Black
10
102.138
20
-98.7116
11
102.142
21
-98.7161
0
LINE
8
Black
10
102.142
20
-98.7161
11
102.146
21
-98.7197
0
LINE
8
Black
10
102.146
20
-98.7197
11
102.154
21
-98.7338
0
LINE
8
Black
10
102.154
20
-98.7338
11
102.163
21
-98.7472
0
LINE
8
Black
10
102.163
20
-98.7472
11
102.165
21
-98.7525
0
LINE
8
Black
10
102.165
20
-98.7525
11
102.167
21
-98.7572
0
LINE
8
Black
10
102.167
20
-98.7572
11
102.17
21
-98.7733
0
LINE
8
Black
10
102.17
20
-98.7733
11
102.175
21
-98.7891
0
LINE
8
Black
10
102.175
20
-98.7891
11
102.174
21
-98.7946
0
LINE
8
Black
10
102.174
20
-98.7946
11
102.175
21
-98.8
0
LINE
8
Black
10
102.175
20
-98.8
11
102.175
21
-99.35
0
LINE
8
Black
10
102.175
20
-99.35
11
102.174
21
-99.3554
0
LINE
8
Black
10
102.174
20
-99.3554
11
102.175
21
-99.3609
0
LINE
8
Black
10
102.175
20
-99.3609
11
102.17
21
-99.3767
0
LINE
8
Black
10
102.17
20
-99.3767
11
102.167
21
-99.3928
0
LINE
8
Black
10
102.167
20
-99.3928
11
102.165
21
-99.3975
0
LINE
8
Black
10
102.165
20
-99.3975
11
102.163
21
-99.4028
0
LINE
8
Black
10
102.163
20
-99.4028
11
102.154
21
-99.4162
0
LINE
8
Black
10
102.154
20
-99.4162
11
102.146
21
-99.4303
0
LINE
8
Black
10
102.146
20
-99.4303
11
102.142
21
-99.4339
0
LINE
8
Black
10
102.142
20
-99.4339
11
102.138
21
-99.4384
0
LINE
8
Black
10
102.138
20
-99.4384
11
101.732
21
-99.8445
0
LINE
8
Black
10
101.732
20
-99.8445
11
101.751
21
-99.8969
0
LINE
8
Black
10
101.751
20
-99.8969
11
101.751
21
-100.003
0
LINE
8
Black
10
101.751
20
-100.003
11
101.715
21
-100.103
0
LINE
8
Black
10
101.715
20
-100.103
11
101.647
21
-100.184
0
LINE
8
Black
10
101.647
20
-100.184
11
101.555
21
-100.238
0
LINE
8
Black
10
101.555
20
-100.238
11
101.45
21
-100.256
0
LINE
8
Black
10
101.45
20
-100.256
11
101.345
21
-100.238
0
LINE
8
Black
10
101.345
20
-100.238
11
101.341
21
-100.235
0
LINE
8
Black
10
101.341
20
-100.235
11
101.325
21
-100.252
0
LINE
8
Black
10
101.325
20
-100.252
11
101.325
21
-106.9
0
LINE
8
Black
10
101.325
20
-106.9
11
101.324
21
-106.905
0
LINE
8
Black
10
101.324
20
-106.905
11
101.325
21
-106.911
0
LINE
8
Black
10
101.325
20
-106.911
11
101.32
21
-106.927
0
LINE
8
Black
10
101.32
20
-106.927
11
101.317
21
-106.943
0
LINE
8
Black
10
101.317
20
-106.943
11
101.315
21
-106.948
0
LINE
8
Black
10
101.315
20
-106.948
11
101.313
21
-106.953
0
LINE
8
Black
10
101.313
20
-106.953
11
101.304
21
-106.966
0
LINE
8
Black
10
101.304
20
-106.966
11
101.296
21
-106.98
0
LINE
8
Black
10
101.296
20
-106.98
11
101.292
21
-106.984
0
LINE
8
Black
10
101.292
20
-106.984
11
101.288
21
-106.988
0
LINE
8
Black
10
101.288
20
-106.988
11
100.738
21
-107.538
0
LINE
8
Black
10
100.738
20
-107.538
11
100.734
21
-107.542
0
LINE
8
Black
10
100.734
20
-107.542
11
100.73
21
-107.546
0
LINE
8
Black
10
100.73
20
-107.546
11
100.716
21
-107.554
0
LINE
8
Black
10
100.716
20
-107.554
11
100.703
21
-107.563
0
LINE
8
Black
10
100.703
20
-107.563
11
100.698
21
-107.565
0
LINE
8
Black
10
100.698
20
-107.565
11
100.693
21
-107.567
0
LINE
8
Black
10
100.693
20
-107.567
11
100.677
21
-107.57
0
LINE
8
Black
10
100.677
20
-107.57
11
100.661
21
-107.575
0
LINE
8
Black
10
100.661
20
-107.575
11
100.655
21
-107.574
0
LINE
8
Black
10
100.655
20
-107.574
11
100.65
21
-107.575
0
LINE
8
Black
10
100.65
20
-107.575
11
99.8
21
-107.575
0
LINE
8
Black
10
99.8
20
-107.575
11
99.7946
21
-107.574
0
LINE
8
Black
10
99.7946
20
-107.574
11
99.7891
21
-107.575
0
LINE
8
Black
10
99.7891
20
-107.575
11
99.7733
21
-107.57
0
LINE
8
Black
10
99.7733
20
-107.57
11
99.7572
21
-107.567
0
LINE
8
Black
10
99.7572
20
-107.567
11
99.7525
21
-107.565
0
LINE
8
Black
10
99.7525
20
-107.565
11
99.7472
21
-107.563
0
LINE
8
Black
10
99.7472
20
-107.563
11
99.7338
21
-107.554
0
LINE
8
Black
10
99.7338
20
-107.554
11
99.7197
21
-107.546
0
LINE
8
Black
10
99.7197
20
-107.546
11
99.7161
21
-107.542
0
LINE
8
Black
10
99.7161
20
-107.542
11
99.7116
21
-107.538
0
LINE
8
Black
10
99.7116
20
-107.538
11
99.5116
21
-107.338
0
LINE
8
Black
10
99.5116
20
-107.338
11
99.5085
21
-107.334
0
LINE
8
Black
10
99.5085
20
-107.334
11
99.5042
21
-107.33
0
LINE
8
Black
10
99.5042
20
-107.33
11
99.4961
21
-107.316
0
LINE
8
Black
10
99.4961
20
-107.316
11
99.4867
21
-107.303
0
LINE
8
Black
10
99.4867
20
-107.303
11
99.4853
21
-107.298
0
LINE
8
Black
10
99.4853
20
-107.298
11
99.4825
21
-107.293
0
LINE
8
Black
10
99.4825
20
-107.293
11
99.4797
21
-107.277
0
LINE
8
Black
10
99.4797
20
-107.277
11
99.4755
21
-107.261
0
LINE
8
Black
10
99.4755
20
-107.261
11
99.476
21
-107.255
0
LINE
8
Black
10
99.476
20
-107.255
11
99.475
21
-107.25
0
LINE
8
Black
10
99.475
20
-107.25
11
99.475
21
-107.076
0
LINE
8
Black
10
99.475
20
-107.076
11
99.4033
21
-107.034
0
LINE
8
Black
10
99.4033
20
-107.034
11
99.335
21
-106.953
0
LINE
8
Black
10
99.335
20
-106.953
11
99.2987
21
-106.853
0
LINE
8
Black
10
99.2987
20
-106.853
11
99.2987
21
-106.747
0
LINE
8
Black
10
99.2987
20
-106.747
11
99.335
21
-106.647
0
LINE
8
Black
10
99.335
20
-106.647
11
99.4033
21
-106.566
0
LINE
8
Black
10
99.4033
20
-106.566
11
99.4954
21
-106.512
0
LINE
8
Black
10
99.4954
20
-106.512
11
99.6
21
-106.494
0
LINE
8
Black
10
99.6
20
-106.494
11
99.7046
21
-106.512
0
LINE
8
Black
10
99.7046
20
-106.512
11
99.7967
21
-106.566
0
LINE
8
Black
10
99.7967
20
-106.566
11
99.865
21
-106.647
0
LINE
8
Black
10
99.865
20
-106.647
11
99.9013
21
-106.747
0
LINE
8
Black
10
99.9013
20
-106.747
11
99.9013
21
-106.853
0
LINE
8
Black
10
99.9013
20
-106.853
11
99.865
21
-106.953
0
LINE
8
Black
10
99.865
20
-106.953
11
99.7967
21
-107.034
0
LINE
8
Black
10
99.7967
20
-107.034
11
99.725
21
-107.076
0
LINE
8
Black
10
99.725
20
-107.076
11
99.725
21
-107.198
0
LINE
8
Black
10
99.725
20
-107.198
11
99.8518
21
-107.325
0
LINE
8
Black
10
99.8518
20
-107.325
11
100.598
21
-107.325
0
LINE
8
Black
10
100.598
20
-107.325
11
101.075
21
-106.848
0
LINE
8
Black
10
101.075
20
-106.848
11
101.075
21
-100.2
0
LINE
8
Black
10
101.075
20
-100.2
11
101.076
21
-100.195
0
LINE
8
Black
10
101.076
20
-100.195
11
101.075
21
-100.189
0
LINE
8
Black
10
101.075
20
-100.189
11
101.08
21
-100.173
0
LINE
8
Black
10
101.08
20
-100.173
11
101.083
21
-100.157
0
LINE
8
Black
10
101.083
20
-100.157
11
101.085
21
-100.152
0
LINE
8
Black
10
101.085
20
-100.152
11
101.087
21
-100.147
0
LINE
8
Black
10
101.087
20
-100.147
11
101.096
21
-100.134
0
LINE
8
Black
10
101.096
20
-100.134
11
101.104
21
-100.12
0
LINE
8
Black
10
101.104
20
-100.12
11
101.108
21
-100.116
0
LINE
8
Black
10
101.108
20
-100.116
11
101.112
21
-100.112
0
LINE
8
Black
10
101.112
20
-100.112
11
101.168
21
-100.055
0
LINE
8
Black
10
101.168
20
-100.055
11
101.149
21
-100.003
0
LINE
8
Black
10
101.149
20
-100.003
11
101.149
21
-99.8969
0
LINE
8
Black
10
101.149
20
-99.8969
11
101.185
21
-99.797
0
LINE
8
Black
10
101.185
20
-99.797
11
101.253
21
-99.7156
0
LINE
8
Black
10
101.253
20
-99.7156
11
101.345
21
-99.6625
0
LINE
8
Black
10
101.345
20
-99.6625
11
101.45
21
-99.644
0
LINE
8
Black
10
101.45
20
-99.644
11
101.555
21
-99.6625
0
LINE
8
Black
10
101.555
20
-99.6625
11
101.559
21
-99.6647
0
LINE
8
Black
10
101.559
20
-99.6647
11
101.925
21
-99.2982
0
LINE
8
Black
10
101.925
20
-99.2982
11
101.925
21
-98.8518
0
LINE
8
Black
10
101.925
20
-98.8518
11
101.648
21
-98.575
0
LINE
8
Black
10
101.648
20
-98.575
11
101.202
21
-98.575
0
LINE
8
Black
10
101.202
20
-98.575
11
100.688
21
-99.0884
0
LINE
8
Black
10
100.688
20
-99.0884
11
100.684
21
-99.0915
0
LINE
8
Black
10
100.684
20
-99.0915
11
100.68
21
-99.0958
0
LINE
8
Black
10
100.68
20
-99.0958
11
100.666
21
-99.1039
0
LINE
8
Black
10
100.666
20
-99.1039
11
100.653
21
-99.1133
0
LINE
8
Black
10
100.653
20
-99.1133
11
100.648
21
-99.1147
0
LINE
8
Black
10
100.648
20
-99.1147
11
100.643
21
-99.1175
0
LINE
8
Black
10
100.643
20
-99.1175
11
100.627
21
-99.1203
0
LINE
8
Black
10
100.627
20
-99.1203
11
100.611
21
-99.1245
0
LINE
8
Black
10
100.611
20
-99.1245
11
100.605
21
-99.124
0
LINE
8
Black
10
100.605
20
-99.124
11
100.6
21
-99.125
0
LINE
8
Black
10
100.6
20
-99.125
11
98.2
21
-99.125
0
LINE
8
Black
10
98.2
20
-99.125
11
98.1946
21
-99.124
0
LINE
8
Black
10
98.1946
20
-99.124
11
98.1891
21
-99.1245
0
LINE
8
Black
10
98.1891
20
-99.1245
11
98.1733
21
-99.1203
0
LINE
8
Black
10
98.1733
20
-99.1203
11
98.1572
21
-99.1175
0
LINE
8
Black
10
98.1572
20
-99.1175
11
98.1525
21
-99.1147
0
LINE
8
Black
10
98.1525
20
-99.1147
11
98.1472
21
-99.1133
0
LINE
8
Black
10
98.1472
20
-99.1133
11
98.1338
21
-99.1039
0
LINE
8
Black
10
98.1338
20
-99.1039
11
98.1197
21
-99.0958
0
LINE
8
Black
10
98.1197
20
-99.0958
11
98.1161
21
-99.0915
0
LINE
8
Black
10
98.1161
20
-99.0915
11
98.1116
21
-99.0884
0
LINE
8
Black
10
98.1116
20
-99.0884
11
97.85
21
-98.8268
0
LINE
8
Black
10
97.85
20
-98.8268
11
97.5884
21
-99.0884
0
LINE
8
Black
10
97.5884
20
-99.0884
11
97.5839
21
-99.0915
0
LINE
8
Black
10
97.5839
20
-99.0915
11
97.5803
21
-99.0958
0
LINE
8
Black
10
97.5803
20
-99.0958
11
97.5662
21
-99.1039
0
LINE
8
Black
10
97.5662
20
-99.1039
11
97.5528
21
-99.1133
0
LINE
8
Black
10
97.5528
20
-99.1133
11
97.5475
21
-99.1147
0
LINE
8
Black
10
97.5475
20
-99.1147
11
97.5428
21
-99.1175
0
LINE
8
Black
10
97.5428
20
-99.1175
11
97.5267
21
-99.1203
0
LINE
8
Black
10
97.5267
20
-99.1203
11
97.5109
21
-99.1245
0
LINE
8
Black
10
97.5109
20
-99.1245
11
97.5054
21
-99.124
0
LINE
8
Black
10
97.5054
20
-99.124
11
97.5
21
-99.125
0
LINE
8
Black
10
97.5
20
-99.125
11
93.4
21
-99.125
0
LINE
8
Black
10
93.4
20
-99.125
11
93.3946
21
-99.124
0
LINE
8
Black
10
93.3946
20
-99.124
11
93.3891
21
-99.1245
0
LINE
8
Black
10
93.3891
20
-99.1245
11
93.3733
21
-99.1203
0
LINE
8
Black
10
93.3733
20
-99.1203
11
93.3572
21
-99.1175
0
LINE
8
Black
10
93.3572
20
-99.1175
11
93.3525
21
-99.1147
0
LINE
8
Black
10
93.3525
20
-99.1147
11
93.3472
21
-99.1133
0
LINE
8
Black
10
93.3472
20
-99.1133
11
93.3338
21
-99.1039
0
LINE
8
Black
10
93.3338
20
-99.1039
11
93.3197
21
-99.0958
0
LINE
8
Black
10
93.3197
20
-99.0958
11
93.3161
21
-99.0915
0
LINE
8
Black
10
93.3161
20
-99.0915
11
93.3116
21
-99.0884
0
LINE
8
Black
10
93.3116
20
-99.0884
11
93.0085
21
-98.7853
0
LINE
8
Black
10
93.0085
20
-98.7853
11
93.0046
21
-98.7875
0
LINE
8
Black
10
93.0046
20
-98.7875
11
92.9
21
-98.806
0
LINE
8
Black
10
92.9
20
-98.806
11
92.7954
21
-98.7875
0
LINE
8
Black
10
92.7954
20
-98.7875
11
92.7033
21
-98.7344
0
LINE
8
Black
10
92.7033
20
-98.7344
11
92.635
21
-98.653
0
LINE
8
Black
10
92.635
20
-98.653
11
92.5987
21
-98.5531
0
LINE
8
Black
10
92.5987
20
-98.5531
11
92.5987
21
-98.4469
0
LINE
8
Black
10
92.5987
20
-98.4469
11
92.635
21
-98.347
0
LINE
8
Black
10
92.635
20
-98.347
11
92.7033
21
-98.2656
0
LINE
8
Black
10
92.7033
20
-98.2656
11
92.7954
21
-98.2125
0
LINE
8
Black
10
92.7954
20
-98.2125
11
92.9
21
-98.194
0
LINE
8
Black
10
92.9
20
-98.194
11
93.0046
21
-98.2125
0
LINE
8
Black
10
93.0046
20
-98.2125
11
93.0967
21
-98.2656
0
LINE
8
Black
10
93.0967
20
-98.2656
11
93.165
21
-98.347
0
LINE
8
Black
10
93.165
20
-98.347
11
93.2013
21
-98.4469
0
LINE
8
Black
10
93.2013
20
-98.4469
11
93.2013
21
-98.5531
0
LINE
8
Black
10
93.2013
20
-98.5531
11
93.1823
21
-98.6055
0
LINE
8
Black
10
93.1823
20
-98.6055
11
93.4518
21
-98.875
0
LINE
8
Black
10
93.4518
20
-98.875
11
97.4482
21
-98.875
0
LINE
8
Black
10
97.4482
20
-98.875
11
97.725
21
-98.5982
0
LINE
8
Black
10
97.725
20
-98.5982
11
97.725
21
-95.9
0
LINE
8
Black
10
97.725
20
-95.9
11
97.726
21
-95.8946
0
LINE
8
Black
10
97.726
20
-95.8946
11
97.7255
21
-95.8891
0
LINE
8
Black
10
97.7255
20
-95.8891
11
97.7297
21
-95.8733
0
LINE
8
Black
10
97.7297
20
-95.8733
11
97.7325
21
-95.8572
0
LINE
8
Black
10
97.7325
20
-95.8572
11
97.7353
21
-95.8525
0
LINE
8
Black
10
97.7353
20
-95.8525
11
97.7367
21
-95.8472
0
LINE
8
Black
10
97.7367
20
-95.8472
11
97.7461
21
-95.8338
0
LINE
8
Black
10
97.7461
20
-95.8338
11
97.7542
21
-95.8197
0
LINE
8
Black
10
97.7542
20
-95.8197
11
97.7585
21
-95.8161
0
LINE
8
Black
10
97.7585
20
-95.8161
11
97.7616
21
-95.8116
0
LINE
8
Black
10
97.7616
20
-95.8116
11
100.068
21
-93.5055
0
LINE
8
Black
10
100.068
20
-93.5055
11
100.049
21
-93.4531
0
LINE
8
Black
10
100.049
20
-93.4531
11
100.049
21
-93.3469
0
LINE
8
Black
10
100.049
20
-93.3469
11
100.085
21
-93.247
0
LINE
8
Black
10
100.085
20
-93.247
11
100.153
21
-93.1656
0
LINE
8
Black
10
100.153
20
-93.1656
11
100.245
21
-93.1125
0
LINE
8
Black
10
100.245
20
-93.1125
11
100.35
21
-93.094
0
LINE
8
Black
10
100.35
20
-93.094
11
100.455
21
-93.1125
0
LINE
8
Black
10
99.7197
20
-93.0078
11
99.8117
21
-93.0609
0
LINE
8
Black
10
99.8117
20
-93.0609
11
99.88
21
-93.1423
0
LINE
8
Black
10
99.88
20
-93.1423
11
99.9163
21
-93.2422
0
LINE
8
Black
10
99.9163
20
-93.2422
11
99.9163
21
-93.3484
0
LINE
8
Black
10
99.9163
20
-93.3484
11
99.88
21
-93.4483
0
LINE
8
Black
10
99.88
20
-93.4483
11
99.8117
21
-93.5297
0
LINE
8
Black
10
99.8117
20
-93.5297
11
99.7197
21
-93.5828
0
LINE
8
Black
10
99.7197
20
-93.5828
11
99.675
21
-93.5907
0
LINE
8
Black
10
99.675
20
-93.5907
11
99.675
21
-93.6
0
LINE
8
Black
10
99.675
20
-93.6
11
99.674
21
-93.6054
0
LINE
8
Black
10
99.674
20
-93.6054
11
99.6745
21
-93.6109
0
LINE
8
Black
10
99.6745
20
-93.6109
11
99.6703
21
-93.6267
0
LINE
8
Black
10
99.6703
20
-93.6267
11
99.6675
21
-93.6428
0
LINE
8
Black
10
99.6675
20
-93.6428
11
99.6647
21
-93.6475
0
LINE
8
Black
10
99.6647
20
-93.6475
11
99.6633
21
-93.6528
0
LINE
8
Black
10
99.6633
20
-93.6528
11
99.6539
21
-93.6662
0
LINE
8
Black
10
99.6539
20
-93.6662
11
99.6458
21
-93.6803
0
LINE
8
Black
10
99.6458
20
-93.6803
11
99.6415
21
-93.6839
0
LINE
8
Black
10
99.6415
20
-93.6839
11
99.6384
21
-93.6884
0
LINE
8
Black
10
99.6384
20
-93.6884
11
97.575
21
-95.7518
0
LINE
8
Black
10
97.575
20
-95.7518
11
97.575
21
-97.9
0
LINE
8
Black
10
97.575
20
-97.9
11
97.574
21
-97.9054
0
LINE
8
Black
10
97.574
20
-97.9054
11
97.5745
21
-97.9109
0
LINE
8
Black
10
97.5745
20
-97.9109
11
97.5703
21
-97.9267
0
LINE
8
Black
10
97.5703
20
-97.9267
11
97.5675
21
-97.9428
0
LINE
8
Black
10
97.5675
20
-97.9428
11
97.5647
21
-97.9475
0
LINE
8
Black
10
97.5647
20
-97.9475
11
97.5633
21
-97.9528
0
LINE
8
Black
10
97.5633
20
-97.9528
11
97.5539
21
-97.9662
0
LINE
8
Black
10
97.5539
20
-97.9662
11
97.5458
21
-97.9803
0
LINE
8
Black
10
97.5458
20
-97.9803
11
97.5415
21
-97.9839
0
LINE
8
Black
10
97.5415
20
-97.9839
11
97.5384
21
-97.9884
0
LINE
8
Black
10
97.5384
20
-97.9884
11
96.8884
21
-98.6384
0
LINE
8
Black
10
96.8884
20
-98.6384
11
96.8839
21
-98.6415
0
LINE
8
Black
10
96.8839
20
-98.6415
11
96.8803
21
-98.6458
0
LINE
8
Black
10
96.8803
20
-98.6458
11
96.8662
21
-98.6539
0
LINE
8
Black
10
96.8662
20
-98.6539
11
96.8528
21
-98.6633
0
LINE
8
Black
10
96.8528
20
-98.6633
11
96.8475
21
-98.6647
0
LINE
8
Black
10
96.8475
20
-98.6647
11
96.8428
21
-98.6675
0
LINE
8
Black
10
96.8428
20
-98.6675
11
96.8267
21
-98.6703
0
LINE
8
Black
10
96.8267
20
-98.6703
11
96.8109
21
-98.6745
0
LINE
8
Black
10
96.8109
20
-98.6745
11
96.8054
21
-98.674
0
LINE
8
Black
10
96.8054
20
-98.674
11
96.8
21
-98.675
0
LINE
8
Black
10
96.8
20
-98.675
11
93.8
21
-98.675
0
LINE
8
Black
10
93.8
20
-98.675
11
93.7946
21
-98.674
0
LINE
8
Black
10
93.7946
20
-98.674
11
93.7891
21
-98.6745
0
LINE
8
Black
10
93.7891
20
-98.6745
11
93.7733
21
-98.6703
0
LINE
8
Black
10
93.7733
20
-98.6703
11
93.7572
21
-98.6675
0
LINE
8
Black
10
93.7572
20
-98.6675
11
93.7525
21
-98.6647
0
LINE
8
Black
10
93.7525
20
-98.6647
11
93.7472
21
-98.6633
0
LINE
8
Black
10
93.7472
20
-98.6633
11
93.7338
21
-98.6539
0
LINE
8
Black
10
93.7338
20
-98.6539
11
93.7197
21
-98.6458
0
LINE
8
Black
10
93.7197
20
-98.6458
11
93.7161
21
-98.6415
0
LINE
8
Black
10
93.7161
20
-98.6415
11
93.7116
21
-98.6384
0
LINE
8
Black
10
93.7116
20
-98.6384
11
93.0482
21
-97.975
0
LINE
8
Black
10
93.0482
20
-97.975
11
92.7018
21
-97.975
0
LINE
8
Black
10
92.7018
20
-97.975
11
92.375
21
-98.3018
0
LINE
8
Black
10
92.375
20
-98.3018
11
92.375
21
-99.3482
0
LINE
8
Black
10
92.375
20
-99.3482
11
93.2415
21
-100.215
0
LINE
8
Black
10
93.2415
20
-100.215
11
93.2454
21
-100.212
0
LINE
8
Black
10
93.2454
20
-100.212
11
93.35
21
-100.194
0
LINE
8
Black
10
93.35
20
-100.194
11
93.4546
21
-100.212
0
LINE
8
Black
10
93.4546
20
-100.212
11
93.4585
21
-100.215
0
LINE
8
Black
10
93.4585
20
-100.215
11
94.3116
21
-99.3616
0
LINE
8
Black
10
94.3116
20
-99.3616
11
94.3161
21
-99.3585
0
LINE
8
Black
10
94.3161
20
-99.3585
11
94.3197
21
-99.3542
0
LINE
8
Black
10
94.3197
20
-99.3542
11
94.3338
21
-99.3461
0
LINE
8
Black
10
94.3338
20
-99.3461
11
94.3472
21
-99.3367
0
LINE
8
Black
10
94.3472
20
-99.3367
11
94.3525
21
-99.3353
0
LINE
8
Black
10
94.3525
20
-99.3353
11
94.3572
21
-99.3325
0
LINE
8
Black
10
94.3572
20
-99.3325
11
94.3733
21
-99.3297
0
LINE
8
Black
10
94.3733
20
-99.3297
11
94.3891
21
-99.3255
0
LINE
8
Black
10
94.3891
20
-99.3255
11
94.3946
21
-99.326
0
LINE
8
Black
10
94.3946
20
-99.326
11
94.4
21
-99.325
0
LINE
8
Black
10
94.4
20
-99.325
11
100.998
21
-99.325
0
LINE
8
Black
10
100.998
20
-99.325
11
101.168
21
-99.1555
0
LINE
8
Black
10
101.168
20
-99.1555
11
101.149
21
-99.1031
0
LINE
8
Black
10
101.149
20
-99.1031
11
101.149
21
-98.9969
0
LINE
8
Black
10
101.149
20
-98.9969
11
101.185
21
-98.897
0
LINE
8
Black
10
101.185
20
-98.897
11
101.253
21
-98.8156
0
LINE
8
Black
10
101.253
20
-98.8156
11
101.345
21
-98.7625
0
LINE
8
Black
10
101.345
20
-98.7625
11
101.45
21
-98.744
0
LINE
8
Black
10
101.45
20
-98.744
11
101.555
21
-98.7625
0
LINE
8
Black
10
101.555
20
-98.7625
11
101.647
21
-98.8156
0
LINE
8
Black
10
101.647
20
-98.8156
11
101.715
21
-98.897
0
LINE
8
Black
10
101.715
20
-98.897
11
101.751
21
-98.9969
0
LINE
8
Black
10
101.751
20
-98.9969
11
101.751
21
-99.1031
0
LINE
8
Black
10
101.751
20
-99.1031
11
101.715
21
-99.203
0
LINE
8
Black
10
101.715
20
-99.203
11
101.647
21
-99.2844
0
LINE
8
Black
10
101.647
20
-99.2844
11
101.555
21
-99.3375
0
LINE
8
Black
10
101.555
20
-99.3375
11
101.45
21
-99.356
0
LINE
8
Black
10
101.45
20
-99.356
11
101.345
21
-99.3375
0
LINE
8
Black
10
101.345
20
-99.3375
11
101.341
21
-99.3353
0
LINE
8
Black
10
101.341
20
-99.3353
11
100.875
21
-99.8018
0
LINE
8
Black
10
100.875
20
-99.8018
11
100.875
21
-106.45
0
LINE
8
Black
10
100.875
20
-106.45
11
100.874
21
-106.455
0
LINE
8
Black
10
100.874
20
-106.455
11
100.875
21
-106.461
0
LINE
8
Black
10
100.875
20
-106.461
11
100.87
21
-106.477
0
LINE
8
Black
10
100.87
20
-106.477
11
100.867
21
-106.493
0
LINE
8
Black
10
100.867
20
-106.493
11
100.865
21
-106.498
0
LINE
8
Black
10
100.865
20
-106.498
11
100.863
21
-106.503
0
LINE
8
Black
10
100.863
20
-106.503
11
100.854
21
-106.516
0
LINE
8
Black
10
100.854
20
-106.516
11
100.846
21
-106.53
0
LINE
8
Black
10
100.846
20
-106.53
11
100.842
21
-106.534
0
LINE
8
Black
10
100.842
20
-106.534
11
100.838
21
-106.538
0
LINE
8
Black
10
100.838
20
-106.538
11
100.682
21
-106.695
0
LINE
8
Black
10
100.682
20
-106.695
11
100.701
21
-106.747
0
LINE
8
Black
10
100.701
20
-106.747
11
100.701
21
-106.853
0
LINE
8
Black
10
100.701
20
-106.853
11
100.665
21
-106.953
0
LINE
8
Black
10
100.665
20
-106.953
11
100.597
21
-107.034
0
LINE
8
Black
10
100.597
20
-107.034
11
100.505
21
-107.088
0
LINE
8
Black
10
100.505
20
-107.088
11
100.4
21
-107.106
0
LINE
8
Black
10
100.4
20
-107.106
11
100.295
21
-107.088
0
LINE
8
Black
10
100.295
20
-107.088
11
100.203
21
-107.034
0
LINE
8
Black
10
100.203
20
-107.034
11
100.135
21
-106.953
0
LINE
8
Black
10
100.135
20
-106.953
11
100.099
21
-106.853
0
LINE
8
Black
10
100.099
20
-106.853
11
100.099
21
-106.747
0
LINE
8
Black
10
100.099
20
-106.747
11
100.135
21
-106.647
0
LINE
8
Black
10
100.135
20
-106.647
11
100.203
21
-106.566
0
LINE
8
Black
10
100.203
20
-106.566
11
100.295
21
-106.512
0
LINE
8
Black
10
100.295
20
-106.512
11
100.4
21
-106.494
0
LINE
8
Black
10
100.4
20
-106.494
11
100.505
21
-106.512
0
LINE
8
Black
10
100.505
20
-106.512
11
100.509
21
-106.515
0
LINE
8
Black
10
100.509
20
-106.515
11
100.625
21
-106.398
0
LINE
8
Black
10
100.625
20
-106.398
11
100.625
21
-99.75
0
LINE
8
Black
10
100.625
20
-99.75
11
100.626
21
-99.7446
0
LINE
8
Black
10
100.626
20
-99.7446
11
100.625
21
-99.7391
0
LINE
8
Black
10
100.625
20
-99.7391
11
100.63
21
-99.7233
0
LINE
8
Black
10
100.63
20
-99.7233
11
100.633
21
-99.7072
0
LINE
8
Black
10
100.633
20
-99.7072
11
100.635
21
-99.7025
0
LINE
8
Black
10
100.635
20
-99.7025
11
100.637
21
-99.6972
0
LINE
8
Black
10
100.637
20
-99.6972
11
100.646
21
-99.6838
0
LINE
8
Black
10
100.646
20
-99.6838
11
100.654
21
-99.6697
0
LINE
8
Black
10
100.654
20
-99.6697
11
100.658
21
-99.6661
0
LINE
8
Black
10
100.658
20
-99.6661
11
100.662
21
-99.6616
0
LINE
8
Black
10
100.662
20
-99.6616
11
100.748
21
-99.575
0
LINE
8
Black
10
100.748
20
-99.575
11
94.4518
21
-99.575
0
LINE
8
Black
10
94.4518
20
-99.575
11
93.6323
21
-100.395
0
LINE
8
Black
10
93.6323
20
-100.395
11
93.6513
21
-100.447
0
LINE
8
Black
10
93.6513
20
-100.447
11
93.6513
21
-100.553
0
LINE
8
Black
10
93.6513
20
-100.553
11
93.615
21
-100.653
0
LINE
8
Black
10
93.615
20
-100.653
11
93.5467
21
-100.734
0
LINE
8
Black
10
93.5467
20
-100.734
11
93.4546
21
-100.788
0
LINE
8
Black
10
93.4546
20
-100.788
11
93.35
21
-100.806
0
LINE
8
Black
10
93.35
20
-100.806
11
93.2454
21
-100.788
0
LINE
8
Black
10
93.2454
20
-100.788
11
93.1533
21
-100.734
0
LINE
8
Black
10
93.1533
20
-100.734
11
93.085
21
-100.653
0
LINE
8
Black
10
93.085
20
-100.653
11
93.0487
21
-100.553
0
LINE
8
Black
10
93.0487
20
-100.553
11
93.0487
21
-100.447
0
LINE
8
Black
10
93.0487
20
-100.447
11
93.0677
21
-100.395
0
LINE
8
Black
10
93.0677
20
-100.395
11
92.1616
21
-99.4884
0
LINE
8
Black
10
92.1616
20
-99.4884
11
92.1585
21
-99.4839
0
LINE
8
Black
10
92.1585
20
-99.4839
11
92.1542
21
-99.4803
0
LINE
8
Black
10
92.1542
20
-99.4803
11
92.1461
21
-99.4662
0
LINE
8
Black
10
92.1461
20
-99.4662
11
92.1367
21
-99.4528
0
LINE
8
Black
10
92.1367
20
-99.4528
11
92.1353
21
-99.4475
0
LINE
8
Black
10
92.1353
20
-99.4475
11
92.1325
21
-99.4428
0
LINE
8
Black
10
92.1325
20
-99.4428
11
92.1297
21
-99.4267
0
LINE
8
Black
10
92.1297
20
-99.4267
11
92.1255
21
-99.4109
0
LINE
8
Black
10
92.1255
20
-99.4109
11
92.126
21
-99.4054
0
LINE
8
Black
10
92.126
20
-99.4054
11
92.125
21
-99.4
0
LINE
8
Black
10
92.125
20
-99.4
11
92.125
21
-98.25
0
LINE
8
Black
10
92.125
20
-98.25
11
92.126
21
-98.2446
0
LINE
8
Black
10
92.126
20
-98.2446
11
92.1255
21
-98.2391
0
LINE
8
Black
10
92.1255
20
-98.2391
11
92.1297
21
-98.2233
0
LINE
8
Black
10
92.1297
20
-98.2233
11
92.1325
21
-98.2072
0
LINE
8
Black
10
92.1325
20
-98.2072
11
92.1353
21
-98.2025
0
LINE
8
Black
10
92.1353
20
-98.2025
11
92.1367
21
-98.1972
0
LINE
8
Black
10
92.1367
20
-98.1972
11
92.1461
21
-98.1838
0
LINE
8
Black
10
92.1461
20
-98.1838
11
92.1542
21
-98.1697
0
LINE
8
Black
10
92.1542
20
-98.1697
11
92.1585
21
-98.1661
0
LINE
8
Black
10
92.1585
20
-98.1661
11
92.1616
21
-98.1616
0
LINE
8
Black
10
92.1616
20
-98.1616
11
92.5616
21
-97.7616
0
LINE
8
Black
10
92.5616
20
-97.7616
11
92.5661
21
-97.7585
0
LINE
8
Black
10
92.5661
20
-97.7585
11
92.5697
21
-97.7542
0
LINE
8
Black
10
92.5697
20
-97.7542
11
92.5838
21
-97.7461
0
LINE
8
Black
10
92.5838
20
-97.7461
11
92.5972
21
-97.7367
0
LINE
8
Black
10
92.5972
20
-97.7367
11
92.6025
21
-97.7353
0
LINE
8
Black
10
92.6025
20
-97.7353
11
92.6072
21
-97.7325
0
LINE
8
Black
10
92.6072
20
-97.7325
11
92.6233
21
-97.7297
0
LINE
8
Black
10
92.6233
20
-97.7297
11
92.6391
21
-97.7255
0
LINE
8
Black
10
92.6391
20
-97.7255
11
92.6446
21
-97.726
0
LINE
8
Black
10
92.6446
20
-97.726
11
92.65
21
-97.725
0
LINE
8
Black
10
92.65
20
-97.725
11
93.1
21
-97.725
0
LINE
8
Black
10
93.1
20
-97.725
11
93.1054
21
-97.726
0
LINE
8
Black
10
93.1054
20
-97.726
11
93.1109
21
-97.7255
0
LINE
8
Black
10
93.1109
20
-97.7255
11
93.1267
21
-97.7297
0
LINE
8
Black
10
93.1267
20
-97.7297
11
93.1428
21
-97.7325
0
LINE
8
Black
10
93.1428
20
-97.7325
11
93.1475
21
-97.7353
0
LINE
8
Black
10
93.1475
20
-97.7353
11
93.1528
21
-97.7367
0
LINE
8
Black
10
93.1528
20
-97.7367
11
93.1662
21
-97.7461
0
LINE
8
Black
10
93.1662
20
-97.7461
11
93.1803
21
-97.7542
0
LINE
8
Black
10
93.1803
20
-97.7542
11
93.1839
21
-97.7585
0
LINE
8
Black
10
93.1839
20
-97.7585
11
93.1884
21
-97.7616
0
LINE
8
Black
10
93.1884
20
-97.7616
11
93.8518
21
-98.425
0
LINE
8
Black
10
93.8518
20
-98.425
11
96.7482
21
-98.425
0
LINE
8
Black
10
96.7482
20
-98.425
11
97.325
21
-97.8482
0
LINE
8
Black
10
97.325
20
-97.8482
11
97.325
21
-95.7
0
LINE
8
Black
10
97.325
20
-95.7
11
97.326
21
-95.6946
0
LINE
8
Black
10
97.326
20
-95.6946
11
97.3255
21
-95.6891
0
LINE
8
Black
10
97.3255
20
-95.6891
11
97.3297
21
-95.6733
0
LINE
8
Black
10
97.3297
20
-95.6733
11
97.3325
21
-95.6572
0
LINE
8
Black
10
97.3325
20
-95.6572
11
97.3353
21
-95.6525
0
LINE
8
Black
10
97.3353
20
-95.6525
11
97.3367
21
-95.6472
0
LINE
8
Black
10
97.3367
20
-95.6472
11
97.3461
21
-95.6338
0
LINE
8
Black
10
97.3461
20
-95.6338
11
97.3542
21
-95.6197
0
LINE
8
Black
10
97.3542
20
-95.6197
11
97.3585
21
-95.6161
0
LINE
8
Black
10
97.3585
20
-95.6161
11
97.3616
21
-95.6116
0
LINE
8
Black
10
97.3616
20
-95.6116
11
99.425
21
-93.5482
0
LINE
8
Black
10
99.425
20
-93.5482
11
99.425
21
-93.5335
0
LINE
8
Black
10
99.425
20
-93.5335
11
99.4183
21
-93.5297
0
LINE
8
Black
10
99.4183
20
-93.5297
11
99.35
21
-93.4483
0
LINE
8
Black
10
99.35
20
-93.4483
11
99.3137
21
-93.3484
0
LINE
8
Black
10
99.3137
20
-93.3484
11
99.3137
21
-93.2422
0
LINE
8
Black
10
99.3137
20
-93.2422
11
99.35
21
-93.1423
0
LINE
8
Black
10
99.35
20
-93.1423
11
99.4183
21
-93.0609
0
LINE
8
Black
10
99.4183
20
-93.0609
11
99.5104
21
-93.0078
0
LINE
8
Black
10
99.5104
20
-93.0078
11
99.615
21
-92.9893
0
LINE
8
Black
10
99.615
20
-92.9893
11
99.7197
21
-93.0078
0
LINE
8
Black
10
100.205
20
-103.012
11
100.297
21
-103.066
0
LINE
8
Black
10
100.297
20
-103.066
11
100.365
21
-103.147
0
LINE
8
Black
10
100.365
20
-103.147
11
100.401
21
-103.247
0
LINE
8
Black
10
100.401
20
-103.247
11
100.401
21
-103.353
0
LINE
8
Black
10
100.401
20
-103.353
11
100.365
21
-103.453
0
LINE
8
Black
10
100.365
20
-103.453
11
100.297
21
-103.534
0
LINE
8
Black
10
100.297
20
-103.534
11
100.22
21
-103.579
0
LINE
8
Black
10
100.22
20
-103.579
11
100.217
21
-103.593
0
LINE
8
Black
10
100.217
20
-103.593
11
100.215
21
-103.598
0
LINE
8
Black
10
100.215
20
-103.598
11
100.213
21
-103.603
0
LINE
8
Black
10
100.213
20
-103.603
11
100.204
21
-103.616
0
LINE
8
Black
10
100.204
20
-103.616
11
100.196
21
-103.63
0
LINE
8
Black
10
100.196
20
-103.63
11
100.192
21
-103.634
0
LINE
8
Black
10
100.192
20
-103.634
11
100.188
21
-103.638
0
LINE
8
Black
10
100.188
20
-103.638
11
99.7884
21
-104.038
0
LINE
8
Black
10
99.7884
20
-104.038
11
99.7839
21
-104.042
0
LINE
8
Black
10
99.7839
20
-104.042
11
99.7803
21
-104.046
0
LINE
8
Black
10
99.7803
20
-104.046
11
99.7662
21
-104.054
0
LINE
8
Black
10
99.7662
20
-104.054
11
99.7528
21
-104.063
0
LINE
8
Black
10
99.7528
20
-104.063
11
99.7475
21
-104.065
0
LINE
8
Black
10
99.7475
20
-104.065
11
99.7428
21
-104.067
0
LINE
8
Black
10
99.7428
20
-104.067
11
99.7267
21
-104.07
0
LINE
8
Black
10
99.7267
20
-104.07
11
99.7109
21
-104.075
0
LINE
8
Black
10
99.7109
20
-104.075
11
99.7054
21
-104.074
0
LINE
8
Black
10
99.7054
20
-104.074
11
99.7
21
-104.075
0
LINE
8
Black
10
99.7
20
-104.075
11
96.7518
21
-104.075
0
LINE
8
Black
10
96.7518
20
-104.075
11
95.7823
21
-105.045
0
LINE
8
Black
10
95.7823
20
-105.045
11
95.8013
21
-105.097
0
LINE
8
Black
10
95.8013
20
-105.097
11
95.8013
21
-105.203
0
LINE
8
Black
10
95.8013
20
-105.203
11
95.765
21
-105.303
0
LINE
8
Black
10
95.765
20
-105.303
11
95.6967
21
-105.384
0
LINE
8
Black
10
95.6967
20
-105.384
11
95.6046
21
-105.438
0
LINE
8
Black
10
95.6046
20
-105.438
11
95.5
21
-105.456
0
LINE
8
Black
10
95.5
20
-105.456
11
95.3954
21
-105.438
0
LINE
8
Black
10
95.3954
20
-105.438
11
95.3033
21
-105.384
0
LINE
8
Black
10
95.3033
20
-105.384
11
95.235
21
-105.303
0
LINE
8
Black
10
95.235
20
-105.303
11
95.1987
21
-105.203
0
LINE
8
Black
10
95.1987
20
-105.203
11
95.1987
21
-105.097
0
LINE
8
Black
10
95.1987
20
-105.097
11
95.235
21
-104.997
0
LINE
8
Black
10
95.235
20
-104.997
11
95.3033
21
-104.916
0
LINE
8
Black
10
95.3033
20
-104.916
11
95.3954
21
-104.862
0
LINE
8
Black
10
95.3954
20
-104.862
11
95.5
21
-104.844
0
LINE
8
Black
10
95.5
20
-104.844
11
95.6046
21
-104.862
0
LINE
8
Black
10
95.6046
20
-104.862
11
95.6085
21
-104.865
0
LINE
8
Black
10
95.6085
20
-104.865
11
96.6116
21
-103.862
0
LINE
8
Black
10
96.6116
20
-103.862
11
96.6161
21
-103.858
0
LINE
8
Black
10
96.6161
20
-103.858
11
96.6197
21
-103.854
0
LINE
8
Black
10
96.6197
20
-103.854
11
96.6338
21
-103.846
0
LINE
8
Black
10
96.6338
20
-103.846
11
96.6472
21
-103.837
0
LINE
8
Black
10
96.6472
20
-103.837
11
96.6525
21
-103.835
0
LINE
8
Black
10
96.6525
20
-103.835
11
96.6572
21
-103.833
0
LINE
8
Black
10
96.6572
20
-103.833
11
96.6733
21
-103.83
0
LINE
8
Black
10
96.6733
20
-103.83
11
96.6891
21
-103.825
0
LINE
8
Black
10
96.6891
20
-103.825
11
96.6946
21
-103.826
0
LINE
8
Black
10
96.6946
20
-103.826
11
96.7
21
-103.825
0
LINE
8
Black
10
96.7
20
-103.825
11
99.6482
21
-103.825
0
LINE
8
Black
10
99.6482
20
-103.825
11
99.9258
21
-103.547
0
LINE
8
Black
10
99.9258
20
-103.547
11
99.9033
21
-103.534
0
LINE
8
Black
10
99.9033
20
-103.534
11
99.835
21
-103.453
0
LINE
8
Black
10
99.835
20
-103.453
11
99.7987
21
-103.353
0
LINE
8
Black
10
99.7987
20
-103.353
11
99.7987
21
-103.247
0
LINE
8
Black
10
99.7987
20
-103.247
11
99.835
21
-103.147
0
LINE
8
Black
10
99.835
20
-103.147
11
99.9033
21
-103.066
0
LINE
8
Black
10
99.9033
20
-103.066
11
99.9954
21
-103.012
0
LINE
8
Black
10
99.9954
20
-103.012
11
100.1
21
-102.994
0
LINE
8
Black
10
100.1
20
-102.994
11
100.205
21
-103.012
0
LINE
8
Black
10
99.4046
20
-103.012
11
99.4967
21
-103.066
0
LINE
8
Black
10
99.4967
20
-103.066
11
99.565
21
-103.147
0
LINE
8
Black
10
99.565
20
-103.147
11
99.6013
21
-103.247
0
LINE
8
Black
10
99.6013
20
-103.247
11
99.6013
21
-103.353
0
LINE
8
Black
10
99.6013
20
-103.353
11
99.565
21
-103.453
0
LINE
8
Black
10
99.565
20
-103.453
11
99.4967
21
-103.534
0
LINE
8
Black
10
99.4967
20
-103.534
11
99.4046
21
-103.588
0
LINE
8
Black
10
99.4046
20
-103.588
11
99.3
21
-103.606
0
LINE
8
Black
10
99.3
20
-103.606
11
99.1954
21
-103.588
0
LINE
8
Black
10
99.1954
20
-103.588
11
99.1033
21
-103.534
0
LINE
8
Black
10
99.1033
20
-103.534
11
99.035
21
-103.453
0
LINE
8
Black
10
99.035
20
-103.453
11
99.0248
21
-103.425
0
LINE
8
Black
10
99.0248
20
-103.425
11
96.1018
21
-103.425
0
LINE
8
Black
10
96.1018
20
-103.425
11
95.1323
21
-104.395
0
LINE
8
Black
10
95.1323
20
-104.395
11
95.1513
21
-104.447
0
LINE
8
Black
10
95.1513
20
-104.447
11
95.1513
21
-104.553
0
LINE
8
Black
10
95.1513
20
-104.553
11
95.115
21
-104.653
0
LINE
8
Black
10
95.115
20
-104.653
11
95.0467
21
-104.734
0
LINE
8
Black
10
95.0467
20
-104.734
11
94.9546
21
-104.788
0
LINE
8
Black
10
94.9546
20
-104.788
11
94.85
21
-104.806
0
LINE
8
Black
10
94.85
20
-104.806
11
94.7454
21
-104.788
0
LINE
8
Black
10
94.7454
20
-104.788
11
94.6533
21
-104.734
0
LINE
8
Black
10
94.6533
20
-104.734
11
94.585
21
-104.653
0
LINE
8
Black
10
94.585
20
-104.653
11
94.5487
21
-104.553
0
LINE
8
Black
10
94.5487
20
-104.553
11
94.5487
21
-104.447
0
LINE
8
Black
10
94.5487
20
-104.447
11
94.585
21
-104.347
0
LINE
8
Black
10
94.585
20
-104.347
11
94.6533
21
-104.266
0
LINE
8
Black
10
94.6533
20
-104.266
11
94.7454
21
-104.212
0
LINE
8
Black
10
94.7454
20
-104.212
11
94.85
21
-104.194
0
LINE
8
Black
10
94.85
20
-104.194
11
94.9546
21
-104.212
0
LINE
8
Black
10
94.9546
20
-104.212
11
94.9585
21
-104.215
0
LINE
8
Black
10
94.9585
20
-104.215
11
95.9616
21
-103.212
0
LINE
8
Black
10
95.9616
20
-103.212
11
95.9661
21
-103.208
0
LINE
8
Black
10
95.9661
20
-103.208
11
95.9697
21
-103.204
0
LINE
8
Black
10
95.9697
20
-103.204
11
95.9838
21
-103.196
0
LINE
8
Black
10
95.9838
20
-103.196
11
95.9972
21
-103.187
0
LINE
8
Black
10
95.9972
20
-103.187
11
96.0025
21
-103.185
0
LINE
8
Black
10
96.0025
20
-103.185
11
96.0072
21
-103.183
0
LINE
8
Black
10
96.0072
20
-103.183
11
96.0233
21
-103.18
0
LINE
8
Black
10
96.0233
20
-103.18
11
96.0391
21
-103.175
0
LINE
8
Black
10
96.0391
20
-103.175
11
96.0446
21
-103.176
0
LINE
8
Black
10
96.0446
20
-103.176
11
96.05
21
-103.175
0
LINE
8
Black
10
96.05
20
-103.175
11
99.0248
21
-103.175
0
LINE
8
Black
10
99.0248
20
-103.175
11
99.035
21
-103.147
0
LINE
8
Black
10
99.035
20
-103.147
11
99.1033
21
-103.066
0
LINE
8
Black
10
99.1033
20
-103.066
11
99.1954
21
-103.012
0
LINE
8
Black
10
99.1954
20
-103.012
11
99.3
21
-102.994
0
LINE
8
Black
10
99.3
20
-102.994
11
99.4046
21
-103.012
0
LINE
8
Black
10
102.605
20
-97.2125
11
102.697
21
-97.2656
0
LINE
8
Black
10
102.697
20
-97.2656
11
102.765
21
-97.347
0
LINE
8
Black
10
102.765
20
-97.347
11
102.801
21
-97.4469
0
LINE
8
Black
10
102.801
20
-97.4469
11
102.801
21
-97.5531
0
LINE
8
Black
10
102.801
20
-97.5531
11
102.765
21
-97.653
0
LINE
8
Black
10
102.765
20
-97.653
11
102.697
21
-97.7344
0
LINE
8
Black
10
102.697
20
-97.7344
11
102.605
21
-97.7875
0
LINE
8
Black
10
102.605
20
-97.7875
11
102.5
21
-97.806
0
LINE
8
Black
10
102.5
20
-97.806
11
102.395
21
-97.7875
0
LINE
8
Black
10
102.395
20
-97.7875
11
102.303
21
-97.7344
0
LINE
8
Black
10
102.303
20
-97.7344
11
102.235
21
-97.653
0
LINE
8
Black
10
102.235
20
-97.653
11
102.225
21
-97.625
0
LINE
8
Black
10
102.225
20
-97.625
11
99.4018
21
-97.625
0
LINE
8
Black
10
99.4018
20
-97.625
11
98.7323
21
-98.2945
0
LINE
8
Black
10
98.7323
20
-98.2945
11
98.7513
21
-98.3469
0
LINE
8
Black
10
98.7513
20
-98.3469
11
98.7513
21
-98.4531
0
LINE
8
Black
10
98.7513
20
-98.4531
11
98.715
21
-98.553
0
LINE
8
Black
10
98.715
20
-98.553
11
98.6467
21
-98.6344
0
LINE
8
Black
10
98.6467
20
-98.6344
11
98.5546
21
-98.6875
0
LINE
8
Black
10
98.5546
20
-98.6875
11
98.45
21
-98.706
0
LINE
8
Black
10
98.45
20
-98.706
11
98.3454
21
-98.6875
0
LINE
8
Black
10
98.3454
20
-98.6875
11
98.2533
21
-98.6344
0
LINE
8
Black
10
98.2533
20
-98.6344
11
98.185
21
-98.553
0
LINE
8
Black
10
98.185
20
-98.553
11
98.1487
21
-98.4531
0
LINE
8
Black
10
98.1487
20
-98.4531
11
98.1487
21
-98.3469
0
LINE
8
Black
10
98.1487
20
-98.3469
11
98.185
21
-98.247
0
LINE
8
Black
10
98.185
20
-98.247
11
98.2533
21
-98.1656
0
LINE
8
Black
10
98.2533
20
-98.1656
11
98.3454
21
-98.1125
0
LINE
8
Black
10
98.3454
20
-98.1125
11
98.45
21
-98.094
0
LINE
8
Black
10
98.45
20
-98.094
11
98.5546
21
-98.1125
0
LINE
8
Black
10
98.5546
20
-98.1125
11
98.5585
21
-98.1147
0
LINE
8
Black
10
98.5585
20
-98.1147
11
99.2616
21
-97.4116
0
LINE
8
Black
10
99.2616
20
-97.4116
11
99.2661
21
-97.4085
0
LINE
8
Black
10
99.2661
20
-97.4085
11
99.2697
21
-97.4042
0
LINE
8
Black
10
99.2697
20
-97.4042
11
99.2838
21
-97.3961
0
LINE
8
Black
10
99.2838
20
-97.3961
11
99.2972
21
-97.3867
0
LINE
8
Black
10
99.2972
20
-97.3867
11
99.3025
21
-97.3853
0
LINE
8
Black
10
99.3025
20
-97.3853
11
99.3072
21
-97.3825
0
LINE
8
Black
10
99.3072
20
-97.3825
11
99.3233
21
-97.3797
0
LINE
8
Black
10
99.3233
20
-97.3797
11
99.3391
21
-97.3755
0
LINE
8
Black
10
99.3391
20
-97.3755
11
99.3446
21
-97.376
0
LINE
8
Black
10
99.3446
20
-97.376
11
99.35
21
-97.375
0
LINE
8
Black
10
99.35
20
-97.375
11
102.225
21
-97.375
0
LINE
8
Black
10
102.225
20
-97.375
11
102.235
21
-97.347
0
LINE
8
Black
10
102.235
20
-97.347
11
102.303
21
-97.2656
0
LINE
8
Black
10
102.303
20
-97.2656
11
102.395
21
-97.2125
0
LINE
8
Black
10
102.395
20
-97.2125
11
102.5
21
-97.194
0
LINE
8
Black
10
102.5
20
-97.194
11
102.605
21
-97.2125
0
LINE
8
Black
10
99.0646
20
-97.244
11
99.0591
21
-97.2445
0
LINE
8
Black
10
99.0591
20
-97.2445
11
99.0433
21
-97.2403
0
LINE
8
Black
10
99.0433
20
-97.2403
11
99.0272
21
-97.2375
0
LINE
8
Black
10
99.0272
20
-97.2375
11
99.0225
21
-97.2347
0
LINE
8
Black
10
99.0225
20
-97.2347
11
99.0172
21
-97.2333
0
LINE
8
Black
10
99.0172
20
-97.2333
11
99.0038
21
-97.2239
0
LINE
8
Black
10
99.0038
20
-97.2239
11
98.9896
21
-97.2157
0
LINE
8
Black
10
98.9896
20
-97.2157
11
98.9861
21
-97.2115
0
LINE
8
Black
10
98.9861
20
-97.2115
11
98.9816
21
-97.2084
0
LINE
8
Black
10
98.9816
20
-97.2084
11
98.7616
21
-96.9884
0
LINE
8
Black
10
98.7616
20
-96.9884
11
98.7616
21
-96.9884
0
LINE
8
Black
10
98.7616
20
-96.9884
11
98.7585
21
-96.9853
0
LINE
8
Black
10
98.7585
20
-96.9853
11
98.7546
21
-96.9875
0
LINE
8
Black
10
98.7546
20
-96.9875
11
98.65
21
-97.006
0
LINE
8
Black
10
98.65
20
-97.006
11
98.5454
21
-96.9875
0
LINE
8
Black
10
98.5454
20
-96.9875
11
98.4533
21
-96.9344
0
LINE
8
Black
10
98.4533
20
-96.9344
11
98.385
21
-96.853
0
LINE
8
Black
10
98.385
20
-96.853
11
98.3487
21
-96.7531
0
LINE
8
Black
10
98.3487
20
-96.7531
11
98.3487
21
-96.6469
0
LINE
8
Black
10
98.3487
20
-96.6469
11
98.385
21
-96.547
0
LINE
8
Black
10
98.385
20
-96.547
11
98.4533
21
-96.4656
0
LINE
8
Black
10
98.4533
20
-96.4656
11
98.5454
21
-96.4125
0
LINE
8
Black
10
98.5454
20
-96.4125
11
98.65
21
-96.394
0
LINE
8
Black
10
98.65
20
-96.394
11
98.7546
21
-96.4125
0
LINE
8
Black
10
98.7546
20
-96.4125
11
98.8467
21
-96.4656
0
LINE
8
Black
10
98.8467
20
-96.4656
11
98.915
21
-96.547
0
LINE
8
Black
10
98.915
20
-96.547
11
98.9513
21
-96.6469
0
LINE
8
Black
10
98.9513
20
-96.6469
11
98.9513
21
-96.7531
0
LINE
8
Black
10
98.9513
20
-96.7531
11
98.9323
21
-96.8055
0
LINE
8
Black
10
98.9323
20
-96.8055
11
98.9384
21
-96.8116
0
LINE
8
Black
10
98.9384
20
-96.8116
11
98.9384
21
-96.8116
0
LINE
8
Black
10
98.9384
20
-96.8116
11
99.1218
21
-96.995
0
LINE
8
Black
10
99.1218
20
-96.995
11
99.1926
21
-96.995
0
LINE
8
Black
10
99.1926
20
-96.995
11
101.978
21
-96.995
0
LINE
8
Black
10
101.978
20
-96.995
11
103.812
21
-95.1616
0
LINE
8
Black
10
103.812
20
-95.1616
11
103.816
21
-95.1585
0
LINE
8
Black
10
103.816
20
-95.1585
11
103.82
21
-95.1542
0
LINE
8
Black
10
103.82
20
-95.1542
11
103.834
21
-95.1461
0
LINE
8
Black
10
103.834
20
-95.1461
11
103.847
21
-95.1367
0
LINE
8
Black
10
103.847
20
-95.1367
11
103.852
21
-95.1353
0
LINE
8
Black
10
103.852
20
-95.1353
11
103.857
21
-95.1325
0
LINE
8
Black
10
103.857
20
-95.1325
11
103.873
21
-95.1297
0
LINE
8
Black
10
103.873
20
-95.1297
11
103.889
21
-95.1255
0
LINE
8
Black
10
103.889
20
-95.1255
11
103.895
21
-95.126
0
LINE
8
Black
10
103.895
20
-95.126
11
103.9
21
-95.125
0
LINE
8
Black
10
103.9
20
-95.125
11
104.475
21
-95.125
0
LINE
8
Black
10
104.475
20
-95.125
11
104.485
21
-95.097
0
LINE
8
Black
10
104.485
20
-95.097
11
104.553
21
-95.0156
0
LINE
8
Black
10
104.553
20
-95.0156
11
104.645
21
-94.9625
0
LINE
8
Black
10
104.645
20
-94.9625
11
104.75
21
-94.944
0
LINE
8
Black
10
104.75
20
-94.944
11
104.855
21
-94.9625
0
LINE
8
Black
10
104.855
20
-94.9625
11
104.947
21
-95.0156
0
LINE
8
Black
10
104.947
20
-95.0156
11
105.015
21
-95.097
0
LINE
8
Black
10
105.015
20
-95.097
11
105.051
21
-95.1969
0
LINE
8
Black
10
105.051
20
-95.1969
11
105.051
21
-95.3031
0
LINE
8
Black
10
105.051
20
-95.3031
11
105.015
21
-95.403
0
LINE
8
Black
10
105.015
20
-95.403
11
104.947
21
-95.4844
0
LINE
8
Black
10
104.947
20
-95.4844
11
104.855
21
-95.5375
0
LINE
8
Black
10
104.855
20
-95.5375
11
104.75
21
-95.556
0
LINE
8
Black
10
104.75
20
-95.556
11
104.645
21
-95.5375
0
LINE
8
Black
10
104.645
20
-95.5375
11
104.553
21
-95.4844
0
LINE
8
Black
10
104.553
20
-95.4844
11
104.485
21
-95.403
0
LINE
8
Black
10
104.485
20
-95.403
11
104.475
21
-95.375
0
LINE
8
Black
10
104.475
20
-95.375
11
103.952
21
-95.375
0
LINE
8
Black
10
103.952
20
-95.375
11
102.118
21
-97.2084
0
LINE
8
Black
10
102.118
20
-97.2084
11
102.114
21
-97.2115
0
LINE
8
Black
10
102.114
20
-97.2115
11
102.11
21
-97.2157
0
LINE
8
Black
10
102.11
20
-97.2157
11
102.096
21
-97.2239
0
LINE
8
Black
10
102.096
20
-97.2239
11
102.083
21
-97.2333
0
LINE
8
Black
10
102.083
20
-97.2333
11
102.078
21
-97.2347
0
LINE
8
Black
10
102.078
20
-97.2347
11
102.073
21
-97.2375
0
LINE
8
Black
10
102.073
20
-97.2375
11
102.057
21
-97.2403
0
LINE
8
Black
10
102.057
20
-97.2403
11
102.041
21
-97.2445
0
LINE
8
Black
10
102.041
20
-97.2445
11
102.035
21
-97.244
0
LINE
8
Black
10
102.035
20
-97.244
11
102.03
21
-97.245
0
LINE
8
Black
10
102.03
20
-97.245
11
99.1926
21
-97.245
0
LINE
8
Black
10
99.1926
20
-97.245
11
99.07
21
-97.245
0
LINE
8
Black
10
99.07
20
-97.245
11
99.0646
21
-97.244
0
LINE
8
Black
10
106.505
20
-107.112
11
106.597
21
-107.166
0
LINE
8
Black
10
106.597
20
-107.166
11
106.665
21
-107.247
0
LINE
8
Black
10
106.665
20
-107.247
11
106.701
21
-107.347
0
LINE
8
Black
10
106.701
20
-107.347
11
106.701
21
-107.453
0
LINE
8
Black
10
106.701
20
-107.453
11
106.665
21
-107.553
0
LINE
8
Black
10
106.665
20
-107.553
11
106.597
21
-107.634
0
LINE
8
Black
10
106.597
20
-107.634
11
106.505
21
-107.688
0
LINE
8
Black
10
106.505
20
-107.688
11
106.4
21
-107.706
0
LINE
8
Black
10
106.4
20
-107.706
11
106.295
21
-107.688
0
LINE
8
Black
10
106.295
20
-107.688
11
106.203
21
-107.634
0
LINE
8
Black
10
106.203
20
-107.634
11
106.135
21
-107.553
0
LINE
8
Black
10
106.135
20
-107.553
11
106.099
21
-107.453
0
LINE
8
Black
10
106.099
20
-107.453
11
106.099
21
-107.347
0
LINE
8
Black
10
106.099
20
-107.347
11
106.135
21
-107.247
0
LINE
8
Black
10
106.135
20
-107.247
11
106.203
21
-107.166
0
LINE
8
Black
10
106.203
20
-107.166
11
106.295
21
-107.112
0
LINE
8
Black
10
106.295
20
-107.112
11
106.4
21
-107.094
0
LINE
8
Black
10
106.4
20
-107.094
11
106.505
21
-107.112
0
LINE
8
Black
10
92.7046
20
-106.112
11
92.7967
21
-106.166
0
LINE
8
Black
10
92.7967
20
-106.166
11
92.865
21
-106.247
0
LINE
8
Black
10
92.865
20
-106.247
11
92.9013
21
-106.347
0
LINE
8
Black
10
92.9013
20
-106.347
11
92.9013
21
-106.453
0
LINE
8
Black
10
92.9013
20
-106.453
11
92.865
21
-106.553
0
LINE
8
Black
10
92.865
20
-106.553
11
92.8233
21
-106.603
0
LINE
8
Black
10
92.8233
20
-106.603
11
92.8207
21
-106.632
0
LINE
8
Black
10
92.8207
20
-106.632
11
92.8024
21
-106.672
0
LINE
8
Black
10
92.8024
20
-106.672
11
92.7717
21
-106.702
0
LINE
8
Black
10
92.7717
20
-106.702
11
92.7324
21
-106.721
0
LINE
8
Black
10
92.7324
20
-106.721
11
92.6891
21
-106.725
0
LINE
8
Black
10
92.6891
20
-106.725
11
92.6472
21
-106.713
0
LINE
8
Black
10
92.6472
20
-106.713
11
92.6293
21
-106.701
0
LINE
8
Black
10
92.6293
20
-106.701
11
92.6
21
-106.706
0
LINE
8
Black
10
92.6
20
-106.706
11
92.4954
21
-106.688
0
LINE
8
Black
10
92.4954
20
-106.688
11
92.4033
21
-106.634
0
LINE
8
Black
10
92.4033
20
-106.634
11
92.335
21
-106.553
0
LINE
8
Black
10
92.335
20
-106.553
11
92.2987
21
-106.453
0
LINE
8
Black
10
92.2987
20
-106.453
11
92.2987
21
-106.347
0
LINE
8
Black
10
92.2987
20
-106.347
11
92.335
21
-106.247
0
LINE
8
Black
10
92.335
20
-106.247
11
92.4033
21
-106.166
0
LINE
8
Black
10
92.4033
20
-106.166
11
92.4954
21
-106.112
0
LINE
8
Black
10
92.4954
20
-106.112
11
92.6
21
-106.094
0
LINE
8
Black
10
92.6
20
-106.094
11
92.7046
21
-106.112
0
LINE
8
Black
10
118.486
20
-103.939
11
118.826
21
-104.135
0
LINE
8
Black
10
118.826
20
-104.135
11
119.078
21
-104.435
0
LINE
8
Black
10
119.078
20
-104.435
11
119.212
21
-104.804
0
LINE
8
Black
10
119.212
20
-104.804
11
119.212
21
-105.196
0
LINE
8
Black
10
119.212
20
-105.196
11
119.078
21
-105.565
0
LINE
8
Black
10
119.078
20
-105.565
11
118.826
21
-105.865
0
LINE
8
Black
10
118.826
20
-105.865
11
118.486
21
-106.061
0
LINE
8
Black
10
118.486
20
-106.061
11
118.1
21
-106.129
0
LINE
8
Black
10
118.1
20
-106.129
11
117.714
21
-106.061
0
LINE
8
Black
10
117.714
20
-106.061
11
117.374
21
-105.865
0
LINE
8
Black
10
117.374
20
-105.865
11
117.122
21
-105.565
0
LINE
8
Black
10
117.122
20
-105.565
11
116.988
21
-105.196
0
LINE
8
Black
10
116.988
20
-105.196
11
116.988
21
-104.804
0
LINE
8
Black
10
116.988
20
-104.804
11
117.122
21
-104.435
0
LINE
8
Black
10
117.122
20
-104.435
11
117.374
21
-104.135
0
LINE
8
Black
10
117.374
20
-104.135
11
117.714
21
-103.939
0
LINE
8
Black
10
117.714
20
-103.939
11
118.1
21
-103.871
0
LINE
8
Black
10
118.1
20
-103.871
11
118.486
21
-103.939
0
LINE
8
Black
10
86.2046
20
-98.8125
11
86.2967
21
-98.8656
0
LINE
8
Black
10
86.2967
20
-98.8656
11
86.365
21
-98.947
0
LINE
8
Black
10
86.365
20
-98.947
11
86.4013
21
-99.0469
0
LINE
8
Black
10
86.4013
20
-99.0469
11
86.4013
21
-99.1531
0
LINE
8
Black
10
86.4013
20
-99.1531
11
86.365
21
-99.253
0
LINE
8
Black
10
86.365
20
-99.253
11
86.2967
21
-99.3344
0
LINE
8
Black
10
86.2967
20
-99.3344
11
86.225
21
-99.3758
0
LINE
8
Black
10
86.225
20
-99.3758
11
86.225
21
-99.8785
0
LINE
8
Black
10
86.225
20
-99.8785
11
86.224
21
-99.8839
0
LINE
8
Black
10
86.224
20
-99.8839
11
86.2245
21
-99.8894
0
LINE
8
Black
10
86.2245
20
-99.8894
11
86.2203
21
-99.9052
0
LINE
8
Black
10
86.2203
20
-99.9052
11
86.2175
21
-99.9213
0
LINE
8
Black
10
86.2175
20
-99.9213
11
86.2147
21
-99.926
0
LINE
8
Black
10
86.2147
20
-99.926
11
86.2133
21
-99.9313
0
LINE
8
Black
10
86.2133
20
-99.9313
11
86.2039
21
-99.9447
0
LINE
8
Black
10
86.2039
20
-99.9447
11
86.1958
21
-99.9589
0
LINE
8
Black
10
86.1958
20
-99.9589
11
86.1915
21
-99.9624
0
LINE
8
Black
10
86.1915
20
-99.9624
11
86.1884
21
-99.9669
0
LINE
8
Black
10
86.1884
20
-99.9669
11
82.7919
21
-103.363
0
LINE
8
Black
10
82.7919
20
-103.363
11
82.7874
21
-103.367
0
LINE
8
Black
10
82.7874
20
-103.367
11
82.7839
21
-103.371
0
LINE
8
Black
10
82.7839
20
-103.371
11
82.7697
21
-103.379
0
LINE
8
Black
10
82.7697
20
-103.379
11
82.7563
21
-103.388
0
LINE
8
Black
10
82.7563
20
-103.388
11
82.751
21
-103.39
0
LINE
8
Black
10
82.751
20
-103.39
11
82.7463
21
-103.392
0
LINE
8
Black
10
82.7463
20
-103.392
11
82.7302
21
-103.395
0
LINE
8
Black
10
82.7302
20
-103.395
11
82.7144
21
-103.4
0
LINE
8
Black
10
82.7144
20
-103.4
11
82.7089
21
-103.399
0
LINE
8
Black
10
82.7089
20
-103.399
11
82.7035
21
-103.4
0
LINE
8
Black
10
82.7035
20
-103.4
11
81.7252
21
-103.4
0
LINE
8
Black
10
81.7252
20
-103.4
11
81.715
21
-103.428
0
LINE
8
Black
10
81.715
20
-103.428
11
81.6467
21
-103.509
0
LINE
8
Black
10
81.6467
20
-103.509
11
81.5546
21
-103.563
0
LINE
8
Black
10
81.5546
20
-103.563
11
81.45
21
-103.581
0
LINE
8
Black
10
81.45
20
-103.581
11
81.3454
21
-103.563
0
LINE
8
Black
10
81.3454
20
-103.563
11
81.2533
21
-103.509
0
LINE
8
Black
10
81.2533
20
-103.509
11
81.185
21
-103.428
0
LINE
8
Black
10
81.185
20
-103.428
11
81.1487
21
-103.328
0
LINE
8
Black
10
81.1487
20
-103.328
11
81.1487
21
-103.222
0
LINE
8
Black
10
81.1487
20
-103.222
11
81.185
21
-103.122
0
LINE
8
Black
10
81.185
20
-103.122
11
81.2533
21
-103.041
0
LINE
8
Black
10
81.2533
20
-103.041
11
81.3454
21
-102.987
0
LINE
8
Black
10
81.3454
20
-102.987
11
81.45
21
-102.969
0
LINE
8
Black
10
81.45
20
-102.969
11
81.5546
21
-102.987
0
LINE
8
Black
10
81.5546
20
-102.987
11
81.6467
21
-103.041
0
LINE
8
Black
10
81.6467
20
-103.041
11
81.715
21
-103.122
0
LINE
8
Black
10
81.715
20
-103.122
11
81.7252
21
-103.15
0
LINE
8
Black
10
81.7252
20
-103.15
11
82.6517
21
-103.15
0
LINE
8
Black
10
82.6517
20
-103.15
11
85.975
21
-99.8267
0
LINE
8
Black
10
85.975
20
-99.8267
11
85.975
21
-99.3758
0
LINE
8
Black
10
85.975
20
-99.3758
11
85.9033
21
-99.3344
0
LINE
8
Black
10
85.9033
20
-99.3344
11
85.835
21
-99.253
0
LINE
8
Black
10
85.835
20
-99.253
11
85.7987
21
-99.1531
0
LINE
8
Black
10
85.7987
20
-99.1531
11
85.7987
21
-99.0469
0
LINE
8
Black
10
85.7987
20
-99.0469
11
85.835
21
-98.947
0
LINE
8
Black
10
85.835
20
-98.947
11
85.9033
21
-98.8656
0
LINE
8
Black
10
85.9033
20
-98.8656
11
85.9954
21
-98.8125
0
LINE
8
Black
10
85.9954
20
-98.8125
11
86.1
21
-98.794
0
LINE
8
Black
10
86.1
20
-98.794
11
86.2046
21
-98.8125
0
LINE
8
Black
10
80.975
20
-102
11
80.1018
21
-102
0
LINE
8
Black
10
80.1018
20
-102
11
79.7384
21
-102.363
0
LINE
8
Black
10
79.7384
20
-102.363
11
79.7339
21
-102.367
0
LINE
8
Black
10
79.7339
20
-102.367
11
79.7303
21
-102.371
0
LINE
8
Black
10
79.7303
20
-102.371
11
79.7162
21
-102.379
0
LINE
8
Black
10
79.7162
20
-102.379
11
79.7028
21
-102.388
0
LINE
8
Black
10
79.7028
20
-102.388
11
79.6975
21
-102.39
0
LINE
8
Black
10
79.6975
20
-102.39
11
79.6928
21
-102.392
0
LINE
8
Black
10
79.6928
20
-102.392
11
79.6769
21
-102.395
0
LINE
8
Black
10
79.6769
20
-102.395
11
79.665
21
-102.428
0
LINE
8
Black
10
79.665
20
-102.428
11
79.5967
21
-102.509
0
LINE
8
Black
10
79.5967
20
-102.509
11
79.5046
21
-102.563
0
LINE
8
Black
10
79.5046
20
-102.563
11
79.4
21
-102.581
0
LINE
8
Black
10
79.4
20
-102.581
11
79.2954
21
-102.563
0
LINE
8
Black
10
79.2954
20
-102.563
11
79.2033
21
-102.509
0
LINE
8
Black
10
79.2033
20
-102.509
11
79.135
21
-102.428
0
LINE
8
Black
10
79.135
20
-102.428
11
79.0987
21
-102.328
0
LINE
8
Black
10
79.0987
20
-102.328
11
79.0987
21
-102.222
0
LINE
8
Black
10
79.0987
20
-102.222
11
79.135
21
-102.122
0
LINE
8
Black
10
79.135
20
-102.122
11
79.2033
21
-102.041
0
LINE
8
Black
10
79.2033
20
-102.041
11
79.2954
21
-101.987
0
LINE
8
Black
10
79.2954
20
-101.987
11
79.4
21
-101.969
0
LINE
8
Black
10
79.4
20
-101.969
11
79.5046
21
-101.987
0
LINE
8
Black
10
79.5046
20
-101.987
11
79.5967
21
-102.041
0
LINE
8
Black
10
79.5967
20
-102.041
11
79.6473
21
-102.101
0
LINE
8
Black
10
79.6473
20
-102.101
11
80.075
21
-101.673
0
LINE
8
Black
10
80.075
20
-101.673
11
80.075
21
-100.8
0
LINE
8
Black
10
80.075
20
-100.8
11
80.975
21
-100.8
0
LINE
8
Black
10
80.975
20
-100.8
11
80.975
21
-102
0
LINE
8
Black
10
85.5546
20
-99.4125
11
85.6467
21
-99.4656
0
LINE
8
Black
10
85.6467
20
-99.4656
11
85.715
21
-99.547
0
LINE
8
Black
10
85.715
20
-99.547
11
85.7513
21
-99.6469
0
LINE
8
Black
10
85.7513
20
-99.6469
11
85.7513
21
-99.7531
0
LINE
8
Black
10
85.7513
20
-99.7531
11
85.715
21
-99.853
0
LINE
8
Black
10
85.715
20
-99.853
11
85.6467
21
-99.9344
0
LINE
8
Black
10
85.6467
20
-99.9344
11
85.5546
21
-99.9875
0
LINE
8
Black
10
85.5546
20
-99.9875
11
85.45
21
-100.006
0
LINE
8
Black
10
85.45
20
-100.006
11
85.3454
21
-99.9875
0
LINE
8
Black
10
85.3454
20
-99.9875
11
85.2781
21
-99.9487
0
LINE
8
Black
10
85.2781
20
-99.9487
11
83.3073
21
-101.92
0
LINE
8
Black
10
83.3073
20
-101.92
11
83.3263
21
-101.972
0
LINE
8
Black
10
83.3263
20
-101.972
11
83.3263
21
-102.078
0
LINE
8
Black
10
83.3263
20
-102.078
11
83.29
21
-102.178
0
LINE
8
Black
10
83.29
20
-102.178
11
83.2217
21
-102.259
0
LINE
8
Black
10
83.2217
20
-102.259
11
83.1296
21
-102.313
0
LINE
8
Black
10
83.1296
20
-102.313
11
83.025
21
-102.331
0
LINE
8
Black
10
83.025
20
-102.331
11
82.9204
21
-102.313
0
LINE
8
Black
10
82.9204
20
-102.313
11
82.8283
21
-102.259
0
LINE
8
Black
10
82.8283
20
-102.259
11
82.76
21
-102.178
0
LINE
8
Black
10
82.76
20
-102.178
11
82.7237
21
-102.078
0
LINE
8
Black
10
82.7237
20
-102.078
11
82.7237
21
-101.972
0
LINE
8
Black
10
82.7237
20
-101.972
11
82.76
21
-101.872
0
LINE
8
Black
10
82.76
20
-101.872
11
82.8283
21
-101.791
0
LINE
8
Black
10
82.8283
20
-101.791
11
82.9204
21
-101.737
0
LINE
8
Black
10
82.9204
20
-101.737
11
83.025
21
-101.719
0
LINE
8
Black
10
83.025
20
-101.719
11
83.1296
21
-101.737
0
LINE
8
Black
10
83.1296
20
-101.737
11
83.1335
21
-101.74
0
LINE
8
Black
10
83.1335
20
-101.74
11
85.1487
21
-99.7245
0
LINE
8
Black
10
85.1487
20
-99.7245
11
85.1487
21
-99.6469
0
LINE
8
Black
10
85.1487
20
-99.6469
11
85.185
21
-99.547
0
LINE
8
Black
10
85.185
20
-99.547
11
85.2533
21
-99.4656
0
LINE
8
Black
10
85.2533
20
-99.4656
11
85.3454
21
-99.4125
0
LINE
8
Black
10
85.3454
20
-99.4125
11
85.45
21
-99.394
0
LINE
8
Black
10
85.45
20
-99.394
11
85.5546
21
-99.4125
0
LINE
8
Black
10
84.5046
20
-97.8875
11
84.5967
21
-97.9406
0
LINE
8
Black
10
84.5967
20
-97.9406
11
84.665
21
-98.022
0
LINE
8
Black
10
84.665
20
-98.022
11
84.7013
21
-98.1219
0
LINE
8
Black
10
84.7013
20
-98.1219
11
84.7013
21
-98.2281
0
LINE
8
Black
10
84.7013
20
-98.2281
11
84.665
21
-98.328
0
LINE
8
Black
10
84.665
20
-98.328
11
84.5967
21
-98.4094
0
LINE
8
Black
10
84.5967
20
-98.4094
11
84.5046
21
-98.4625
0
LINE
8
Black
10
84.5046
20
-98.4625
11
84.4
21
-98.481
0
LINE
8
Black
10
84.4
20
-98.481
11
84.2954
21
-98.4625
0
LINE
8
Black
10
84.2954
20
-98.4625
11
84.2691
21
-98.4473
0
LINE
8
Black
10
84.2691
20
-98.4473
11
82.075
21
-100.641
0
LINE
8
Black
10
82.075
20
-100.641
11
82.075
21
-100.8
0
LINE
8
Black
10
82.075
20
-100.8
11
82.425
21
-100.8
0
LINE
8
Black
10
82.425
20
-100.8
11
82.425
21
-102
0
LINE
8
Black
10
82.425
20
-102
11
81.525
21
-102
0
LINE
8
Black
10
81.525
20
-102
11
81.525
21
-100.8
0
LINE
8
Black
10
81.525
20
-100.8
11
81.875
21
-100.8
0
LINE
8
Black
10
81.875
20
-100.8
11
81.875
21
-100.6
0
LINE
8
Black
10
81.875
20
-100.6
11
81.8758
21
-100.596
0
LINE
8
Black
10
81.8758
20
-100.596
11
81.8754
21
-100.591
0
LINE
8
Black
10
81.8754
20
-100.591
11
81.8788
21
-100.579
0
LINE
8
Black
10
81.8788
20
-100.579
11
81.881
21
-100.566
0
LINE
8
Black
10
81.881
20
-100.566
11
81.8832
21
-100.562
0
LINE
8
Black
10
81.8832
20
-100.562
11
81.8844
21
-100.558
0
LINE
8
Black
10
81.8844
20
-100.558
11
81.8919
21
-100.547
0
LINE
8
Black
10
81.8919
20
-100.547
11
81.8984
21
-100.536
0
LINE
8
Black
10
81.8984
20
-100.536
11
81.9018
21
-100.533
0
LINE
8
Black
10
81.9018
20
-100.533
11
81.9043
21
-100.529
0
LINE
8
Black
10
81.9043
20
-100.529
11
84.1272
21
-98.3064
0
LINE
8
Black
10
84.1272
20
-98.3064
11
84.0987
21
-98.2281
0
LINE
8
Black
10
84.0987
20
-98.2281
11
84.0987
21
-98.1219
0
LINE
8
Black
10
84.0987
20
-98.1219
11
84.135
21
-98.022
0
LINE
8
Black
10
84.135
20
-98.022
11
84.2033
21
-97.9406
0
LINE
8
Black
10
84.2033
20
-97.9406
11
84.2954
21
-97.8875
0
LINE
8
Black
10
84.2954
20
-97.8875
11
84.4
21
-97.869
0
LINE
8
Black
10
84.4
20
-97.869
11
84.5046
21
-97.8875
0
LINE
8
Black
10
87.9015
20
-101.059
11
87.9468
21
-101.085
0
LINE
8
Black
10
87.9468
20
-101.085
11
87.9804
21
-101.125
0
LINE
8
Black
10
87.9804
20
-101.125
11
87.9983
21
-101.174
0
LINE
8
Black
10
87.9983
20
-101.174
11
87.9983
21
-101.226
0
LINE
8
Black
10
87.9983
20
-101.226
11
87.9804
21
-101.275
0
LINE
8
Black
10
87.9804
20
-101.275
11
87.9468
21
-101.315
0
LINE
8
Black
10
87.9468
20
-101.315
11
87.9015
21
-101.341
0
LINE
8
Black
10
87.9015
20
-101.341
11
87.85
21
-101.351
0
LINE
8
Black
10
87.85
20
-101.351
11
87.7985
21
-101.341
0
LINE
8
Black
10
87.7985
20
-101.341
11
87.7532
21
-101.315
0
LINE
8
Black
10
87.7532
20
-101.315
11
87.7196
21
-101.275
0
LINE
8
Black
10
87.7196
20
-101.275
11
87.7017
21
-101.226
0
LINE
8
Black
10
87.7017
20
-101.226
11
87.7017
21
-101.174
0
LINE
8
Black
10
87.7017
20
-101.174
11
87.7196
21
-101.125
0
LINE
8
Black
10
87.7196
20
-101.125
11
87.7532
21
-101.085
0
LINE
8
Black
10
87.7532
20
-101.085
11
87.7985
21
-101.059
0
LINE
8
Black
10
87.7985
20
-101.059
11
87.85
21
-101.049
0
LINE
8
Black
10
87.85
20
-101.049
11
87.9015
21
-101.059
0
LINE
8
Black
10
89.2015
20
-101.059
11
89.2468
21
-101.085
0
LINE
8
Black
10
89.2468
20
-101.085
11
89.2804
21
-101.125
0
LINE
8
Black
10
89.2804
20
-101.125
11
89.2983
21
-101.174
0
LINE
8
Black
10
89.2983
20
-101.174
11
89.2983
21
-101.226
0
LINE
8
Black
10
89.2983
20
-101.226
11
89.2804
21
-101.275
0
LINE
8
Black
10
89.2804
20
-101.275
11
89.2468
21
-101.315
0
LINE
8
Black
10
89.2468
20
-101.315
11
89.2015
21
-101.341
0
LINE
8
Black
10
89.2015
20
-101.341
11
89.15
21
-101.351
0
LINE
8
Black
10
89.15
20
-101.351
11
89.0985
21
-101.341
0
LINE
8
Black
10
89.0985
20
-101.341
11
89.0532
21
-101.315
0
LINE
8
Black
10
89.0532
20
-101.315
11
89.0196
21
-101.275
0
LINE
8
Black
10
89.0196
20
-101.275
11
89.0017
21
-101.226
0
LINE
8
Black
10
89.0017
20
-101.226
11
89.0017
21
-101.174
0
LINE
8
Black
10
89.0017
20
-101.174
11
89.0196
21
-101.125
0
LINE
8
Black
10
89.0196
20
-101.125
11
89.0532
21
-101.085
0
LINE
8
Black
10
89.0532
20
-101.085
11
89.0985
21
-101.059
0
LINE
8
Black
10
89.0985
20
-101.059
11
89.15
21
-101.049
0
LINE
8
Black
10
89.15
20
-101.049
11
89.2015
21
-101.059
0
LINE
8
Black
10
110.902
20
-101.059
11
110.947
21
-101.085
0
LINE
8
Black
10
110.947
20
-101.085
11
110.98
21
-101.125
0
LINE
8
Black
10
110.98
20
-101.125
11
110.998
21
-101.174
0
LINE
8
Black
10
110.998
20
-101.174
11
110.998
21
-101.226
0
LINE
8
Black
10
110.998
20
-101.226
11
110.98
21
-101.275
0
LINE
8
Black
10
110.98
20
-101.275
11
110.947
21
-101.315
0
LINE
8
Black
10
110.947
20
-101.315
11
110.902
21
-101.341
0
LINE
8
Black
10
110.902
20
-101.341
11
110.85
21
-101.351
0
LINE
8
Black
10
110.85
20
-101.351
11
110.799
21
-101.341
0
LINE
8
Black
10
110.799
20
-101.341
11
110.753
21
-101.315
0
LINE
8
Black
10
110.753
20
-101.315
11
110.72
21
-101.275
0
LINE
8
Black
10
110.72
20
-101.275
11
110.702
21
-101.226
0
LINE
8
Black
10
110.702
20
-101.226
11
110.702
21
-101.174
0
LINE
8
Black
10
110.702
20
-101.174
11
110.72
21
-101.125
0
LINE
8
Black
10
110.72
20
-101.125
11
110.753
21
-101.085
0
LINE
8
Black
10
110.753
20
-101.085
11
110.799
21
-101.059
0
LINE
8
Black
10
110.799
20
-101.059
11
110.85
21
-101.049
0
LINE
8
Black
10
110.85
20
-101.049
11
110.902
21
-101.059
0
LINE
8
Black
10
112.201
20
-101.059
11
112.247
21
-101.085
0
LINE
8
Black
10
112.247
20
-101.085
11
112.28
21
-101.125
0
LINE
8
Black
10
112.28
20
-101.125
11
112.298
21
-101.174
0
LINE
8
Black
10
112.298
20
-101.174
11
112.298
21
-101.226
0
LINE
8
Black
10
112.298
20
-101.226
11
112.28
21
-101.275
0
LINE
8
Black
10
112.28
20
-101.275
11
112.247
21
-101.315
0
LINE
8
Black
10
112.247
20
-101.315
11
112.201
21
-101.341
0
LINE
8
Black
10
112.201
20
-101.341
11
112.15
21
-101.351
0
LINE
8
Black
10
112.15
20
-101.351
11
112.099
21
-101.341
0
LINE
8
Black
10
112.099
20
-101.341
11
112.053
21
-101.315
0
LINE
8
Black
10
112.053
20
-101.315
11
112.02
21
-101.275
0
LINE
8
Black
10
112.02
20
-101.275
11
112.002
21
-101.226
0
LINE
8
Black
10
112.002
20
-101.226
11
112.002
21
-101.174
0
LINE
8
Black
10
112.002
20
-101.174
11
112.02
21
-101.125
0
LINE
8
Black
10
112.02
20
-101.125
11
112.053
21
-101.085
0
LINE
8
Black
10
112.053
20
-101.085
11
112.099
21
-101.059
0
LINE
8
Black
10
112.099
20
-101.059
11
112.15
21
-101.049
0
LINE
8
Black
10
112.15
20
-101.049
11
112.201
21
-101.059
0
LINE
8
Black
10
117.555
20
-99.9125
11
117.647
21
-99.9656
0
LINE
8
Black
10
117.647
20
-99.9656
11
117.715
21
-100.047
0
LINE
8
Black
10
117.715
20
-100.047
11
117.751
21
-100.147
0
LINE
8
Black
10
117.751
20
-100.147
11
117.751
21
-100.253
0
LINE
8
Black
10
117.751
20
-100.253
11
117.715
21
-100.353
0
LINE
8
Black
10
117.715
20
-100.353
11
117.647
21
-100.434
0
LINE
8
Black
10
117.647
20
-100.434
11
117.555
21
-100.488
0
LINE
8
Black
10
117.555
20
-100.488
11
117.45
21
-100.506
0
LINE
8
Black
10
117.45
20
-100.506
11
117.345
21
-100.488
0
LINE
8
Black
10
117.345
20
-100.488
11
117.319
21
-100.472
0
LINE
8
Black
10
117.319
20
-100.472
11
116.721
21
-101.071
0
LINE
8
Black
10
116.721
20
-101.071
11
116.717
21
-101.073
0
LINE
8
Black
10
116.717
20
-101.073
11
116.714
21
-101.077
0
LINE
8
Black
10
116.714
20
-101.077
11
116.703
21
-101.083
0
LINE
8
Black
10
116.703
20
-101.083
11
116.692
21
-101.091
0
LINE
8
Black
10
116.692
20
-101.091
11
116.688
21
-101.092
0
LINE
8
Black
10
116.688
20
-101.092
11
116.684
21
-101.094
0
LINE
8
Black
10
116.684
20
-101.094
11
116.671
21
-101.096
0
LINE
8
Black
10
116.671
20
-101.096
11
116.659
21
-101.1
0
LINE
8
Black
10
116.659
20
-101.1
11
116.654
21
-101.099
0
LINE
8
Black
10
116.654
20
-101.099
11
116.65
21
-101.1
0
LINE
8
Black
10
116.65
20
-101.1
11
114.784
21
-101.1
0
LINE
8
Black
10
114.784
20
-101.1
11
114.765
21
-101.153
0
LINE
8
Black
10
114.765
20
-101.153
11
114.697
21
-101.234
0
LINE
8
Black
10
114.697
20
-101.234
11
114.605
21
-101.288
0
LINE
8
Black
10
114.605
20
-101.288
11
114.5
21
-101.306
0
LINE
8
Black
10
114.5
20
-101.306
11
114.395
21
-101.288
0
LINE
8
Black
10
114.395
20
-101.288
11
114.303
21
-101.234
0
LINE
8
Black
10
114.303
20
-101.234
11
114.235
21
-101.153
0
LINE
8
Black
10
114.235
20
-101.153
11
114.199
21
-101.053
0
LINE
8
Black
10
114.199
20
-101.053
11
114.199
21
-100.947
0
LINE
8
Black
10
114.199
20
-100.947
11
114.235
21
-100.847
0
LINE
8
Black
10
114.235
20
-100.847
11
114.303
21
-100.766
0
LINE
8
Black
10
114.303
20
-100.766
11
114.395
21
-100.712
0
LINE
8
Black
10
114.395
20
-100.712
11
114.5
21
-100.694
0
LINE
8
Black
10
114.5
20
-100.694
11
114.605
21
-100.712
0
LINE
8
Black
10
114.605
20
-100.712
11
114.697
21
-100.766
0
LINE
8
Black
10
114.697
20
-100.766
11
114.765
21
-100.847
0
LINE
8
Black
10
114.765
20
-100.847
11
114.784
21
-100.9
0
LINE
8
Black
10
114.784
20
-100.9
11
116.609
21
-100.9
0
LINE
8
Black
10
116.609
20
-100.9
11
117.177
21
-100.331
0
LINE
8
Black
10
117.177
20
-100.331
11
117.149
21
-100.253
0
LINE
8
Black
10
117.149
20
-100.253
11
117.149
21
-100.147
0
LINE
8
Black
10
117.149
20
-100.147
11
117.185
21
-100.047
0
LINE
8
Black
10
117.185
20
-100.047
11
117.253
21
-99.9656
0
LINE
8
Black
10
117.253
20
-99.9656
11
117.345
21
-99.9125
0
LINE
8
Black
10
117.345
20
-99.9125
11
117.45
21
-99.894
0
LINE
8
Black
10
117.45
20
-99.894
11
117.555
21
-99.9125
0
LINE
8
Black
10
110.902
20
-100.459
11
110.947
21
-100.485
0
LINE
8
Black
10
110.947
20
-100.485
11
110.98
21
-100.525
0
LINE
8
Black
10
110.98
20
-100.525
11
110.998
21
-100.574
0
LINE
8
Black
10
110.998
20
-100.574
11
110.998
21
-100.626
0
LINE
8
Black
10
110.998
20
-100.626
11
110.98
21
-100.675
0
LINE
8
Black
10
110.98
20
-100.675
11
110.947
21
-100.715
0
LINE
8
Black
10
110.947
20
-100.715
11
110.902
21
-100.741
0
LINE
8
Black
10
110.902
20
-100.741
11
110.85
21
-100.751
0
LINE
8
Black
10
110.85
20
-100.751
11
110.799
21
-100.741
0
LINE
8
Black
10
110.799
20
-100.741
11
110.753
21
-100.715
0
LINE
8
Black
10
110.753
20
-100.715
11
110.72
21
-100.675
0
LINE
8
Black
10
110.72
20
-100.675
11
110.702
21
-100.626
0
LINE
8
Black
10
110.702
20
-100.626
11
110.702
21
-100.574
0
LINE
8
Black
10
110.702
20
-100.574
11
110.72
21
-100.525
0
LINE
8
Black
10
110.72
20
-100.525
11
110.753
21
-100.485
0
LINE
8
Black
10
110.753
20
-100.485
11
110.799
21
-100.459
0
LINE
8
Black
10
110.799
20
-100.459
11
110.85
21
-100.449
0
LINE
8
Black
10
110.85
20
-100.449
11
110.902
21
-100.459
0
LINE
8
Black
10
87.9015
20
-100.459
11
87.9468
21
-100.485
0
LINE
8
Black
10
87.9468
20
-100.485
11
87.9804
21
-100.525
0
LINE
8
Black
10
87.9804
20
-100.525
11
87.9983
21
-100.574
0
LINE
8
Black
10
87.9983
20
-100.574
11
87.9983
21
-100.626
0
LINE
8
Black
10
87.9983
20
-100.626
11
87.9804
21
-100.675
0
LINE
8
Black
10
87.9804
20
-100.675
11
87.9468
21
-100.715
0
LINE
8
Black
10
87.9468
20
-100.715
11
87.9015
21
-100.741
0
LINE
8
Black
10
87.9015
20
-100.741
11
87.85
21
-100.751
0
LINE
8
Black
10
87.85
20
-100.751
11
87.7985
21
-100.741
0
LINE
8
Black
10
87.7985
20
-100.741
11
87.7532
21
-100.715
0
LINE
8
Black
10
87.7532
20
-100.715
11
87.7196
21
-100.675
0
LINE
8
Black
10
87.7196
20
-100.675
11
87.7017
21
-100.626
0
LINE
8
Black
10
87.7017
20
-100.626
11
87.7017
21
-100.574
0
LINE
8
Black
10
87.7017
20
-100.574
11
87.7196
21
-100.525
0
LINE
8
Black
10
87.7196
20
-100.525
11
87.7532
21
-100.485
0
LINE
8
Black
10
87.7532
20
-100.485
11
87.7985
21
-100.459
0
LINE
8
Black
10
87.7985
20
-100.459
11
87.85
21
-100.449
0
LINE
8
Black
10
87.85
20
-100.449
11
87.9015
21
-100.459
0
LINE
8
Black
10
89.2015
20
-100.459
11
89.2468
21
-100.485
0
LINE
8
Black
10
89.2468
20
-100.485
11
89.2804
21
-100.525
0
LINE
8
Black
10
89.2804
20
-100.525
11
89.2983
21
-100.574
0
LINE
8
Black
10
89.2983
20
-100.574
11
89.2983
21
-100.626
0
LINE
8
Black
10
89.2983
20
-100.626
11
89.2804
21
-100.675
0
LINE
8
Black
10
89.2804
20
-100.675
11
89.2468
21
-100.715
0
LINE
8
Black
10
89.2468
20
-100.715
11
89.2015
21
-100.741
0
LINE
8
Black
10
89.2015
20
-100.741
11
89.15
21
-100.751
0
LINE
8
Black
10
89.15
20
-100.751
11
89.0985
21
-100.741
0
LINE
8
Black
10
89.0985
20
-100.741
11
89.0532
21
-100.715
0
LINE
8
Black
10
89.0532
20
-100.715
11
89.0196
21
-100.675
0
LINE
8
Black
10
89.0196
20
-100.675
11
89.0017
21
-100.626
0
LINE
8
Black
10
89.0017
20
-100.626
11
89.0017
21
-100.574
0
LINE
8
Black
10
89.0017
20
-100.574
11
89.0196
21
-100.525
0
LINE
8
Black
10
89.0196
20
-100.525
11
89.0532
21
-100.485
0
LINE
8
Black
10
89.0532
20
-100.485
11
89.0985
21
-100.459
0
LINE
8
Black
10
89.0985
20
-100.459
11
89.15
21
-100.449
0
LINE
8
Black
10
89.15
20
-100.449
11
89.2015
21
-100.459
0
LINE
8
Black
10
112.201
20
-100.459
11
112.247
21
-100.485
0
LINE
8
Black
10
112.247
20
-100.485
11
112.28
21
-100.525
0
LINE
8
Black
10
112.28
20
-100.525
11
112.298
21
-100.574
0
LINE
8
Black
10
112.298
20
-100.574
11
112.298
21
-100.626
0
LINE
8
Black
10
112.298
20
-100.626
11
112.28
21
-100.675
0
LINE
8
Black
10
112.28
20
-100.675
11
112.247
21
-100.715
0
LINE
8
Black
10
112.247
20
-100.715
11
112.201
21
-100.741
0
LINE
8
Black
10
112.201
20
-100.741
11
112.15
21
-100.751
0
LINE
8
Black
10
112.15
20
-100.751
11
112.099
21
-100.741
0
LINE
8
Black
10
112.099
20
-100.741
11
112.053
21
-100.715
0
LINE
8
Black
10
112.053
20
-100.715
11
112.02
21
-100.675
0
LINE
8
Black
10
112.02
20
-100.675
11
112.002
21
-100.626
0
LINE
8
Black
10
112.002
20
-100.626
11
112.002
21
-100.574
0
LINE
8
Black
10
112.002
20
-100.574
11
112.02
21
-100.525
0
LINE
8
Black
10
112.02
20
-100.525
11
112.053
21
-100.485
0
LINE
8
Black
10
112.053
20
-100.485
11
112.099
21
-100.459
0
LINE
8
Black
10
112.099
20
-100.459
11
112.15
21
-100.449
0
LINE
8
Black
10
112.15
20
-100.449
11
112.201
21
-100.459
0
LINE
8
Black
10
110.902
20
-99.8585
11
110.947
21
-99.8847
0
LINE
8
Black
10
110.947
20
-99.8847
11
110.98
21
-99.9247
0
LINE
8
Black
10
110.98
20
-99.9247
11
110.998
21
-99.9739
0
LINE
8
Black
10
110.998
20
-99.9739
11
110.998
21
-100.026
0
LINE
8
Black
10
110.998
20
-100.026
11
110.98
21
-100.075
0
LINE
8
Black
10
110.98
20
-100.075
11
110.947
21
-100.115
0
LINE
8
Black
10
110.947
20
-100.115
11
110.902
21
-100.141
0
LINE
8
Black
10
110.902
20
-100.141
11
110.85
21
-100.151
0
LINE
8
Black
10
110.85
20
-100.151
11
110.799
21
-100.141
0
LINE
8
Black
10
110.799
20
-100.141
11
110.753
21
-100.115
0
LINE
8
Black
10
110.753
20
-100.115
11
110.72
21
-100.075
0
LINE
8
Black
10
110.72
20
-100.075
11
110.702
21
-100.026
0
LINE
8
Black
10
110.702
20
-100.026
11
110.702
21
-99.9739
0
LINE
8
Black
10
110.702
20
-99.9739
11
110.72
21
-99.9247
0
LINE
8
Black
10
110.72
20
-99.9247
11
110.753
21
-99.8847
0
LINE
8
Black
10
110.753
20
-99.8847
11
110.799
21
-99.8585
0
LINE
8
Black
10
110.799
20
-99.8585
11
110.85
21
-99.8494
0
LINE
8
Black
10
110.85
20
-99.8494
11
110.902
21
-99.8585
0
LINE
8
Black
10
112.201
20
-99.8585
11
112.247
21
-99.8847
0
LINE
8
Black
10
112.247
20
-99.8847
11
112.28
21
-99.9247
0
LINE
8
Black
10
112.28
20
-99.9247
11
112.298
21
-99.9739
0
LINE
8
Black
10
112.298
20
-99.9739
11
112.298
21
-100.026
0
LINE
8
Black
10
112.298
20
-100.026
11
112.28
21
-100.075
0
LINE
8
Black
10
112.28
20
-100.075
11
112.247
21
-100.115
0
LINE
8
Black
10
112.247
20
-100.115
11
112.201
21
-100.141
0
LINE
8
Black
10
112.201
20
-100.141
11
112.15
21
-100.151
0
LINE
8
Black
10
112.15
20
-100.151
11
112.099
21
-100.141
0
LINE
8
Black
10
112.099
20
-100.141
11
112.053
21
-100.115
0
LINE
8
Black
10
112.053
20
-100.115
11
112.02
21
-100.075
0
LINE
8
Black
10
112.02
20
-100.075
11
112.002
21
-100.026
0
LINE
8
Black
10
112.002
20
-100.026
11
112.002
21
-99.9739
0
LINE
8
Black
10
112.002
20
-99.9739
11
112.02
21
-99.9247
0
LINE
8
Black
10
112.02
20
-99.9247
11
112.053
21
-99.8847
0
LINE
8
Black
10
112.053
20
-99.8847
11
112.099
21
-99.8585
0
LINE
8
Black
10
112.099
20
-99.8585
11
112.15
21
-99.8494
0
LINE
8
Black
10
112.15
20
-99.8494
11
112.201
21
-99.8585
0
LINE
8
Black
10
87.9015
20
-99.8585
11
87.9468
21
-99.8847
0
LINE
8
Black
10
87.9468
20
-99.8847
11
87.9804
21
-99.9247
0
LINE
8
Black
10
87.9804
20
-99.9247
11
87.9983
21
-99.9739
0
LINE
8
Black
10
87.9983
20
-99.9739
11
87.9983
21
-100.026
0
LINE
8
Black
10
87.9983
20
-100.026
11
87.9804
21
-100.075
0
LINE
8
Black
10
87.9804
20
-100.075
11
87.9468
21
-100.115
0
LINE
8
Black
10
87.9468
20
-100.115
11
87.9015
21
-100.141
0
LINE
8
Black
10
87.9015
20
-100.141
11
87.85
21
-100.151
0
LINE
8
Black
10
87.85
20
-100.151
11
87.7985
21
-100.141
0
LINE
8
Black
10
87.7985
20
-100.141
11
87.7532
21
-100.115
0
LINE
8
Black
10
87.7532
20
-100.115
11
87.7196
21
-100.075
0
LINE
8
Black
10
87.7196
20
-100.075
11
87.7017
21
-100.026
0
LINE
8
Black
10
87.7017
20
-100.026
11
87.7017
21
-99.9739
0
LINE
8
Black
10
87.7017
20
-99.9739
11
87.7196
21
-99.9247
0
LINE
8
Black
10
87.7196
20
-99.9247
11
87.7532
21
-99.8847
0
LINE
8
Black
10
87.7532
20
-99.8847
11
87.7985
21
-99.8585
0
LINE
8
Black
10
87.7985
20
-99.8585
11
87.85
21
-99.8494
0
LINE
8
Black
10
87.85
20
-99.8494
11
87.9015
21
-99.8585
0
LINE
8
Black
10
89.2015
20
-99.8585
11
89.2468
21
-99.8847
0
LINE
8
Black
10
89.2468
20
-99.8847
11
89.2804
21
-99.9247
0
LINE
8
Black
10
89.2804
20
-99.9247
11
89.2983
21
-99.9739
0
LINE
8
Black
10
89.2983
20
-99.9739
11
89.2983
21
-100.026
0
LINE
8
Black
10
89.2983
20
-100.026
11
89.2804
21
-100.075
0
LINE
8
Black
10
89.2804
20
-100.075
11
89.2468
21
-100.115
0
LINE
8
Black
10
89.2468
20
-100.115
11
89.2015
21
-100.141
0
LINE
8
Black
10
89.2015
20
-100.141
11
89.15
21
-100.151
0
LINE
8
Black
10
89.15
20
-100.151
11
89.0985
21
-100.141
0
LINE
8
Black
10
89.0985
20
-100.141
11
89.0532
21
-100.115
0
LINE
8
Black
10
89.0532
20
-100.115
11
89.0196
21
-100.075
0
LINE
8
Black
10
89.0196
20
-100.075
11
89.0017
21
-100.026
0
LINE
8
Black
10
89.0017
20
-100.026
11
89.0017
21
-99.9739
0
LINE
8
Black
10
89.0017
20
-99.9739
11
89.0196
21
-99.9247
0
LINE
8
Black
10
89.0196
20
-99.9247
11
89.0532
21
-99.8847
0
LINE
8
Black
10
89.0532
20
-99.8847
11
89.0985
21
-99.8585
0
LINE
8
Black
10
89.0985
20
-99.8585
11
89.15
21
-99.8494
0
LINE
8
Black
10
89.15
20
-99.8494
11
89.2015
21
-99.8585
0
LINE
8
Black
10
89.2015
20
-99.2585
11
89.2468
21
-99.2847
0
LINE
8
Black
10
89.2468
20
-99.2847
11
89.2804
21
-99.3247
0
LINE
8
Black
10
89.2804
20
-99.3247
11
89.2983
21
-99.3739
0
LINE
8
Black
10
89.2983
20
-99.3739
11
89.2983
21
-99.4261
0
LINE
8
Black
10
89.2983
20
-99.4261
11
89.2804
21
-99.4753
0
LINE
8
Black
10
89.2804
20
-99.4753
11
89.2468
21
-99.5153
0
LINE
8
Black
10
89.2468
20
-99.5153
11
89.2015
21
-99.5415
0
LINE
8
Black
10
89.2015
20
-99.5415
11
89.15
21
-99.5506
0
LINE
8
Black
10
89.15
20
-99.5506
11
89.0985
21
-99.5415
0
LINE
8
Black
10
89.0985
20
-99.5415
11
89.0532
21
-99.5153
0
LINE
8
Black
10
89.0532
20
-99.5153
11
89.0196
21
-99.4753
0
LINE
8
Black
10
89.0196
20
-99.4753
11
89.0017
21
-99.4261
0
LINE
8
Black
10
89.0017
20
-99.4261
11
89.0017
21
-99.3739
0
LINE
8
Black
10
89.0017
20
-99.3739
11
89.0196
21
-99.3247
0
LINE
8
Black
10
89.0196
20
-99.3247
11
89.0532
21
-99.2847
0
LINE
8
Black
10
89.0532
20
-99.2847
11
89.0985
21
-99.2585
0
LINE
8
Black
10
89.0985
20
-99.2585
11
89.15
21
-99.2494
0
LINE
8
Black
10
89.15
20
-99.2494
11
89.2015
21
-99.2585
0
LINE
8
Black
10
110.902
20
-99.2585
11
110.947
21
-99.2847
0
LINE
8
Black
10
110.947
20
-99.2847
11
110.98
21
-99.3247
0
LINE
8
Black
10
110.98
20
-99.3247
11
110.998
21
-99.3739
0
LINE
8
Black
10
110.998
20
-99.3739
11
110.998
21
-99.4261
0
LINE
8
Black
10
110.998
20
-99.4261
11
110.98
21
-99.4753
0
LINE
8
Black
10
110.98
20
-99.4753
11
110.947
21
-99.5153
0
LINE
8
Black
10
110.947
20
-99.5153
11
110.902
21
-99.5415
0
LINE
8
Black
10
110.902
20
-99.5415
11
110.85
21
-99.5506
0
LINE
8
Black
10
110.85
20
-99.5506
11
110.799
21
-99.5415
0
LINE
8
Black
10
110.799
20
-99.5415
11
110.753
21
-99.5153
0
LINE
8
Black
10
110.753
20
-99.5153
11
110.72
21
-99.4753
0
LINE
8
Black
10
110.72
20
-99.4753
11
110.702
21
-99.4261
0
LINE
8
Black
10
110.702
20
-99.4261
11
110.702
21
-99.3739
0
LINE
8
Black
10
110.702
20
-99.3739
11
110.72
21
-99.3247
0
LINE
8
Black
10
110.72
20
-99.3247
11
110.753
21
-99.2847
0
LINE
8
Black
10
110.753
20
-99.2847
11
110.799
21
-99.2585
0
LINE
8
Black
10
110.799
20
-99.2585
11
110.85
21
-99.2494
0
LINE
8
Black
10
110.85
20
-99.2494
11
110.902
21
-99.2585
0
LINE
8
Black
10
112.201
20
-99.2585
11
112.247
21
-99.2847
0
LINE
8
Black
10
112.247
20
-99.2847
11
112.28
21
-99.3247
0
LINE
8
Black
10
112.28
20
-99.3247
11
112.298
21
-99.3739
0
LINE
8
Black
10
112.298
20
-99.3739
11
112.298
21
-99.4261
0
LINE
8
Black
10
112.298
20
-99.4261
11
112.28
21
-99.4753
0
LINE
8
Black
10
112.28
20
-99.4753
11
112.247
21
-99.5153
0
LINE
8
Black
10
112.247
20
-99.5153
11
112.201
21
-99.5415
0
LINE
8
Black
10
112.201
20
-99.5415
11
112.15
21
-99.5506
0
LINE
8
Black
10
112.15
20
-99.5506
11
112.099
21
-99.5415
0
LINE
8
Black
10
112.099
20
-99.5415
11
112.053
21
-99.5153
0
LINE
8
Black
10
112.053
20
-99.5153
11
112.02
21
-99.4753
0
LINE
8
Black
10
112.02
20
-99.4753
11
112.002
21
-99.4261
0
LINE
8
Black
10
112.002
20
-99.4261
11
112.002
21
-99.3739
0
LINE
8
Black
10
112.002
20
-99.3739
11
112.02
21
-99.3247
0
LINE
8
Black
10
112.02
20
-99.3247
11
112.053
21
-99.2847
0
LINE
8
Black
10
112.053
20
-99.2847
11
112.099
21
-99.2585
0
LINE
8
Black
10
112.099
20
-99.2585
11
112.15
21
-99.2494
0
LINE
8
Black
10
112.15
20
-99.2494
11
112.201
21
-99.2585
0
LINE
8
Black
10
87.9015
20
-99.2585
11
87.9468
21
-99.2847
0
LINE
8
Black
10
87.9468
20
-99.2847
11
87.9804
21
-99.3247
0
LINE
8
Black
10
87.9804
20
-99.3247
11
87.9983
21
-99.3739
0
LINE
8
Black
10
87.9983
20
-99.3739
11
87.9983
21
-99.4261
0
LINE
8
Black
10
87.9983
20
-99.4261
11
87.9804
21
-99.4753
0
LINE
8
Black
10
87.9804
20
-99.4753
11
87.9468
21
-99.5153
0
LINE
8
Black
10
87.9468
20
-99.5153
11
87.9015
21
-99.5415
0
LINE
8
Black
10
87.9015
20
-99.5415
11
87.85
21
-99.5506
0
LINE
8
Black
10
87.85
20
-99.5506
11
87.7985
21
-99.5415
0
LINE
8
Black
10
87.7985
20
-99.5415
11
87.7532
21
-99.5153
0
LINE
8
Black
10
87.7532
20
-99.5153
11
87.7196
21
-99.4753
0
LINE
8
Black
10
87.7196
20
-99.4753
11
87.7017
21
-99.4261
0
LINE
8
Black
10
87.7017
20
-99.4261
11
87.7017
21
-99.3739
0
LINE
8
Black
10
87.7017
20
-99.3739
11
87.7196
21
-99.3247
0
LINE
8
Black
10
87.7196
20
-99.3247
11
87.7532
21
-99.2847
0
LINE
8
Black
10
87.7532
20
-99.2847
11
87.7985
21
-99.2585
0
LINE
8
Black
10
87.7985
20
-99.2585
11
87.85
21
-99.2494
0
LINE
8
Black
10
87.85
20
-99.2494
11
87.9015
21
-99.2585
0
LINE
8
Black
10
83.9046
20
-97.3375
11
83.9967
21
-97.3906
0
LINE
8
Black
10
83.9967
20
-97.3906
11
84.065
21
-97.472
0
LINE
8
Black
10
84.065
20
-97.472
11
84.1013
21
-97.5719
0
LINE
8
Black
10
84.1013
20
-97.5719
11
84.1013
21
-97.6781
0
LINE
8
Black
10
84.1013
20
-97.6781
11
84.065
21
-97.778
0
LINE
8
Black
10
84.065
20
-97.778
11
83.9967
21
-97.8594
0
LINE
8
Black
10
83.9967
20
-97.8594
11
83.9046
21
-97.9125
0
LINE
8
Black
10
83.9046
20
-97.9125
11
83.8
21
-97.931
0
LINE
8
Black
10
83.8
20
-97.931
11
83.6954
21
-97.9125
0
LINE
8
Black
10
83.6954
20
-97.9125
11
83.6691
21
-97.8973
0
LINE
8
Black
10
83.6691
20
-97.8973
11
82.8957
21
-98.6707
0
LINE
8
Black
10
82.8957
20
-98.6707
11
82.8921
21
-98.6732
0
LINE
8
Black
10
82.8921
20
-98.6732
11
82.8893
21
-98.6766
0
LINE
8
Black
10
82.8893
20
-98.6766
11
82.878
21
-98.6831
0
LINE
8
Black
10
82.878
20
-98.6831
11
82.8673
21
-98.6906
0
LINE
8
Black
10
82.8673
20
-98.6906
11
82.863
21
-98.6918
0
LINE
8
Black
10
82.863
20
-98.6918
11
82.8592
21
-98.694
0
LINE
8
Black
10
82.8592
20
-98.694
11
82.8463
21
-98.6962
0
LINE
8
Black
10
82.8463
20
-98.6962
11
82.8337
21
-98.6996
0
LINE
8
Black
10
82.8337
20
-98.6996
11
82.8293
21
-98.6992
0
LINE
8
Black
10
82.8293
20
-98.6992
11
82.825
21
-98.7
0
LINE
8
Black
10
82.825
20
-98.7
11
82.425
21
-98.7
0
LINE
8
Black
10
82.425
20
-98.7
11
82.425
21
-99.2
0
LINE
8
Black
10
82.425
20
-99.2
11
81.525
21
-99.2
0
LINE
8
Black
10
81.525
20
-99.2
11
81.525
21
-98
0
LINE
8
Black
10
81.525
20
-98
11
82.425
21
-98
0
LINE
8
Black
10
82.425
20
-98
11
82.425
21
-98.5
0
LINE
8
Black
10
82.425
20
-98.5
11
82.7836
21
-98.5
0
LINE
8
Black
10
82.7836
20
-98.5
11
83.5272
21
-97.7564
0
LINE
8
Black
10
83.5272
20
-97.7564
11
83.4987
21
-97.6781
0
LINE
8
Black
10
83.4987
20
-97.6781
11
83.4987
21
-97.5719
0
LINE
8
Black
10
83.4987
20
-97.5719
11
83.535
21
-97.472
0
LINE
8
Black
10
83.535
20
-97.472
11
83.6033
21
-97.3906
0
LINE
8
Black
10
83.6033
20
-97.3906
11
83.6954
21
-97.3375
0
LINE
8
Black
10
83.6954
20
-97.3375
11
83.8
21
-97.319
0
LINE
8
Black
10
83.8
20
-97.319
11
83.9046
21
-97.3375
0
LINE
8
Black
10
82.9796
20
-97.3375
11
83.0717
21
-97.3906
0
LINE
8
Black
10
83.0717
20
-97.3906
11
83.14
21
-97.472
0
LINE
8
Black
10
83.14
20
-97.472
11
83.1763
21
-97.5719
0
LINE
8
Black
10
83.1763
20
-97.5719
11
83.1763
21
-97.6781
0
LINE
8
Black
10
83.1763
20
-97.6781
11
83.14
21
-97.778
0
LINE
8
Black
10
83.14
20
-97.778
11
83.0717
21
-97.8594
0
LINE
8
Black
10
83.0717
20
-97.8594
11
82.9796
21
-97.9125
0
LINE
8
Black
10
82.9796
20
-97.9125
11
82.875
21
-97.931
0
LINE
8
Black
10
82.875
20
-97.931
11
82.7704
21
-97.9125
0
LINE
8
Black
10
82.7704
20
-97.9125
11
82.6783
21
-97.8594
0
LINE
8
Black
10
82.6783
20
-97.8594
11
82.61
21
-97.778
0
LINE
8
Black
10
82.61
20
-97.778
11
82.5907
21
-97.725
0
LINE
8
Black
10
82.5907
20
-97.725
11
80.7414
21
-97.725
0
LINE
8
Black
10
80.7414
20
-97.725
11
80.625
21
-97.8414
0
LINE
8
Black
10
80.625
20
-97.8414
11
80.625
21
-98
0
LINE
8
Black
10
80.625
20
-98
11
80.975
21
-98
0
LINE
8
Black
10
80.975
20
-98
11
80.975
21
-99.2
0
LINE
8
Black
10
80.975
20
-99.2
11
80.075
21
-99.2
0
LINE
8
Black
10
80.075
20
-99.2
11
80.075
21
-98
0
LINE
8
Black
10
80.075
20
-98
11
80.425
21
-98
0
LINE
8
Black
10
80.425
20
-98
11
80.425
21
-97.8
0
LINE
8
Black
10
80.425
20
-97.8
11
80.4258
21
-97.7957
0
LINE
8
Black
10
80.4258
20
-97.7957
11
80.4254
21
-97.7913
0
LINE
8
Black
10
80.4254
20
-97.7913
11
80.4288
21
-97.7787
0
LINE
8
Black
10
80.4288
20
-97.7787
11
80.431
21
-97.7658
0
LINE
8
Black
10
80.431
20
-97.7658
11
80.4332
21
-97.762
0
LINE
8
Black
10
80.4332
20
-97.762
11
80.4344
21
-97.7577
0
LINE
8
Black
10
80.4344
20
-97.7577
11
80.4419
21
-97.747
0
LINE
8
Black
10
80.4419
20
-97.747
11
80.4484
21
-97.7357
0
LINE
8
Black
10
80.4484
20
-97.7357
11
80.4518
21
-97.7329
0
LINE
8
Black
10
80.4518
20
-97.7329
11
80.4543
21
-97.7293
0
LINE
8
Black
10
80.4543
20
-97.7293
11
80.6293
21
-97.5543
0
LINE
8
Black
10
80.6293
20
-97.5543
11
80.6329
21
-97.5518
0
LINE
8
Black
10
80.6329
20
-97.5518
11
80.6357
21
-97.5484
0
LINE
8
Black
10
80.6357
20
-97.5484
11
80.647
21
-97.5419
0
LINE
8
Black
10
80.647
20
-97.5419
11
80.6577
21
-97.5344
0
LINE
8
Black
10
80.6577
20
-97.5344
11
80.662
21
-97.5332
0
LINE
8
Black
10
80.662
20
-97.5332
11
80.6658
21
-97.531
0
LINE
8
Black
10
80.6658
20
-97.531
11
80.6787
21
-97.5288
0
LINE
8
Black
10
80.6787
20
-97.5288
11
80.6913
21
-97.5254
0
LINE
8
Black
10
80.6913
20
-97.5254
11
80.6957
21
-97.5258
0
LINE
8
Black
10
80.6957
20
-97.5258
11
80.7
21
-97.525
0
LINE
8
Black
10
80.7
20
-97.525
11
82.5907
21
-97.525
0
LINE
8
Black
10
82.5907
20
-97.525
11
82.61
21
-97.472
0
LINE
8
Black
10
82.61
20
-97.472
11
82.6783
21
-97.3906
0
LINE
8
Black
10
82.6783
20
-97.3906
11
82.7704
21
-97.3375
0
LINE
8
Black
10
82.7704
20
-97.3375
11
82.875
21
-97.319
0
LINE
8
Black
10
82.875
20
-97.319
11
82.9796
21
-97.3375
0
LINE
8
Black
10
87.9015
20
-98.6585
11
87.9468
21
-98.6847
0
LINE
8
Black
10
87.9468
20
-98.6847
11
87.9804
21
-98.7247
0
LINE
8
Black
10
87.9804
20
-98.7247
11
87.9983
21
-98.7739
0
LINE
8
Black
10
87.9983
20
-98.7739
11
87.9983
21
-98.8261
0
LINE
8
Black
10
87.9983
20
-98.8261
11
87.9804
21
-98.8753
0
LINE
8
Black
10
87.9804
20
-98.8753
11
87.9468
21
-98.9153
0
LINE
8
Black
10
87.9468
20
-98.9153
11
87.9015
21
-98.9415
0
LINE
8
Black
10
87.9015
20
-98.9415
11
87.85
21
-98.9506
0
LINE
8
Black
10
87.85
20
-98.9506
11
87.7985
21
-98.9415
0
LINE
8
Black
10
87.7985
20
-98.9415
11
87.7532
21
-98.9153
0
LINE
8
Black
10
87.7532
20
-98.9153
11
87.7196
21
-98.8753
0
LINE
8
Black
10
87.7196
20
-98.8753
11
87.7017
21
-98.8261
0
LINE
8
Black
10
87.7017
20
-98.8261
11
87.7017
21
-98.7739
0
LINE
8
Black
10
87.7017
20
-98.7739
11
87.7196
21
-98.7247
0
LINE
8
Black
10
87.7196
20
-98.7247
11
87.7532
21
-98.6847
0
LINE
8
Black
10
87.7532
20
-98.6847
11
87.7985
21
-98.6585
0
LINE
8
Black
10
87.7985
20
-98.6585
11
87.85
21
-98.6494
0
LINE
8
Black
10
87.85
20
-98.6494
11
87.9015
21
-98.6585
0
LINE
8
Black
10
110.902
20
-98.6585
11
110.947
21
-98.6847
0
LINE
8
Black
10
110.947
20
-98.6847
11
110.98
21
-98.7247
0
LINE
8
Black
10
110.98
20
-98.7247
11
110.998
21
-98.7739
0
LINE
8
Black
10
110.998
20
-98.7739
11
110.998
21
-98.8261
0
LINE
8
Black
10
110.998
20
-98.8261
11
110.98
21
-98.8753
0
LINE
8
Black
10
110.98
20
-98.8753
11
110.947
21
-98.9153
0
LINE
8
Black
10
110.947
20
-98.9153
11
110.902
21
-98.9415
0
LINE
8
Black
10
110.902
20
-98.9415
11
110.85
21
-98.9506
0
LINE
8
Black
10
110.85
20
-98.9506
11
110.799
21
-98.9415
0
LINE
8
Black
10
110.799
20
-98.9415
11
110.753
21
-98.9153
0
LINE
8
Black
10
110.753
20
-98.9153
11
110.72
21
-98.8753
0
LINE
8
Black
10
110.72
20
-98.8753
11
110.702
21
-98.8261
0
LINE
8
Black
10
110.702
20
-98.8261
11
110.702
21
-98.7739
0
LINE
8
Black
10
110.702
20
-98.7739
11
110.72
21
-98.7247
0
LINE
8
Black
10
110.72
20
-98.7247
11
110.753
21
-98.6847
0
LINE
8
Black
10
110.753
20
-98.6847
11
110.799
21
-98.6585
0
LINE
8
Black
10
110.799
20
-98.6585
11
110.85
21
-98.6494
0
LINE
8
Black
10
110.85
20
-98.6494
11
110.902
21
-98.6585
0
LINE
8
Black
10
89.2015
20
-98.6585
11
89.2468
21
-98.6847
0
LINE
8
Black
10
89.2468
20
-98.6847
11
89.2804
21
-98.7247
0
LINE
8
Black
10
89.2804
20
-98.7247
11
89.2983
21
-98.7739
0
LINE
8
Black
10
89.2983
20
-98.7739
11
89.2983
21
-98.8261
0
LINE
8
Black
10
89.2983
20
-98.8261
11
89.2804
21
-98.8753
0
LINE
8
Black
10
89.2804
20
-98.8753
11
89.2468
21
-98.9153
0
LINE
8
Black
10
89.2468
20
-98.9153
11
89.2015
21
-98.9415
0
LINE
8
Black
10
89.2015
20
-98.9415
11
89.15
21
-98.9506
0
LINE
8
Black
10
89.15
20
-98.9506
11
89.0985
21
-98.9415
0
LINE
8
Black
10
89.0985
20
-98.9415
11
89.0532
21
-98.9153
0
LINE
8
Black
10
89.0532
20
-98.9153
11
89.0196
21
-98.8753
0
LINE
8
Black
10
89.0196
20
-98.8753
11
89.0017
21
-98.8261
0
LINE
8
Black
10
89.0017
20
-98.8261
11
89.0017
21
-98.7739
0
LINE
8
Black
10
89.0017
20
-98.7739
11
89.0196
21
-98.7247
0
LINE
8
Black
10
89.0196
20
-98.7247
11
89.0532
21
-98.6847
0
LINE
8
Black
10
89.0532
20
-98.6847
11
89.0985
21
-98.6585
0
LINE
8
Black
10
89.0985
20
-98.6585
11
89.15
21
-98.6494
0
LINE
8
Black
10
89.15
20
-98.6494
11
89.2015
21
-98.6585
0
LINE
8
Black
10
112.201
20
-98.6585
11
112.247
21
-98.6847
0
LINE
8
Black
10
112.247
20
-98.6847
11
112.28
21
-98.7247
0
LINE
8
Black
10
112.28
20
-98.7247
11
112.298
21
-98.7739
0
LINE
8
Black
10
112.298
20
-98.7739
11
112.298
21
-98.8261
0
LINE
8
Black
10
112.298
20
-98.8261
11
112.28
21
-98.8753
0
LINE
8
Black
10
112.28
20
-98.8753
11
112.247
21
-98.9153
0
LINE
8
Black
10
112.247
20
-98.9153
11
112.201
21
-98.9415
0
LINE
8
Black
10
112.201
20
-98.9415
11
112.15
21
-98.9506
0
LINE
8
Black
10
112.15
20
-98.9506
11
112.099
21
-98.9415
0
LINE
8
Black
10
112.099
20
-98.9415
11
112.053
21
-98.9153
0
LINE
8
Black
10
112.053
20
-98.9153
11
112.02
21
-98.8753
0
LINE
8
Black
10
112.02
20
-98.8753
11
112.002
21
-98.8261
0
LINE
8
Black
10
112.002
20
-98.8261
11
112.002
21
-98.7739
0
LINE
8
Black
10
112.002
20
-98.7739
11
112.02
21
-98.7247
0
LINE
8
Black
10
112.02
20
-98.7247
11
112.053
21
-98.6847
0
LINE
8
Black
10
112.053
20
-98.6847
11
112.099
21
-98.6585
0
LINE
8
Black
10
112.099
20
-98.6585
11
112.15
21
-98.6494
0
LINE
8
Black
10
112.15
20
-98.6494
11
112.201
21
-98.6585
0
LINE
8
Black
10
118.486
20
-93.9388
11
118.826
21
-94.1349
0
LINE
8
Black
10
118.826
20
-94.1349
11
119.078
21
-94.4354
0
LINE
8
Black
10
119.078
20
-94.4354
11
119.212
21
-94.8039
0
LINE
8
Black
10
119.212
20
-94.8039
11
119.212
21
-95.1961
0
LINE
8
Black
10
119.212
20
-95.1961
11
119.078
21
-95.5646
0
LINE
8
Black
10
119.078
20
-95.5646
11
118.826
21
-95.8651
0
LINE
8
Black
10
118.826
20
-95.8651
11
118.486
21
-96.0612
0
LINE
8
Black
10
118.486
20
-96.0612
11
118.1
21
-96.1293
0
LINE
8
Black
10
118.1
20
-96.1293
11
117.714
21
-96.0612
0
LINE
8
Black
10
117.714
20
-96.0612
11
117.374
21
-95.8651
0
LINE
8
Black
10
117.374
20
-95.8651
11
117.122
21
-95.5646
0
LINE
8
Black
10
117.122
20
-95.5646
11
116.988
21
-95.1961
0
LINE
8
Black
10
116.988
20
-95.1961
11
116.988
21
-94.8039
0
LINE
8
Black
10
116.988
20
-94.8039
11
117.122
21
-94.4354
0
LINE
8
Black
10
117.122
20
-94.4354
11
117.374
21
-94.1349
0
LINE
8
Black
10
117.374
20
-94.1349
11
117.714
21
-93.9388
0
LINE
8
Black
10
117.714
20
-93.9388
11
118.1
21
-93.8707
0
LINE
8
Black
10
118.1
20
-93.8707
11
118.486
21
-93.9388
0
LINE
8
Black
10
109.675
20
-94.029
11
109.72
21
-94.0551
0
LINE
8
Black
10
109.72
20
-94.0551
11
109.754
21
-94.0952
0
LINE
8
Black
10
109.754
20
-94.0952
11
109.772
21
-94.1443
0
LINE
8
Black
10
109.772
20
-94.1443
11
109.772
21
-94.1966
0
LINE
8
Black
10
109.772
20
-94.1966
11
109.754
21
-94.2457
0
LINE
8
Black
10
109.754
20
-94.2457
11
109.72
21
-94.2858
0
LINE
8
Black
10
109.72
20
-94.2858
11
109.675
21
-94.3119
0
LINE
8
Black
10
109.675
20
-94.3119
11
109.623
21
-94.321
0
LINE
8
Black
10
109.623
20
-94.321
11
109.572
21
-94.3119
0
LINE
8
Black
10
109.572
20
-94.3119
11
109.527
21
-94.2858
0
LINE
8
Black
10
109.527
20
-94.2858
11
109.493
21
-94.2457
0
LINE
8
Black
10
109.493
20
-94.2457
11
109.475
21
-94.1966
0
LINE
8
Black
10
109.475
20
-94.1966
11
109.475
21
-94.1443
0
LINE
8
Black
10
109.475
20
-94.1443
11
109.493
21
-94.0952
0
LINE
8
Black
10
109.493
20
-94.0952
11
109.527
21
-94.0551
0
LINE
8
Black
10
109.527
20
-94.0551
11
109.572
21
-94.029
0
LINE
8
Black
10
109.572
20
-94.029
11
109.623
21
-94.0199
0
LINE
8
Black
10
109.623
20
-94.0199
11
109.675
21
-94.029
0
LINE
8
Black
10
109.251
20
-93.6047
11
109.296
21
-93.6308
0
LINE
8
Black
10
109.296
20
-93.6308
11
109.33
21
-93.6709
0
LINE
8
Black
10
109.33
20
-93.6709
11
109.347
21
-93.72
0
LINE
8
Black
10
109.347
20
-93.72
11
109.347
21
-93.7723
0
LINE
8
Black
10
109.347
20
-93.7723
11
109.33
21
-93.8215
0
LINE
8
Black
10
109.33
20
-93.8215
11
109.296
21
-93.8615
0
LINE
8
Black
10
109.296
20
-93.8615
11
109.251
21
-93.8877
0
LINE
8
Black
10
109.251
20
-93.8877
11
109.199
21
-93.8968
0
LINE
8
Black
10
109.199
20
-93.8968
11
109.148
21
-93.8877
0
LINE
8
Black
10
109.148
20
-93.8877
11
109.102
21
-93.8615
0
LINE
8
Black
10
109.102
20
-93.8615
11
109.069
21
-93.8215
0
LINE
8
Black
10
109.069
20
-93.8215
11
109.051
21
-93.7723
0
LINE
8
Black
10
109.051
20
-93.7723
11
109.051
21
-93.72
0
LINE
8
Black
10
109.051
20
-93.72
11
109.069
21
-93.6709
0
LINE
8
Black
10
109.069
20
-93.6709
11
109.102
21
-93.6308
0
LINE
8
Black
10
109.102
20
-93.6308
11
109.148
21
-93.6047
0
LINE
8
Black
10
109.148
20
-93.6047
11
109.199
21
-93.5956
0
LINE
8
Black
10
109.199
20
-93.5956
11
109.251
21
-93.6047
0
LINE
8
Black
10
108.826
20
-93.1804
11
108.872
21
-93.2066
0
LINE
8
Black
10
108.872
20
-93.2066
11
108.905
21
-93.2466
0
LINE
8
Black
10
108.905
20
-93.2466
11
108.923
21
-93.2958
0
LINE
8
Black
10
108.923
20
-93.2958
11
108.923
21
-93.3481
0
LINE
8
Black
10
108.923
20
-93.3481
11
108.905
21
-93.3972
0
LINE
8
Black
10
108.905
20
-93.3972
11
108.872
21
-93.4373
0
LINE
8
Black
10
108.872
20
-93.4373
11
108.826
21
-93.4634
0
LINE
8
Black
10
108.826
20
-93.4634
11
108.775
21
-93.4725
0
LINE
8
Black
10
108.775
20
-93.4725
11
108.723
21
-93.4634
0
LINE
8
Black
10
108.723
20
-93.4634
11
108.678
21
-93.4373
0
LINE
8
Black
10
108.678
20
-93.4373
11
108.644
21
-93.3972
0
LINE
8
Black
10
108.644
20
-93.3972
11
108.627
21
-93.3481
0
LINE
8
Black
10
108.627
20
-93.3481
11
108.627
21
-93.2958
0
LINE
8
Black
10
108.627
20
-93.2958
11
108.644
21
-93.2466
0
LINE
8
Black
10
108.644
20
-93.2466
11
108.678
21
-93.2066
0
LINE
8
Black
10
108.678
20
-93.2066
11
108.723
21
-93.1804
0
LINE
8
Black
10
108.723
20
-93.1804
11
108.775
21
-93.1714
0
LINE
8
Black
10
108.775
20
-93.1714
11
108.826
21
-93.1804
0
LINE
8
Black
10
110.748
20
-92.9494
11
110.794
21
-92.9756
0
LINE
8
Black
10
110.794
20
-92.9756
11
110.827
21
-93.0156
0
LINE
8
Black
10
110.827
20
-93.0156
11
110.845
21
-93.0648
0
LINE
8
Black
10
110.845
20
-93.0648
11
110.845
21
-93.1171
0
LINE
8
Black
10
110.845
20
-93.1171
11
110.827
21
-93.1662
0
LINE
8
Black
10
110.827
20
-93.1662
11
110.794
21
-93.2063
0
LINE
8
Black
10
110.794
20
-93.2063
11
110.748
21
-93.2324
0
LINE
8
Black
10
110.748
20
-93.2324
11
110.697
21
-93.2415
0
LINE
8
Black
10
110.697
20
-93.2415
11
110.645
21
-93.2324
0
LINE
8
Black
10
110.645
20
-93.2324
11
110.6
21
-93.2063
0
LINE
8
Black
10
110.6
20
-93.2063
11
110.566
21
-93.1662
0
LINE
8
Black
10
110.566
20
-93.1662
11
110.549
21
-93.1171
0
LINE
8
Black
10
110.549
20
-93.1171
11
110.549
21
-93.0648
0
LINE
8
Black
10
110.549
20
-93.0648
11
110.566
21
-93.0156
0
LINE
8
Black
10
110.566
20
-93.0156
11
110.6
21
-92.9756
0
LINE
8
Black
10
110.6
20
-92.9756
11
110.645
21
-92.9494
0
LINE
8
Black
10
110.645
20
-92.9494
11
110.697
21
-92.9403
0
LINE
8
Black
10
110.697
20
-92.9403
11
110.748
21
-92.9494
0
LINE
8
Black
10
108.402
20
-92.7562
11
108.447
21
-92.7823
0
LINE
8
Black
10
108.447
20
-92.7823
11
108.481
21
-92.8224
0
LINE
8
Black
10
108.481
20
-92.8224
11
108.499
21
-92.8715
0
LINE
8
Black
10
108.499
20
-92.8715
11
108.499
21
-92.9238
0
LINE
8
Black
10
108.499
20
-92.9238
11
108.481
21
-92.973
0
LINE
8
Black
10
108.481
20
-92.973
11
108.447
21
-93.013
0
LINE
8
Black
10
108.447
20
-93.013
11
108.402
21
-93.0392
0
LINE
8
Black
10
108.402
20
-93.0392
11
108.351
21
-93.0482
0
LINE
8
Black
10
108.351
20
-93.0482
11
108.299
21
-93.0392
0
LINE
8
Black
10
108.299
20
-93.0392
11
108.254
21
-93.013
0
LINE
8
Black
10
108.254
20
-93.013
11
108.22
21
-92.973
0
LINE
8
Black
10
108.22
20
-92.973
11
108.202
21
-92.9238
0
LINE
8
Black
10
108.202
20
-92.9238
11
108.202
21
-92.8715
0
LINE
8
Black
10
108.202
20
-92.8715
11
108.22
21
-92.8224
0
LINE
8
Black
10
108.22
20
-92.8224
11
108.254
21
-92.7823
0
LINE
8
Black
10
108.254
20
-92.7823
11
108.299
21
-92.7562
0
LINE
8
Black
10
108.299
20
-92.7562
11
108.351
21
-92.7471
0
LINE
8
Black
10
108.351
20
-92.7471
11
108.402
21
-92.7562
0
LINE
8
Black
10
93.8046
20
-92.3125
11
93.8967
21
-92.3656
0
LINE
8
Black
10
93.8967
20
-92.3656
11
93.965
21
-92.447
0
LINE
8
Black
10
93.965
20
-92.447
11
94.0013
21
-92.5469
0
LINE
8
Black
10
94.0013
20
-92.5469
11
94.0013
21
-92.6531
0
LINE
8
Black
10
94.0013
20
-92.6531
11
93.965
21
-92.753
0
LINE
8
Black
10
93.965
20
-92.753
11
93.8967
21
-92.8344
0
LINE
8
Black
10
93.8967
20
-92.8344
11
93.8046
21
-92.8875
0
LINE
8
Black
10
93.8046
20
-92.8875
11
93.7
21
-92.906
0
LINE
8
Black
10
93.7
20
-92.906
11
93.5954
21
-92.8875
0
LINE
8
Black
10
93.5954
20
-92.8875
11
93.5033
21
-92.8344
0
LINE
8
Black
10
93.5033
20
-92.8344
11
93.435
21
-92.753
0
LINE
8
Black
10
93.435
20
-92.753
11
93.4248
21
-92.725
0
LINE
8
Black
10
93.4248
20
-92.725
11
93.3518
21
-92.725
0
LINE
8
Black
10
93.3518
20
-92.725
11
93.2884
21
-92.7884
0
LINE
8
Black
10
93.2884
20
-92.7884
11
93.2528
21
-92.8133
0
LINE
8
Black
10
93.2528
20
-92.8133
11
93.2109
21
-92.8245
0
LINE
8
Black
10
93.2109
20
-92.8245
11
93.1676
21
-92.8207
0
LINE
8
Black
10
93.1676
20
-92.8207
11
93.1283
21
-92.8024
0
LINE
8
Black
10
93.1283
20
-92.8024
11
93.0976
21
-92.7717
0
LINE
8
Black
10
93.0976
20
-92.7717
11
93.0793
21
-92.7324
0
LINE
8
Black
10
93.0793
20
-92.7324
11
93.0755
21
-92.6891
0
LINE
8
Black
10
93.0755
20
-92.6891
11
93.0867
21
-92.6472
0
LINE
8
Black
10
93.0867
20
-92.6472
11
93.1116
21
-92.6116
0
LINE
8
Black
10
93.1116
20
-92.6116
11
93.2116
21
-92.5116
0
LINE
8
Black
10
93.2116
20
-92.5116
11
93.2161
21
-92.5085
0
LINE
8
Black
10
93.2161
20
-92.5085
11
93.2197
21
-92.5042
0
LINE
8
Black
10
93.2197
20
-92.5042
11
93.2338
21
-92.4961
0
LINE
8
Black
10
93.2338
20
-92.4961
11
93.2472
21
-92.4867
0
LINE
8
Black
10
93.2472
20
-92.4867
11
93.2525
21
-92.4853
0
LINE
8
Black
10
93.2525
20
-92.4853
11
93.2572
21
-92.4825
0
LINE
8
Black
10
93.2572
20
-92.4825
11
93.2733
21
-92.4797
0
LINE
8
Black
10
93.2733
20
-92.4797
11
93.2891
21
-92.4755
0
LINE
8
Black
10
93.2891
20
-92.4755
11
93.2946
21
-92.476
0
LINE
8
Black
10
93.2946
20
-92.476
11
93.3
21
-92.475
0
LINE
8
Black
10
93.3
20
-92.475
11
93.4248
21
-92.475
0
LINE
8
Black
10
93.4248
20
-92.475
11
93.435
21
-92.447
0
LINE
8
Black
10
93.435
20
-92.447
11
93.5033
21
-92.3656
0
LINE
8
Black
10
93.5033
20
-92.3656
11
93.5954
21
-92.3125
0
LINE
8
Black
10
93.5954
20
-92.3125
11
93.7
21
-92.294
0
LINE
8
Black
10
93.7
20
-92.294
11
93.8046
21
-92.3125
0
LINE
8
Black
10
110.324
20
-92.5252
11
110.369
21
-92.5513
0
LINE
8
Black
10
110.369
20
-92.5513
11
110.403
21
-92.5914
0
LINE
8
Black
10
110.403
20
-92.5914
11
110.421
21
-92.6405
0
LINE
8
Black
10
110.421
20
-92.6405
11
110.421
21
-92.6928
0
LINE
8
Black
10
110.421
20
-92.6928
11
110.403
21
-92.7419
0
LINE
8
Black
10
110.403
20
-92.7419
11
110.369
21
-92.782
0
LINE
8
Black
10
110.369
20
-92.782
11
110.324
21
-92.8081
0
LINE
8
Black
10
110.324
20
-92.8081
11
110.273
21
-92.8172
0
LINE
8
Black
10
110.273
20
-92.8172
11
110.221
21
-92.8081
0
LINE
8
Black
10
110.221
20
-92.8081
11
110.176
21
-92.782
0
LINE
8
Black
10
110.176
20
-92.782
11
110.142
21
-92.7419
0
LINE
8
Black
10
110.142
20
-92.7419
11
110.124
21
-92.6928
0
LINE
8
Black
10
110.124
20
-92.6928
11
110.124
21
-92.6405
0
LINE
8
Black
10
110.124
20
-92.6405
11
110.142
21
-92.5914
0
LINE
8
Black
10
110.142
20
-92.5914
11
110.176
21
-92.5513
0
LINE
8
Black
10
110.176
20
-92.5513
11
110.221
21
-92.5252
0
LINE
8
Black
10
110.221
20
-92.5252
11
110.273
21
-92.5161
0
LINE
8
Black
10
110.273
20
-92.5161
11
110.324
21
-92.5252
0
LINE
8
Black
10
107.978
20
-92.3319
11
108.023
21
-92.3581
0
LINE
8
Black
10
108.023
20
-92.3581
11
108.057
21
-92.3981
0
LINE
8
Black
10
108.057
20
-92.3981
11
108.075
21
-92.4473
0
LINE
8
Black
10
108.075
20
-92.4473
11
108.075
21
-92.4995
0
LINE
8
Black
10
108.075
20
-92.4995
11
108.057
21
-92.5487
0
LINE
8
Black
10
108.057
20
-92.5487
11
108.023
21
-92.5887
0
LINE
8
Black
10
108.023
20
-92.5887
11
107.978
21
-92.6149
0
LINE
8
Black
10
107.978
20
-92.6149
11
107.926
21
-92.624
0
LINE
8
Black
10
107.926
20
-92.624
11
107.875
21
-92.6149
0
LINE
8
Black
10
107.875
20
-92.6149
11
107.83
21
-92.5887
0
LINE
8
Black
10
107.83
20
-92.5887
11
107.796
21
-92.5487
0
LINE
8
Black
10
107.796
20
-92.5487
11
107.778
21
-92.4995
0
LINE
8
Black
10
107.778
20
-92.4995
11
107.778
21
-92.4473
0
LINE
8
Black
10
107.778
20
-92.4473
11
107.796
21
-92.3981
0
LINE
8
Black
10
107.796
20
-92.3981
11
107.83
21
-92.3581
0
LINE
8
Black
10
107.83
20
-92.3581
11
107.875
21
-92.3319
0
LINE
8
Black
10
107.875
20
-92.3319
11
107.926
21
-92.3228
0
LINE
8
Black
10
107.926
20
-92.3228
11
107.978
21
-92.3319
0
LINE
8
Black
10
106.055
20
-92.0125
11
106.147
21
-92.0656
0
LINE
8
Black
10
106.147
20
-92.0656
11
106.215
21
-92.147
0
LINE
8
Black
10
106.215
20
-92.147
11
106.251
21
-92.2469
0
LINE
8
Black
10
106.251
20
-92.2469
11
106.251
21
-92.3531
0
LINE
8
Black
10
106.251
20
-92.3531
11
106.215
21
-92.453
0
LINE
8
Black
10
106.215
20
-92.453
11
106.147
21
-92.5344
0
LINE
8
Black
10
106.147
20
-92.5344
11
106.055
21
-92.5875
0
LINE
8
Black
10
106.055
20
-92.5875
11
105.95
21
-92.606
0
LINE
8
Black
10
105.95
20
-92.606
11
105.845
21
-92.5875
0
LINE
8
Black
10
105.845
20
-92.5875
11
105.753
21
-92.5344
0
LINE
8
Black
10
105.753
20
-92.5344
11
105.685
21
-92.453
0
LINE
8
Black
10
105.685
20
-92.453
11
105.649
21
-92.3531
0
LINE
8
Black
10
105.649
20
-92.3531
11
105.649
21
-92.2469
0
LINE
8
Black
10
105.649
20
-92.2469
11
105.685
21
-92.147
0
LINE
8
Black
10
105.685
20
-92.147
11
105.753
21
-92.0656
0
LINE
8
Black
10
105.753
20
-92.0656
11
105.845
21
-92.0125
0
LINE
8
Black
10
105.845
20
-92.0125
11
105.95
21
-91.994
0
LINE
8
Black
10
105.95
20
-91.994
11
106.055
21
-92.0125
0
LINE
8
Black
10
109.9
20
-92.1009
11
109.945
21
-92.127
0
LINE
8
Black
10
109.945
20
-92.127
11
109.979
21
-92.1671
0
LINE
8
Black
10
109.979
20
-92.1671
11
109.997
21
-92.2162
0
LINE
8
Black
10
109.997
20
-92.2162
11
109.997
21
-92.2685
0
LINE
8
Black
10
109.997
20
-92.2685
11
109.979
21
-92.3177
0
LINE
8
Black
10
109.979
20
-92.3177
11
109.945
21
-92.3577
0
LINE
8
Black
10
109.945
20
-92.3577
11
109.9
21
-92.3839
0
LINE
8
Black
10
109.9
20
-92.3839
11
109.848
21
-92.393
0
LINE
8
Black
10
109.848
20
-92.393
11
109.797
21
-92.3839
0
LINE
8
Black
10
109.797
20
-92.3839
11
109.751
21
-92.3577
0
LINE
8
Black
10
109.751
20
-92.3577
11
109.718
21
-92.3177
0
LINE
8
Black
10
109.718
20
-92.3177
11
109.7
21
-92.2685
0
LINE
8
Black
10
109.7
20
-92.2685
11
109.7
21
-92.2162
0
LINE
8
Black
10
109.7
20
-92.2162
11
109.718
21
-92.1671
0
LINE
8
Black
10
109.718
20
-92.1671
11
109.751
21
-92.127
0
LINE
8
Black
10
109.751
20
-92.127
11
109.797
21
-92.1009
0
LINE
8
Black
10
109.797
20
-92.1009
11
109.848
21
-92.0918
0
LINE
8
Black
10
109.848
20
-92.0918
11
109.9
21
-92.1009
0
LINE
8
Black
10
107.575
20
-91.929
11
107.62
21
-91.9551
0
LINE
8
Black
10
107.62
20
-91.9551
11
107.654
21
-91.9952
0
LINE
8
Black
10
107.654
20
-91.9952
11
107.672
21
-92.0443
0
LINE
8
Black
10
107.672
20
-92.0443
11
107.672
21
-92.0966
0
LINE
8
Black
10
107.672
20
-92.0966
11
107.654
21
-92.1457
0
LINE
8
Black
10
107.654
20
-92.1457
11
107.62
21
-92.1858
0
LINE
8
Black
10
107.62
20
-92.1858
11
107.575
21
-92.212
0
LINE
8
Black
10
107.575
20
-92.212
11
107.523
21
-92.221
0
LINE
8
Black
10
107.523
20
-92.221
11
107.472
21
-92.212
0
LINE
8
Black
10
107.472
20
-92.212
11
107.427
21
-92.1858
0
LINE
8
Black
10
107.427
20
-92.1858
11
107.393
21
-92.1457
0
LINE
8
Black
10
107.393
20
-92.1457
11
107.375
21
-92.0966
0
LINE
8
Black
10
107.375
20
-92.0966
11
107.375
21
-92.0443
0
LINE
8
Black
10
107.375
20
-92.0443
11
107.393
21
-91.9952
0
LINE
8
Black
10
107.393
20
-91.9952
11
107.427
21
-91.9551
0
LINE
8
Black
10
107.427
20
-91.9551
11
107.472
21
-91.929
0
LINE
8
Black
10
107.472
20
-91.929
11
107.523
21
-91.9199
0
LINE
8
Black
10
107.523
20
-91.9199
11
107.575
21
-91.929
0
LINE
8
Black
10
111.089
20
-91.2776
11
112.049
21
-91.2776
0
LINE
8
Black
10
112.049
20
-91.2776
11
112.049
21
-91.1969
0
LINE
8
Black
10
112.049
20
-91.1969
11
112.085
21
-91.097
0
LINE
8
Black
10
112.085
20
-91.097
11
112.153
21
-91.0156
0
LINE
8
Black
10
112.153
20
-91.0156
11
112.245
21
-90.9625
0
LINE
8
Black
10
112.245
20
-90.9625
11
112.35
21
-90.944
0
LINE
8
Black
10
112.35
20
-90.944
11
112.455
21
-90.9625
0
LINE
8
Black
10
112.455
20
-90.9625
11
112.547
21
-91.0156
0
LINE
8
Black
10
112.547
20
-91.0156
11
112.615
21
-91.097
0
LINE
8
Black
10
112.615
20
-91.097
11
112.651
21
-91.1969
0
LINE
8
Black
10
112.651
20
-91.1969
11
112.651
21
-91.3031
0
LINE
8
Black
10
112.651
20
-91.3031
11
112.615
21
-91.403
0
LINE
8
Black
10
112.615
20
-91.403
11
112.547
21
-91.4844
0
LINE
8
Black
10
112.547
20
-91.4844
11
112.455
21
-91.5375
0
LINE
8
Black
10
112.455
20
-91.5375
11
112.35
21
-91.556
0
LINE
8
Black
10
112.35
20
-91.556
11
112.245
21
-91.5375
0
LINE
8
Black
10
112.245
20
-91.5375
11
112.221
21
-91.5236
0
LINE
8
Black
10
112.221
20
-91.5236
11
112.208
21
-91.5271
0
LINE
8
Black
10
112.208
20
-91.5271
11
112.203
21
-91.5266
0
LINE
8
Black
10
112.203
20
-91.5266
11
112.197
21
-91.5276
0
LINE
8
Black
10
112.197
20
-91.5276
11
111.301
21
-91.5276
0
LINE
8
Black
10
111.301
20
-91.5276
11
110.683
21
-92.1451
0
LINE
8
Black
10
110.683
20
-92.1451
11
109.835
21
-91.2965
0
LINE
8
Black
10
109.835
20
-91.2965
11
110.471
21
-90.6601
0
LINE
8
Black
10
110.471
20
-90.6601
11
111.089
21
-91.2776
0
LINE
8
Black
10
109.476
20
-91.6766
11
109.521
21
-91.7028
0
LINE
8
Black
10
109.521
20
-91.7028
11
109.554
21
-91.7428
0
LINE
8
Black
10
109.554
20
-91.7428
11
109.572
21
-91.792
0
LINE
8
Black
10
109.572
20
-91.792
11
109.572
21
-91.8443
0
LINE
8
Black
10
109.572
20
-91.8443
11
109.554
21
-91.8934
0
LINE
8
Black
10
109.554
20
-91.8934
11
109.521
21
-91.9335
0
LINE
8
Black
10
109.521
20
-91.9335
11
109.476
21
-91.9596
0
LINE
8
Black
10
109.476
20
-91.9596
11
109.424
21
-91.9687
0
LINE
8
Black
10
109.424
20
-91.9687
11
109.373
21
-91.9596
0
LINE
8
Black
10
109.373
20
-91.9596
11
109.327
21
-91.9335
0
LINE
8
Black
10
109.327
20
-91.9335
11
109.294
21
-91.8934
0
LINE
8
Black
10
109.294
20
-91.8934
11
109.276
21
-91.8443
0
LINE
8
Black
10
109.276
20
-91.8443
11
109.276
21
-91.792
0
LINE
8
Black
10
109.276
20
-91.792
11
109.294
21
-91.7428
0
LINE
8
Black
10
109.294
20
-91.7428
11
109.327
21
-91.7028
0
LINE
8
Black
10
109.327
20
-91.7028
11
109.373
21
-91.6766
0
LINE
8
Black
10
109.373
20
-91.6766
11
109.424
21
-91.6676
0
LINE
8
Black
10
109.424
20
-91.6676
11
109.476
21
-91.6766
0
LINE
8
Black
10
107.151
20
-91.5047
11
107.196
21
-91.5308
0
LINE
8
Black
10
107.196
20
-91.5308
11
107.23
21
-91.5709
0
LINE
8
Black
10
107.23
20
-91.5709
11
107.247
21
-91.62
0
LINE
8
Black
10
107.247
20
-91.62
11
107.247
21
-91.6723
0
LINE
8
Black
10
107.247
20
-91.6723
11
107.23
21
-91.7215
0
LINE
8
Black
10
107.23
20
-91.7215
11
107.196
21
-91.7615
0
LINE
8
Black
10
107.196
20
-91.7615
11
107.151
21
-91.7877
0
LINE
8
Black
10
107.151
20
-91.7877
11
107.099
21
-91.7968
0
LINE
8
Black
10
107.099
20
-91.7968
11
107.048
21
-91.7877
0
LINE
8
Black
10
107.048
20
-91.7877
11
107.002
21
-91.7615
0
LINE
8
Black
10
107.002
20
-91.7615
11
106.969
21
-91.7215
0
LINE
8
Black
10
106.969
20
-91.7215
11
106.951
21
-91.6723
0
LINE
8
Black
10
106.951
20
-91.6723
11
106.951
21
-91.62
0
LINE
8
Black
10
106.951
20
-91.62
11
106.969
21
-91.5709
0
LINE
8
Black
10
106.969
20
-91.5709
11
107.002
21
-91.5308
0
LINE
8
Black
10
107.002
20
-91.5308
11
107.048
21
-91.5047
0
LINE
8
Black
10
107.048
20
-91.5047
11
107.099
21
-91.4956
0
LINE
8
Black
10
107.099
20
-91.4956
11
107.151
21
-91.5047
0
LINE
8
Black
10
109.051
20
-91.2524
11
109.097
21
-91.2785
0
LINE
8
Black
10
109.097
20
-91.2785
11
109.13
21
-91.3186
0
LINE
8
Black
10
109.13
20
-91.3186
11
109.148
21
-91.3677
0
LINE
8
Black
10
109.148
20
-91.3677
11
109.148
21
-91.42
0
LINE
8
Black
10
109.148
20
-91.42
11
109.13
21
-91.4691
0
LINE
8
Black
10
109.13
20
-91.4691
11
109.097
21
-91.5092
0
LINE
8
Black
10
109.097
20
-91.5092
11
109.051
21
-91.5354
0
LINE
8
Black
10
109.051
20
-91.5354
11
109
21
-91.5444
0
LINE
8
Black
10
109
20
-91.5444
11
108.948
21
-91.5354
0
LINE
8
Black
10
108.948
20
-91.5354
11
108.903
21
-91.5092
0
LINE
8
Black
10
108.903
20
-91.5092
11
108.869
21
-91.4691
0
LINE
8
Black
10
108.869
20
-91.4691
11
108.851
21
-91.42
0
LINE
8
Black
10
108.851
20
-91.42
11
108.851
21
-91.3677
0
LINE
8
Black
10
108.851
20
-91.3677
11
108.869
21
-91.3186
0
LINE
8
Black
10
108.869
20
-91.3186
11
108.903
21
-91.2785
0
LINE
8
Black
10
108.903
20
-91.2785
11
108.948
21
-91.2524
0
LINE
8
Black
10
108.948
20
-91.2524
11
109
21
-91.2433
0
LINE
8
Black
10
109
20
-91.2433
11
109.051
21
-91.2524
0
LINE
8
Black
10
117.792
20
-86.6626
11
117.612
21
-86.8429
0
LINE
8
Black
10
117.612
20
-86.8429
11
117.683
21
-86.9137
0
LINE
8
Black
10
117.683
20
-86.9137
11
117.686
21
-86.9182
0
LINE
8
Black
10
117.686
20
-86.9182
11
117.69
21
-86.9217
0
LINE
8
Black
10
117.69
20
-86.9217
11
117.698
21
-86.9358
0
LINE
8
Black
10
117.698
20
-86.9358
11
117.707
21
-86.9492
0
LINE
8
Black
10
117.707
20
-86.9492
11
117.709
21
-86.9545
0
LINE
8
Black
10
117.709
20
-86.9545
11
117.712
21
-86.9593
0
LINE
8
Black
10
117.712
20
-86.9593
11
117.714
21
-86.9754
0
LINE
8
Black
10
117.714
20
-86.9754
11
117.719
21
-86.9911
0
LINE
8
Black
10
117.719
20
-86.9911
11
117.718
21
-86.9966
0
LINE
8
Black
10
117.718
20
-86.9966
11
117.719
21
-87.002
0
LINE
8
Black
10
117.719
20
-87.002
11
117.719
21
-87.3559
0
LINE
8
Black
10
117.719
20
-87.3559
11
117.718
21
-87.3613
0
LINE
8
Black
10
117.718
20
-87.3613
11
117.719
21
-87.3667
0
LINE
8
Black
10
117.719
20
-87.3667
11
117.714
21
-87.3825
0
LINE
8
Black
10
117.714
20
-87.3825
11
117.712
21
-87.3986
0
LINE
8
Black
10
117.712
20
-87.3986
11
117.709
21
-87.4034
0
LINE
8
Black
10
117.709
20
-87.4034
11
117.707
21
-87.4087
0
LINE
8
Black
10
117.707
20
-87.4087
11
117.698
21
-87.4221
0
LINE
8
Black
10
117.698
20
-87.4221
11
117.69
21
-87.4362
0
LINE
8
Black
10
117.69
20
-87.4362
11
117.686
21
-87.4397
0
LINE
8
Black
10
117.686
20
-87.4397
11
117.683
21
-87.4442
0
LINE
8
Black
10
117.683
20
-87.4442
11
113.688
21
-91.4384
0
LINE
8
Black
10
113.688
20
-91.4384
11
113.684
21
-91.4415
0
LINE
8
Black
10
113.684
20
-91.4415
11
113.68
21
-91.4458
0
LINE
8
Black
10
113.68
20
-91.4458
11
113.666
21
-91.4539
0
LINE
8
Black
10
113.666
20
-91.4539
11
113.653
21
-91.4633
0
LINE
8
Black
10
113.653
20
-91.4633
11
113.648
21
-91.4647
0
LINE
8
Black
10
113.648
20
-91.4647
11
113.643
21
-91.4675
0
LINE
8
Black
10
113.643
20
-91.4675
11
113.627
21
-91.4703
0
LINE
8
Black
10
113.627
20
-91.4703
11
113.611
21
-91.4745
0
LINE
8
Black
10
113.611
20
-91.4745
11
113.605
21
-91.474
0
LINE
8
Black
10
113.605
20
-91.474
11
113.6
21
-91.475
0
LINE
8
Black
10
113.6
20
-91.475
11
113.579
21
-91.475
0
LINE
8
Black
10
113.579
20
-91.475
11
113.573
21
-91.474
0
LINE
8
Black
10
113.573
20
-91.474
11
113.568
21
-91.4745
0
LINE
8
Black
10
113.568
20
-91.4745
11
113.552
21
-91.4703
0
LINE
8
Black
10
113.552
20
-91.4703
11
113.536
21
-91.4675
0
LINE
8
Black
10
113.536
20
-91.4675
11
113.531
21
-91.4647
0
LINE
8
Black
10
113.531
20
-91.4647
11
113.526
21
-91.4633
0
LINE
8
Black
10
113.526
20
-91.4633
11
113.512
21
-91.4539
0
LINE
8
Black
10
113.512
20
-91.4539
11
113.498
21
-91.4458
0
LINE
8
Black
10
113.498
20
-91.4458
11
113.495
21
-91.4415
0
LINE
8
Black
10
113.495
20
-91.4415
11
113.49
21
-91.4384
0
LINE
8
Black
10
113.49
20
-91.4384
11
113.121
21
-91.0697
0
LINE
8
Black
10
113.121
20
-91.0697
11
113.118
21
-91.0652
0
LINE
8
Black
10
113.118
20
-91.0652
11
113.114
21
-91.0616
0
LINE
8
Black
10
113.114
20
-91.0616
11
113.106
21
-91.0475
0
LINE
8
Black
10
113.106
20
-91.0475
11
113.097
21
-91.0341
0
LINE
8
Black
10
113.097
20
-91.0341
11
113.095
21
-91.0288
0
LINE
8
Black
10
113.095
20
-91.0288
11
113.092
21
-91.024
0
LINE
8
Black
10
113.092
20
-91.024
11
113.09
21
-91.008
0
LINE
8
Black
10
113.09
20
-91.008
11
113.085
21
-90.9922
0
LINE
8
Black
10
113.085
20
-90.9922
11
113.086
21
-90.9867
0
LINE
8
Black
10
113.086
20
-90.9867
11
113.085
21
-90.9813
0
LINE
8
Black
10
113.085
20
-90.9813
11
113.085
21
-90.8831
0
LINE
8
Black
10
113.085
20
-90.8831
11
112.704
21
-90.5023
0
LINE
8
Black
10
112.704
20
-90.5023
11
112.326
21
-90.5023
0
LINE
8
Black
10
112.326
20
-90.5023
11
111.709
21
-91.1198
0
LINE
8
Black
10
111.709
20
-91.1198
11
110.86
21
-90.2712
0
LINE
8
Black
10
110.86
20
-90.2712
11
111.09
21
-90.0414
0
LINE
8
Black
10
111.09
20
-90.0414
11
111.056
21
-90.0073
0
LINE
8
Black
10
111.056
20
-90.0073
11
111.019
21
-90.0073
0
LINE
8
Black
10
111.019
20
-90.0073
11
110.734
21
-90.2932
0
LINE
8
Black
10
110.734
20
-90.2932
11
110.729
21
-90.2963
0
LINE
8
Black
10
110.729
20
-90.2963
11
110.726
21
-90.3006
0
LINE
8
Black
10
110.726
20
-90.3006
11
110.711
21
-90.3087
0
LINE
8
Black
10
110.711
20
-90.3087
11
110.698
21
-90.3181
0
LINE
8
Black
10
110.698
20
-90.3181
11
110.693
21
-90.3195
0
LINE
8
Black
10
110.693
20
-90.3195
11
110.688
21
-90.3223
0
LINE
8
Black
10
110.688
20
-90.3223
11
110.672
21
-90.3251
0
LINE
8
Black
10
110.672
20
-90.3251
11
110.656
21
-90.3293
0
LINE
8
Black
10
110.656
20
-90.3293
11
110.651
21
-90.3288
0
LINE
8
Black
10
110.651
20
-90.3288
11
110.645
21
-90.3298
0
LINE
8
Black
10
110.645
20
-90.3298
11
110.305
21
-90.3298
0
LINE
8
Black
10
110.305
20
-90.3298
11
110.299
21
-90.3288
0
LINE
8
Black
10
110.299
20
-90.3288
11
110.294
21
-90.3293
0
LINE
8
Black
10
110.294
20
-90.3293
11
110.278
21
-90.3251
0
LINE
8
Black
10
110.278
20
-90.3251
11
110.262
21
-90.3223
0
LINE
8
Black
10
110.262
20
-90.3223
11
110.257
21
-90.3195
0
LINE
8
Black
10
110.257
20
-90.3195
11
110.252
21
-90.3181
0
LINE
8
Black
10
110.252
20
-90.3181
11
110.239
21
-90.3087
0
LINE
8
Black
10
110.239
20
-90.3087
11
110.224
21
-90.3006
0
LINE
8
Black
10
110.224
20
-90.3006
11
110.221
21
-90.2963
0
LINE
8
Black
10
110.221
20
-90.2963
11
110.216
21
-90.2932
0
LINE
8
Black
10
110.216
20
-90.2932
11
110.109
21
-90.1853
0
LINE
8
Black
10
110.109
20
-90.1853
11
110.105
21
-90.1875
0
LINE
8
Black
10
110.105
20
-90.1875
11
110
21
-90.206
0
LINE
8
Black
10
110
20
-90.206
11
109.895
21
-90.1875
0
LINE
8
Black
10
109.895
20
-90.1875
11
109.803
21
-90.1344
0
LINE
8
Black
10
109.803
20
-90.1344
11
109.735
21
-90.053
0
LINE
8
Black
10
109.735
20
-90.053
11
109.699
21
-89.9531
0
LINE
8
Black
10
109.699
20
-89.9531
11
109.699
21
-89.8469
0
LINE
8
Black
10
109.699
20
-89.8469
11
109.735
21
-89.747
0
LINE
8
Black
10
109.735
20
-89.747
11
109.803
21
-89.6656
0
LINE
8
Black
10
109.803
20
-89.6656
11
109.875
21
-89.6242
0
LINE
8
Black
10
109.875
20
-89.6242
11
109.875
21
-88.9936
0
LINE
8
Black
10
109.875
20
-88.9936
11
109.729
21
-89.1399
0
LINE
8
Black
10
109.729
20
-89.1399
11
108.88
21
-88.2913
0
LINE
8
Black
10
108.88
20
-88.2913
11
109.517
21
-87.6549
0
LINE
8
Black
10
109.517
20
-87.6549
11
110.365
21
-88.5035
0
LINE
8
Black
10
110.365
20
-88.5035
11
110.12
21
-88.7483
0
LINE
8
Black
10
110.12
20
-88.7483
11
110.125
21
-88.7638
0
LINE
8
Black
10
110.125
20
-88.7638
11
110.124
21
-88.7693
0
LINE
8
Black
10
110.124
20
-88.7693
11
110.125
21
-88.7747
0
LINE
8
Black
10
110.125
20
-88.7747
11
110.125
21
-89.6242
0
LINE
8
Black
10
110.125
20
-89.6242
11
110.197
21
-89.6656
0
LINE
8
Black
10
110.197
20
-89.6656
11
110.265
21
-89.747
0
LINE
8
Black
10
110.265
20
-89.747
11
110.301
21
-89.8469
0
LINE
8
Black
10
110.301
20
-89.8469
11
110.301
21
-89.9531
0
LINE
8
Black
10
110.301
20
-89.9531
11
110.282
21
-90.0055
0
LINE
8
Black
10
110.282
20
-90.0055
11
110.357
21
-90.0798
0
LINE
8
Black
10
110.357
20
-90.0798
11
110.593
21
-90.0798
0
LINE
8
Black
10
110.593
20
-90.0798
11
110.879
21
-89.7939
0
LINE
8
Black
10
110.879
20
-89.7939
11
110.884
21
-89.7908
0
LINE
8
Black
10
110.884
20
-89.7908
11
110.887
21
-89.7866
0
LINE
8
Black
10
110.887
20
-89.7866
11
110.901
21
-89.7784
0
LINE
8
Black
10
110.901
20
-89.7784
11
110.915
21
-89.769
0
LINE
8
Black
10
110.915
20
-89.769
11
110.92
21
-89.7676
0
LINE
8
Black
10
110.92
20
-89.7676
11
110.925
21
-89.7649
0
LINE
8
Black
10
110.925
20
-89.7649
11
110.941
21
-89.762
0
LINE
8
Black
10
110.941
20
-89.762
11
110.957
21
-89.7578
0
LINE
8
Black
10
110.957
20
-89.7578
11
110.962
21
-89.7583
0
LINE
8
Black
10
110.962
20
-89.7583
11
110.968
21
-89.7573
0
LINE
8
Black
10
110.968
20
-89.7573
11
111.108
21
-89.7573
0
LINE
8
Black
10
111.108
20
-89.7573
11
111.113
21
-89.7583
0
LINE
8
Black
10
111.113
20
-89.7583
11
111.119
21
-89.7578
0
LINE
8
Black
10
111.119
20
-89.7578
11
111.134
21
-89.762
0
LINE
8
Black
10
111.134
20
-89.762
11
111.15
21
-89.7649
0
LINE
8
Black
10
111.15
20
-89.7649
11
111.155
21
-89.7676
0
LINE
8
Black
10
111.155
20
-89.7676
11
111.16
21
-89.769
0
LINE
8
Black
10
111.16
20
-89.769
11
111.174
21
-89.7784
0
LINE
8
Black
10
111.174
20
-89.7784
11
111.188
21
-89.7866
0
LINE
8
Black
10
111.188
20
-89.7866
11
111.192
21
-89.7908
0
LINE
8
Black
10
111.192
20
-89.7908
11
111.196
21
-89.7939
0
LINE
8
Black
10
111.196
20
-89.7939
11
111.267
21
-89.8646
0
LINE
8
Black
10
111.267
20
-89.8646
11
111.497
21
-89.6348
0
LINE
8
Black
10
111.497
20
-89.6348
11
112.114
21
-90.2523
0
LINE
8
Black
10
112.114
20
-90.2523
11
112.756
21
-90.2523
0
LINE
8
Black
10
112.756
20
-90.2523
11
112.761
21
-90.2533
0
LINE
8
Black
10
112.761
20
-90.2533
11
112.767
21
-90.2528
0
LINE
8
Black
10
112.767
20
-90.2528
11
112.782
21
-90.257
0
LINE
8
Black
10
112.782
20
-90.257
11
112.799
21
-90.2598
0
LINE
8
Black
10
112.799
20
-90.2598
11
112.803
21
-90.2626
0
LINE
8
Black
10
112.803
20
-90.2626
11
112.809
21
-90.264
0
LINE
8
Black
10
112.809
20
-90.264
11
112.822
21
-90.2734
0
LINE
8
Black
10
112.822
20
-90.2734
11
112.836
21
-90.2815
0
LINE
8
Black
10
112.836
20
-90.2815
11
112.84
21
-90.2858
0
LINE
8
Black
10
112.84
20
-90.2858
11
112.844
21
-90.2889
0
LINE
8
Black
10
112.844
20
-90.2889
11
113.298
21
-90.7429
0
LINE
8
Black
10
113.298
20
-90.7429
11
113.301
21
-90.7474
0
LINE
8
Black
10
113.301
20
-90.7474
11
113.306
21
-90.7509
0
LINE
8
Black
10
113.306
20
-90.7509
11
113.314
21
-90.7651
0
LINE
8
Black
10
113.314
20
-90.7651
11
113.323
21
-90.7785
0
LINE
8
Black
10
113.323
20
-90.7785
11
113.325
21
-90.7838
0
LINE
8
Black
10
113.325
20
-90.7838
11
113.327
21
-90.7885
0
LINE
8
Black
10
113.327
20
-90.7885
11
113.33
21
-90.8046
0
LINE
8
Black
10
113.33
20
-90.8046
11
113.334
21
-90.8204
0
LINE
8
Black
10
113.334
20
-90.8204
11
113.334
21
-90.8259
0
LINE
8
Black
10
113.334
20
-90.8259
11
113.335
21
-90.8313
0
LINE
8
Black
10
113.335
20
-90.8313
11
113.335
21
-90.9295
0
LINE
8
Black
10
113.335
20
-90.9295
11
113.589
21
-91.184
0
LINE
8
Black
10
113.589
20
-91.184
11
117.469
21
-87.3041
0
LINE
8
Black
10
117.469
20
-87.3041
11
117.469
21
-87.0538
0
LINE
8
Black
10
117.469
20
-87.0538
11
117.435
21
-87.0197
0
LINE
8
Black
10
117.435
20
-87.0197
11
117.255
21
-87.2
0
LINE
8
Black
10
117.255
20
-87.2
11
115.558
21
-85.503
0
LINE
8
Black
10
115.558
20
-85.503
11
116.095
21
-84.9656
0
LINE
8
Black
10
116.095
20
-84.9656
11
117.792
21
-86.6626
0
LINE
8
Black
10
106.726
20
-91.0804
11
106.772
21
-91.1066
0
LINE
8
Black
10
106.772
20
-91.1066
11
106.805
21
-91.1466
0
LINE
8
Black
10
106.805
20
-91.1466
11
106.823
21
-91.1958
0
LINE
8
Black
10
106.823
20
-91.1958
11
106.823
21
-91.2481
0
LINE
8
Black
10
106.823
20
-91.2481
11
106.805
21
-91.2972
0
LINE
8
Black
10
106.805
20
-91.2972
11
106.772
21
-91.3373
0
LINE
8
Black
10
106.772
20
-91.3373
11
106.726
21
-91.3634
0
LINE
8
Black
10
106.726
20
-91.3634
11
106.675
21
-91.3725
0
LINE
8
Black
10
106.675
20
-91.3725
11
106.623
21
-91.3634
0
LINE
8
Black
10
106.623
20
-91.3634
11
106.578
21
-91.3373
0
LINE
8
Black
10
106.578
20
-91.3373
11
106.544
21
-91.2972
0
LINE
8
Black
10
106.544
20
-91.2972
11
106.527
21
-91.2481
0
LINE
8
Black
10
106.527
20
-91.2481
11
106.527
21
-91.1958
0
LINE
8
Black
10
106.527
20
-91.1958
11
106.544
21
-91.1466
0
LINE
8
Black
10
106.544
20
-91.1466
11
106.578
21
-91.1066
0
LINE
8
Black
10
106.578
20
-91.1066
11
106.623
21
-91.0804
0
LINE
8
Black
10
106.623
20
-91.0804
11
106.675
21
-91.0714
0
LINE
8
Black
10
106.675
20
-91.0714
11
106.726
21
-91.0804
0
LINE
8
Black
10
108.648
20
-90.8494
11
108.694
21
-90.8756
0
LINE
8
Black
10
108.694
20
-90.8756
11
108.727
21
-90.9156
0
LINE
8
Black
10
108.727
20
-90.9156
11
108.745
21
-90.9648
0
LINE
8
Black
10
108.745
20
-90.9648
11
108.745
21
-91.0171
0
LINE
8
Black
10
108.745
20
-91.0171
11
108.727
21
-91.0662
0
LINE
8
Black
10
108.727
20
-91.0662
11
108.694
21
-91.1063
0
LINE
8
Black
10
108.694
20
-91.1063
11
108.648
21
-91.1324
0
LINE
8
Black
10
108.648
20
-91.1324
11
108.597
21
-91.1415
0
LINE
8
Black
10
108.597
20
-91.1415
11
108.545
21
-91.1324
0
LINE
8
Black
10
108.545
20
-91.1324
11
108.5
21
-91.1063
0
LINE
8
Black
10
108.5
20
-91.1063
11
108.466
21
-91.0662
0
LINE
8
Black
10
108.466
20
-91.0662
11
108.449
21
-91.0171
0
LINE
8
Black
10
108.449
20
-91.0171
11
108.449
21
-90.9648
0
LINE
8
Black
10
108.449
20
-90.9648
11
108.466
21
-90.9156
0
LINE
8
Black
10
108.466
20
-90.9156
11
108.5
21
-90.8756
0
LINE
8
Black
10
108.5
20
-90.8756
11
108.545
21
-90.8494
0
LINE
8
Black
10
108.545
20
-90.8494
11
108.597
21
-90.8403
0
LINE
8
Black
10
108.597
20
-90.8403
11
108.648
21
-90.8494
0
LINE
8
Black
10
106.302
20
-90.6562
11
106.347
21
-90.6823
0
LINE
8
Black
10
106.347
20
-90.6823
11
106.381
21
-90.7224
0
LINE
8
Black
10
106.381
20
-90.7224
11
106.399
21
-90.7715
0
LINE
8
Black
10
106.399
20
-90.7715
11
106.399
21
-90.8238
0
LINE
8
Black
10
106.399
20
-90.8238
11
106.381
21
-90.873
0
LINE
8
Black
10
106.381
20
-90.873
11
106.347
21
-90.913
0
LINE
8
Black
10
106.347
20
-90.913
11
106.302
21
-90.9392
0
LINE
8
Black
10
106.302
20
-90.9392
11
106.251
21
-90.9482
0
LINE
8
Black
10
106.251
20
-90.9482
11
106.199
21
-90.9392
0
LINE
8
Black
10
106.199
20
-90.9392
11
106.154
21
-90.913
0
LINE
8
Black
10
106.154
20
-90.913
11
106.12
21
-90.873
0
LINE
8
Black
10
106.12
20
-90.873
11
106.102
21
-90.8238
0
LINE
8
Black
10
106.102
20
-90.8238
11
106.102
21
-90.7715
0
LINE
8
Black
10
106.102
20
-90.7715
11
106.12
21
-90.7224
0
LINE
8
Black
10
106.12
20
-90.7224
11
106.154
21
-90.6823
0
LINE
8
Black
10
106.154
20
-90.6823
11
106.199
21
-90.6562
0
LINE
8
Black
10
106.199
20
-90.6562
11
106.251
21
-90.6471
0
LINE
8
Black
10
106.251
20
-90.6471
11
106.302
21
-90.6562
0
LINE
8
Black
10
114.2
20
-90.2547
11
113.663
21
-90.7921
0
LINE
8
Black
10
113.663
20
-90.7921
11
111.966
21
-89.0951
0
LINE
8
Black
10
111.966
20
-89.0951
11
112.146
21
-88.9148
0
LINE
8
Black
10
112.146
20
-88.9148
11
112.112
21
-88.8807
0
LINE
8
Black
10
112.112
20
-88.8807
11
111.296
21
-88.8807
0
LINE
8
Black
10
111.296
20
-88.8807
11
110.882
21
-89.2945
0
LINE
8
Black
10
110.882
20
-89.2945
11
110.901
21
-89.3469
0
LINE
8
Black
10
110.901
20
-89.3469
11
110.901
21
-89.4531
0
LINE
8
Black
10
110.901
20
-89.4531
11
110.865
21
-89.553
0
LINE
8
Black
10
110.865
20
-89.553
11
110.797
21
-89.6344
0
LINE
8
Black
10
110.797
20
-89.6344
11
110.705
21
-89.6875
0
LINE
8
Black
10
110.705
20
-89.6875
11
110.6
21
-89.706
0
LINE
8
Black
10
110.6
20
-89.706
11
110.495
21
-89.6875
0
LINE
8
Black
10
110.495
20
-89.6875
11
110.403
21
-89.6344
0
LINE
8
Black
10
110.403
20
-89.6344
11
110.335
21
-89.553
0
LINE
8
Black
10
110.335
20
-89.553
11
110.299
21
-89.4531
0
LINE
8
Black
10
110.299
20
-89.4531
11
110.299
21
-89.3469
0
LINE
8
Black
10
110.299
20
-89.3469
11
110.335
21
-89.247
0
LINE
8
Black
10
110.335
20
-89.247
11
110.403
21
-89.1656
0
LINE
8
Black
10
110.403
20
-89.1656
11
110.495
21
-89.1125
0
LINE
8
Black
10
110.495
20
-89.1125
11
110.6
21
-89.094
0
LINE
8
Black
10
110.6
20
-89.094
11
110.705
21
-89.1125
0
LINE
8
Black
10
110.705
20
-89.1125
11
110.709
21
-89.1147
0
LINE
8
Black
10
110.709
20
-89.1147
11
111.156
21
-88.6673
0
LINE
8
Black
10
111.156
20
-88.6673
11
111.16
21
-88.6641
0
LINE
8
Black
10
111.16
20
-88.6641
11
111.164
21
-88.6599
0
LINE
8
Black
10
111.164
20
-88.6599
11
111.178
21
-88.6517
0
LINE
8
Black
10
111.178
20
-88.6517
11
111.192
21
-88.6424
0
LINE
8
Black
10
111.192
20
-88.6424
11
111.197
21
-88.641
0
LINE
8
Black
10
111.197
20
-88.641
11
111.202
21
-88.6382
0
LINE
8
Black
10
111.202
20
-88.6382
11
111.218
21
-88.6354
0
LINE
8
Black
10
111.218
20
-88.6354
11
111.233
21
-88.6311
0
LINE
8
Black
10
111.233
20
-88.6311
11
111.239
21
-88.6316
0
LINE
8
Black
10
111.239
20
-88.6316
11
111.244
21
-88.6307
0
LINE
8
Black
10
111.244
20
-88.6307
11
112.164
21
-88.6307
0
LINE
8
Black
10
112.164
20
-88.6307
11
112.169
21
-88.6316
0
LINE
8
Black
10
112.169
20
-88.6316
11
112.174
21
-88.6311
0
LINE
8
Black
10
112.174
20
-88.6311
11
112.19
21
-88.6354
0
LINE
8
Black
10
112.19
20
-88.6354
11
112.206
21
-88.6382
0
LINE
8
Black
10
112.206
20
-88.6382
11
112.211
21
-88.641
0
LINE
8
Black
10
112.211
20
-88.641
11
112.216
21
-88.6424
0
LINE
8
Black
10
112.216
20
-88.6424
11
112.23
21
-88.6517
0
LINE
8
Black
10
112.23
20
-88.6517
11
112.244
21
-88.6599
0
LINE
8
Black
10
112.244
20
-88.6599
11
112.247
21
-88.6641
0
LINE
8
Black
10
112.247
20
-88.6641
11
112.252
21
-88.6673
0
LINE
8
Black
10
112.252
20
-88.6673
11
112.323
21
-88.738
0
LINE
8
Black
10
112.323
20
-88.738
11
112.503
21
-88.5577
0
LINE
8
Black
10
112.503
20
-88.5577
11
114.2
21
-90.2547
0
LINE
8
Black
10
108.224
20
-90.4252
11
108.269
21
-90.4513
0
LINE
8
Black
10
108.269
20
-90.4513
11
108.303
21
-90.4914
0
LINE
8
Black
10
108.303
20
-90.4914
11
108.321
21
-90.5405
0
LINE
8
Black
10
108.321
20
-90.5405
11
108.321
21
-90.5928
0
LINE
8
Black
10
108.321
20
-90.5928
11
108.303
21
-90.6419
0
LINE
8
Black
10
108.303
20
-90.6419
11
108.269
21
-90.682
0
LINE
8
Black
10
108.269
20
-90.682
11
108.224
21
-90.7081
0
LINE
8
Black
10
108.224
20
-90.7081
11
108.173
21
-90.7172
0
LINE
8
Black
10
108.173
20
-90.7172
11
108.121
21
-90.7081
0
LINE
8
Black
10
108.121
20
-90.7081
11
108.076
21
-90.682
0
LINE
8
Black
10
108.076
20
-90.682
11
108.042
21
-90.6419
0
LINE
8
Black
10
108.042
20
-90.6419
11
108.024
21
-90.5928
0
LINE
8
Black
10
108.024
20
-90.5928
11
108.024
21
-90.5405
0
LINE
8
Black
10
108.024
20
-90.5405
11
108.042
21
-90.4914
0
LINE
8
Black
10
108.042
20
-90.4914
11
108.076
21
-90.4513
0
LINE
8
Black
10
108.076
20
-90.4513
11
108.121
21
-90.4252
0
LINE
8
Black
10
108.121
20
-90.4252
11
108.173
21
-90.4161
0
LINE
8
Black
10
108.173
20
-90.4161
11
108.224
21
-90.4252
0
LINE
8
Black
10
105.878
20
-90.2319
11
105.923
21
-90.2581
0
LINE
8
Black
10
105.923
20
-90.2581
11
105.957
21
-90.2981
0
LINE
8
Black
10
105.957
20
-90.2981
11
105.975
21
-90.3473
0
LINE
8
Black
10
105.975
20
-90.3473
11
105.975
21
-90.3995
0
LINE
8
Black
10
105.975
20
-90.3995
11
105.957
21
-90.4487
0
LINE
8
Black
10
105.957
20
-90.4487
11
105.923
21
-90.4887
0
LINE
8
Black
10
105.923
20
-90.4887
11
105.878
21
-90.5149
0
LINE
8
Black
10
105.878
20
-90.5149
11
105.826
21
-90.524
0
LINE
8
Black
10
105.826
20
-90.524
11
105.775
21
-90.5149
0
LINE
8
Black
10
105.775
20
-90.5149
11
105.73
21
-90.4887
0
LINE
8
Black
10
105.73
20
-90.4887
11
105.696
21
-90.4487
0
LINE
8
Black
10
105.696
20
-90.4487
11
105.678
21
-90.3995
0
LINE
8
Black
10
105.678
20
-90.3995
11
105.678
21
-90.3473
0
LINE
8
Black
10
105.678
20
-90.3473
11
105.696
21
-90.2981
0
LINE
8
Black
10
105.696
20
-90.2981
11
105.73
21
-90.2581
0
LINE
8
Black
10
105.73
20
-90.2581
11
105.775
21
-90.2319
0
LINE
8
Black
10
105.775
20
-90.2319
11
105.826
21
-90.2228
0
LINE
8
Black
10
105.826
20
-90.2228
11
105.878
21
-90.2319
0
LINE
8
Black
10
107.8
20
-90.0009
11
107.845
21
-90.027
0
LINE
8
Black
10
107.845
20
-90.027
11
107.879
21
-90.0671
0
LINE
8
Black
10
107.879
20
-90.0671
11
107.897
21
-90.1162
0
LINE
8
Black
10
107.897
20
-90.1162
11
107.897
21
-90.1685
0
LINE
8
Black
10
107.897
20
-90.1685
11
107.879
21
-90.2177
0
LINE
8
Black
10
107.879
20
-90.2177
11
107.845
21
-90.2577
0
LINE
8
Black
10
107.845
20
-90.2577
11
107.8
21
-90.2839
0
LINE
8
Black
10
107.8
20
-90.2839
11
107.748
21
-90.293
0
LINE
8
Black
10
107.748
20
-90.293
11
107.697
21
-90.2839
0
LINE
8
Black
10
107.697
20
-90.2839
11
107.651
21
-90.2577
0
LINE
8
Black
10
107.651
20
-90.2577
11
107.618
21
-90.2177
0
LINE
8
Black
10
107.618
20
-90.2177
11
107.6
21
-90.1685
0
LINE
8
Black
10
107.6
20
-90.1685
11
107.6
21
-90.1162
0
LINE
8
Black
10
107.6
20
-90.1162
11
107.618
21
-90.0671
0
LINE
8
Black
10
107.618
20
-90.0671
11
107.651
21
-90.027
0
LINE
8
Black
10
107.651
20
-90.027
11
107.697
21
-90.0009
0
LINE
8
Black
10
107.697
20
-90.0009
11
107.748
21
-89.9918
0
LINE
8
Black
10
107.748
20
-89.9918
11
107.8
21
-90.0009
0
LINE
8
Black
10
109.34
20
-89.5288
11
108.703
21
-90.1652
0
LINE
8
Black
10
108.703
20
-90.1652
11
107.855
21
-89.3166
0
LINE
8
Black
10
107.855
20
-89.3166
11
108.491
21
-88.6802
0
LINE
8
Black
10
108.491
20
-88.6802
11
109.34
21
-89.5288
0
LINE
8
Black
10
112.875
20
-87.5283
11
112.886
21
-87.5293
0
LINE
8
Black
10
112.886
20
-87.5293
11
112.896
21
-87.5339
0
LINE
8
Black
10
112.896
20
-87.5339
11
112.907
21
-87.5367
0
LINE
8
Black
10
112.907
20
-87.5367
11
112.916
21
-87.543
0
LINE
8
Black
10
112.916
20
-87.543
11
112.926
21
-87.5476
0
LINE
8
Black
10
112.926
20
-87.5476
11
112.933
21
-87.5553
0
LINE
8
Black
10
112.933
20
-87.5553
11
112.942
21
-87.5616
0
LINE
8
Black
10
112.942
20
-87.5616
11
113.221
21
-87.84
0
LINE
8
Black
10
113.221
20
-87.84
11
113.401
21
-87.6597
0
LINE
8
Black
10
113.401
20
-87.6597
11
115.098
21
-89.3567
0
LINE
8
Black
10
115.098
20
-89.3567
11
114.561
21
-89.8941
0
LINE
8
Black
10
114.561
20
-89.8941
11
112.864
21
-88.1971
0
LINE
8
Black
10
112.864
20
-88.1971
11
113.044
21
-88.0167
0
LINE
8
Black
10
113.044
20
-88.0167
11
112.854
21
-87.8268
0
LINE
8
Black
10
112.854
20
-87.8268
11
112.797
21
-87.8836
0
LINE
8
Black
10
112.797
20
-87.8836
11
112.793
21
-87.8867
0
LINE
8
Black
10
112.793
20
-87.8867
11
112.789
21
-87.891
0
LINE
8
Black
10
112.789
20
-87.891
11
112.775
21
-87.8991
0
LINE
8
Black
10
112.775
20
-87.8991
11
112.762
21
-87.9085
0
LINE
8
Black
10
112.762
20
-87.9085
11
112.756
21
-87.9099
0
LINE
8
Black
10
112.756
20
-87.9099
11
112.752
21
-87.9127
0
LINE
8
Black
10
112.752
20
-87.9127
11
112.735
21
-87.9155
0
LINE
8
Black
10
112.735
20
-87.9155
11
112.72
21
-87.9197
0
LINE
8
Black
10
112.72
20
-87.9197
11
112.714
21
-87.9192
0
LINE
8
Black
10
112.714
20
-87.9192
11
112.709
21
-87.9202
0
LINE
8
Black
10
112.709
20
-87.9202
11
111.957
21
-87.9202
0
LINE
8
Black
10
111.957
20
-87.9202
11
111.882
21
-87.9945
0
LINE
8
Black
10
111.882
20
-87.9945
11
111.901
21
-88.0469
0
LINE
8
Black
10
111.901
20
-88.0469
11
111.901
21
-88.1531
0
LINE
8
Black
10
111.901
20
-88.1531
11
111.865
21
-88.253
0
LINE
8
Black
10
111.865
20
-88.253
11
111.797
21
-88.3344
0
LINE
8
Black
10
111.797
20
-88.3344
11
111.705
21
-88.3875
0
LINE
8
Black
10
111.705
20
-88.3875
11
111.6
21
-88.406
0
LINE
8
Black
10
111.6
20
-88.406
11
111.495
21
-88.3875
0
LINE
8
Black
10
111.495
20
-88.3875
11
111.403
21
-88.3344
0
LINE
8
Black
10
111.403
20
-88.3344
11
111.335
21
-88.253
0
LINE
8
Black
10
111.335
20
-88.253
11
111.299
21
-88.1531
0
LINE
8
Black
10
111.299
20
-88.1531
11
111.299
21
-88.0469
0
LINE
8
Black
10
111.299
20
-88.0469
11
111.335
21
-87.947
0
LINE
8
Black
10
111.335
20
-87.947
11
111.403
21
-87.8656
0
LINE
8
Black
10
111.403
20
-87.8656
11
111.495
21
-87.8125
0
LINE
8
Black
10
111.495
20
-87.8125
11
111.6
21
-87.794
0
LINE
8
Black
10
111.6
20
-87.794
11
111.705
21
-87.8125
0
LINE
8
Black
10
111.705
20
-87.8125
11
111.709
21
-87.8147
0
LINE
8
Black
10
111.709
20
-87.8147
11
111.816
21
-87.7068
0
LINE
8
Black
10
111.816
20
-87.7068
11
111.821
21
-87.7037
0
LINE
8
Black
10
111.821
20
-87.7037
11
111.824
21
-87.6994
0
LINE
8
Black
10
111.824
20
-87.6994
11
111.839
21
-87.6913
0
LINE
8
Black
10
111.839
20
-87.6913
11
111.852
21
-87.6819
0
LINE
8
Black
10
111.852
20
-87.6819
11
111.857
21
-87.6805
0
LINE
8
Black
10
111.857
20
-87.6805
11
111.862
21
-87.6777
0
LINE
8
Black
10
111.862
20
-87.6777
11
111.878
21
-87.6749
0
LINE
8
Black
10
111.878
20
-87.6749
11
111.894
21
-87.6707
0
LINE
8
Black
10
111.894
20
-87.6707
11
111.899
21
-87.6712
0
LINE
8
Black
10
111.899
20
-87.6712
11
111.905
21
-87.6702
0
LINE
8
Black
10
111.905
20
-87.6702
11
112.657
21
-87.6702
0
LINE
8
Black
10
112.657
20
-87.6702
11
112.766
21
-87.5616
0
LINE
8
Black
10
112.766
20
-87.5616
11
112.775
21
-87.5553
0
LINE
8
Black
10
112.775
20
-87.5553
11
112.782
21
-87.5476
0
LINE
8
Black
10
112.782
20
-87.5476
11
112.792
21
-87.543
0
LINE
8
Black
10
112.792
20
-87.543
11
112.801
21
-87.5367
0
LINE
8
Black
10
112.801
20
-87.5367
11
112.812
21
-87.5339
0
LINE
8
Black
10
112.812
20
-87.5339
11
112.822
21
-87.5293
0
LINE
8
Black
10
112.822
20
-87.5293
11
112.832
21
-87.5283
0
LINE
8
Black
10
112.832
20
-87.5283
11
112.843
21
-87.5255
0
LINE
8
Black
10
112.843
20
-87.5255
11
112.854
21
-87.5264
0
LINE
8
Black
10
112.854
20
-87.5264
11
112.865
21
-87.5255
0
LINE
8
Black
10
112.865
20
-87.5255
11
112.875
21
-87.5283
0
LINE
8
Black
10
107.376
20
-89.5766
11
107.421
21
-89.6028
0
LINE
8
Black
10
107.421
20
-89.6028
11
107.454
21
-89.6428
0
LINE
8
Black
10
107.454
20
-89.6428
11
107.472
21
-89.692
0
LINE
8
Black
10
107.472
20
-89.692
11
107.472
21
-89.7443
0
LINE
8
Black
10
107.472
20
-89.7443
11
107.454
21
-89.7934
0
LINE
8
Black
10
107.454
20
-89.7934
11
107.421
21
-89.8335
0
LINE
8
Black
10
107.421
20
-89.8335
11
107.376
21
-89.8596
0
LINE
8
Black
10
107.376
20
-89.8596
11
107.324
21
-89.8687
0
LINE
8
Black
10
107.324
20
-89.8687
11
107.273
21
-89.8596
0
LINE
8
Black
10
107.273
20
-89.8596
11
107.227
21
-89.8335
0
LINE
8
Black
10
107.227
20
-89.8335
11
107.194
21
-89.7934
0
LINE
8
Black
10
107.194
20
-89.7934
11
107.176
21
-89.7443
0
LINE
8
Black
10
107.176
20
-89.7443
11
107.176
21
-89.692
0
LINE
8
Black
10
107.176
20
-89.692
11
107.194
21
-89.6428
0
LINE
8
Black
10
107.194
20
-89.6428
11
107.227
21
-89.6028
0
LINE
8
Black
10
107.227
20
-89.6028
11
107.273
21
-89.5766
0
LINE
8
Black
10
107.273
20
-89.5766
11
107.324
21
-89.5676
0
LINE
8
Black
10
107.324
20
-89.5676
11
107.376
21
-89.5766
0
LINE
8
Black
10
106.951
20
-89.1524
11
106.997
21
-89.1785
0
LINE
8
Black
10
106.997
20
-89.1785
11
107.03
21
-89.2186
0
LINE
8
Black
10
107.03
20
-89.2186
11
107.048
21
-89.2677
0
LINE
8
Black
10
107.048
20
-89.2677
11
107.048
21
-89.32
0
LINE
8
Black
10
107.048
20
-89.32
11
107.03
21
-89.3691
0
LINE
8
Black
10
107.03
20
-89.3691
11
106.997
21
-89.4092
0
LINE
8
Black
10
106.997
20
-89.4092
11
106.951
21
-89.4354
0
LINE
8
Black
10
106.951
20
-89.4354
11
106.9
21
-89.4444
0
LINE
8
Black
10
106.9
20
-89.4444
11
106.848
21
-89.4354
0
LINE
8
Black
10
106.848
20
-89.4354
11
106.803
21
-89.4092
0
LINE
8
Black
10
106.803
20
-89.4092
11
106.769
21
-89.3691
0
LINE
8
Black
10
106.769
20
-89.3691
11
106.751
21
-89.32
0
LINE
8
Black
10
106.751
20
-89.32
11
106.751
21
-89.2677
0
LINE
8
Black
10
106.751
20
-89.2677
11
106.769
21
-89.2186
0
LINE
8
Black
10
106.769
20
-89.2186
11
106.803
21
-89.1785
0
LINE
8
Black
10
106.803
20
-89.1785
11
106.848
21
-89.1524
0
LINE
8
Black
10
106.848
20
-89.1524
11
106.9
21
-89.1433
0
LINE
8
Black
10
106.9
20
-89.1433
11
106.951
21
-89.1524
0
LINE
8
Black
10
100.051
20
-89.0085
11
100.097
21
-89.0347
0
LINE
8
Black
10
100.097
20
-89.0347
11
100.13
21
-89.0747
0
LINE
8
Black
10
100.13
20
-89.0747
11
100.148
21
-89.1239
0
LINE
8
Black
10
100.148
20
-89.1239
11
100.148
21
-89.1761
0
LINE
8
Black
10
100.148
20
-89.1761
11
100.13
21
-89.2253
0
LINE
8
Black
10
100.13
20
-89.2253
11
100.097
21
-89.2653
0
LINE
8
Black
10
100.097
20
-89.2653
11
100.051
21
-89.2915
0
LINE
8
Black
10
100.051
20
-89.2915
11
100
21
-89.3006
0
LINE
8
Black
10
100
20
-89.3006
11
99.9485
21
-89.2915
0
LINE
8
Black
10
99.9485
20
-89.2915
11
99.9032
21
-89.2653
0
LINE
8
Black
10
99.9032
20
-89.2653
11
99.8696
21
-89.2253
0
LINE
8
Black
10
99.8696
20
-89.2253
11
99.8517
21
-89.1761
0
LINE
8
Black
10
99.8517
20
-89.1761
11
99.8517
21
-89.1239
0
LINE
8
Black
10
99.8517
20
-89.1239
11
99.8696
21
-89.0747
0
LINE
8
Black
10
99.8696
20
-89.0747
11
99.9032
21
-89.0347
0
LINE
8
Black
10
99.9032
20
-89.0347
11
99.9485
21
-89.0085
0
LINE
8
Black
10
99.9485
20
-89.0085
11
100
21
-88.9994
0
LINE
8
Black
10
100
20
-88.9994
11
100.051
21
-89.0085
0
LINE
8
Black
10
98.8515
20
-89.0085
11
98.8968
21
-89.0347
0
LINE
8
Black
10
98.8968
20
-89.0347
11
98.9304
21
-89.0747
0
LINE
8
Black
10
98.9304
20
-89.0747
11
98.9483
21
-89.1239
0
LINE
8
Black
10
98.9483
20
-89.1239
11
98.9483
21
-89.1761
0
LINE
8
Black
10
98.9483
20
-89.1761
11
98.9304
21
-89.2253
0
LINE
8
Black
10
98.9304
20
-89.2253
11
98.8968
21
-89.2653
0
LINE
8
Black
10
98.8968
20
-89.2653
11
98.8515
21
-89.2915
0
LINE
8
Black
10
98.8515
20
-89.2915
11
98.8
21
-89.3006
0
LINE
8
Black
10
98.8
20
-89.3006
11
98.7485
21
-89.2915
0
LINE
8
Black
10
98.7485
20
-89.2915
11
98.7032
21
-89.2653
0
LINE
8
Black
10
98.7032
20
-89.2653
11
98.6696
21
-89.2253
0
LINE
8
Black
10
98.6696
20
-89.2253
11
98.6517
21
-89.1761
0
LINE
8
Black
10
98.6517
20
-89.1761
11
98.6517
21
-89.1239
0
LINE
8
Black
10
98.6517
20
-89.1239
11
98.6696
21
-89.0747
0
LINE
8
Black
10
98.6696
20
-89.0747
11
98.7032
21
-89.0347
0
LINE
8
Black
10
98.7032
20
-89.0347
11
98.7485
21
-89.0085
0
LINE
8
Black
10
98.7485
20
-89.0085
11
98.8
21
-88.9994
0
LINE
8
Black
10
98.8
20
-88.9994
11
98.8515
21
-89.0085
0
LINE
8
Black
10
99.4515
20
-89.0085
11
99.4968
21
-89.0347
0
LINE
8
Black
10
99.4968
20
-89.0347
11
99.5304
21
-89.0747
0
LINE
8
Black
10
99.5304
20
-89.0747
11
99.5483
21
-89.1239
0
LINE
8
Black
10
99.5483
20
-89.1239
11
99.5483
21
-89.1761
0
LINE
8
Black
10
99.5483
20
-89.1761
11
99.5304
21
-89.2253
0
LINE
8
Black
10
99.5304
20
-89.2253
11
99.4968
21
-89.2653
0
LINE
8
Black
10
99.4968
20
-89.2653
11
99.4515
21
-89.2915
0
LINE
8
Black
10
99.4515
20
-89.2915
11
99.4
21
-89.3006
0
LINE
8
Black
10
99.4
20
-89.3006
11
99.3485
21
-89.2915
0
LINE
8
Black
10
99.3485
20
-89.2915
11
99.3032
21
-89.2653
0
LINE
8
Black
10
99.3032
20
-89.2653
11
99.2696
21
-89.2253
0
LINE
8
Black
10
99.2696
20
-89.2253
11
99.2517
21
-89.1761
0
LINE
8
Black
10
99.2517
20
-89.1761
11
99.2517
21
-89.1239
0
LINE
8
Black
10
99.2517
20
-89.1239
11
99.2696
21
-89.0747
0
LINE
8
Black
10
99.2696
20
-89.0747
11
99.3032
21
-89.0347
0
LINE
8
Black
10
99.3032
20
-89.0347
11
99.3485
21
-89.0085
0
LINE
8
Black
10
99.3485
20
-89.0085
11
99.4
21
-88.9994
0
LINE
8
Black
10
99.4
20
-88.9994
11
99.4515
21
-89.0085
0
LINE
8
Black
10
100.651
20
-89.0085
11
100.697
21
-89.0347
0
LINE
8
Black
10
100.697
20
-89.0347
11
100.73
21
-89.0747
0
LINE
8
Black
10
100.73
20
-89.0747
11
100.748
21
-89.1239
0
LINE
8
Black
10
100.748
20
-89.1239
11
100.748
21
-89.1761
0
LINE
8
Black
10
100.748
20
-89.1761
11
100.73
21
-89.2253
0
LINE
8
Black
10
100.73
20
-89.2253
11
100.697
21
-89.2653
0
LINE
8
Black
10
100.697
20
-89.2653
11
100.651
21
-89.2915
0
LINE
8
Black
10
100.651
20
-89.2915
11
100.6
21
-89.3006
0
LINE
8
Black
10
100.6
20
-89.3006
11
100.549
21
-89.2915
0
LINE
8
Black
10
100.549
20
-89.2915
11
100.503
21
-89.2653
0
LINE
8
Black
10
100.503
20
-89.2653
11
100.47
21
-89.2253
0
LINE
8
Black
10
100.47
20
-89.2253
11
100.452
21
-89.1761
0
LINE
8
Black
10
100.452
20
-89.1761
11
100.452
21
-89.1239
0
LINE
8
Black
10
100.452
20
-89.1239
11
100.47
21
-89.0747
0
LINE
8
Black
10
100.47
20
-89.0747
11
100.503
21
-89.0347
0
LINE
8
Black
10
100.503
20
-89.0347
11
100.549
21
-89.0085
0
LINE
8
Black
10
100.549
20
-89.0085
11
100.6
21
-88.9994
0
LINE
8
Black
10
100.6
20
-88.9994
11
100.651
21
-89.0085
0
LINE
8
Black
10
101.251
20
-89.0085
11
101.297
21
-89.0347
0
LINE
8
Black
10
101.297
20
-89.0347
11
101.33
21
-89.0747
0
LINE
8
Black
10
101.33
20
-89.0747
11
101.348
21
-89.1239
0
LINE
8
Black
10
101.348
20
-89.1239
11
101.348
21
-89.1761
0
LINE
8
Black
10
101.348
20
-89.1761
11
101.33
21
-89.2253
0
LINE
8
Black
10
101.33
20
-89.2253
11
101.297
21
-89.2653
0
LINE
8
Black
10
101.297
20
-89.2653
11
101.251
21
-89.2915
0
LINE
8
Black
10
101.251
20
-89.2915
11
101.2
21
-89.3006
0
LINE
8
Black
10
101.2
20
-89.3006
11
101.149
21
-89.2915
0
LINE
8
Black
10
101.149
20
-89.2915
11
101.103
21
-89.2653
0
LINE
8
Black
10
101.103
20
-89.2653
11
101.07
21
-89.2253
0
LINE
8
Black
10
101.07
20
-89.2253
11
101.052
21
-89.1761
0
LINE
8
Black
10
101.052
20
-89.1761
11
101.052
21
-89.1239
0
LINE
8
Black
10
101.052
20
-89.1239
11
101.07
21
-89.0747
0
LINE
8
Black
10
101.07
20
-89.0747
11
101.103
21
-89.0347
0
LINE
8
Black
10
101.103
20
-89.0347
11
101.149
21
-89.0085
0
LINE
8
Black
10
101.149
20
-89.0085
11
101.2
21
-88.9994
0
LINE
8
Black
10
101.2
20
-88.9994
11
101.251
21
-89.0085
0
LINE
8
Black
10
115.996
20
-88.4587
11
115.459
21
-88.9961
0
LINE
8
Black
10
115.459
20
-88.9961
11
113.762
21
-87.299
0
LINE
8
Black
10
113.762
20
-87.299
11
114.299
21
-86.7616
0
LINE
8
Black
10
114.299
20
-86.7616
11
115.996
21
-88.4587
0
LINE
8
Black
10
116.894
20
-87.5607
11
116.357
21
-88.0981
0
LINE
8
Black
10
116.357
20
-88.0981
11
114.66
21
-86.401
0
LINE
8
Black
10
114.66
20
-86.401
11
115.197
21
-85.8636
0
LINE
8
Black
10
115.197
20
-85.8636
11
116.894
21
-87.5607
0
LINE
8
Black
10
110.005
20
-84.0125
11
110.097
21
-84.0656
0
LINE
8
Black
10
110.097
20
-84.0656
11
110.165
21
-84.147
0
LINE
8
Black
10
110.165
20
-84.147
11
110.201
21
-84.2469
0
LINE
8
Black
10
110.201
20
-84.2469
11
110.201
21
-84.3531
0
LINE
8
Black
10
110.201
20
-84.3531
11
110.165
21
-84.453
0
LINE
8
Black
10
110.165
20
-84.453
11
110.097
21
-84.5344
0
LINE
8
Black
10
110.097
20
-84.5344
11
110.005
21
-84.5875
0
LINE
8
Black
10
110.005
20
-84.5875
11
109.9
21
-84.606
0
LINE
8
Black
10
109.9
20
-84.606
11
109.795
21
-84.5875
0
LINE
8
Black
10
109.795
20
-84.5875
11
109.791
21
-84.5853
0
LINE
8
Black
10
109.791
20
-84.5853
11
109.684
21
-84.6932
0
LINE
8
Black
10
109.684
20
-84.6932
11
109.531
21
-84.8459
0
LINE
8
Black
10
109.531
20
-84.8459
11
109.531
21
-85.9462
0
LINE
8
Black
10
109.531
20
-85.9462
11
109.565
21
-85.9803
0
LINE
8
Black
10
109.565
20
-85.9803
11
109.745
21
-85.8
0
LINE
8
Black
10
109.745
20
-85.8
11
111.442
21
-87.497
0
LINE
8
Black
10
111.442
20
-87.497
11
110.905
21
-88.0344
0
LINE
8
Black
10
110.905
20
-88.0344
11
109.208
21
-86.3374
0
LINE
8
Black
10
109.208
20
-86.3374
11
109.388
21
-86.1571
0
LINE
8
Black
10
109.388
20
-86.1571
11
109.317
21
-86.0863
0
LINE
8
Black
10
109.317
20
-86.0863
11
109.314
21
-86.0818
0
LINE
8
Black
10
109.314
20
-86.0818
11
109.31
21
-86.0783
0
LINE
8
Black
10
109.31
20
-86.0783
11
109.302
21
-86.0642
0
LINE
8
Black
10
109.302
20
-86.0642
11
109.293
21
-86.0508
0
LINE
8
Black
10
109.293
20
-86.0508
11
109.291
21
-86.0455
0
LINE
8
Black
10
109.291
20
-86.0455
11
109.288
21
-86.0407
0
LINE
8
Black
10
109.288
20
-86.0407
11
109.286
21
-86.0246
0
LINE
8
Black
10
109.286
20
-86.0246
11
109.281
21
-86.0088
0
LINE
8
Black
10
109.281
20
-86.0088
11
109.282
21
-86.0034
0
LINE
8
Black
10
109.282
20
-86.0034
11
109.281
21
-85.998
0
LINE
8
Black
10
109.281
20
-85.998
11
109.281
21
-84.7941
0
LINE
8
Black
10
109.281
20
-84.7941
11
109.282
21
-84.7887
0
LINE
8
Black
10
109.282
20
-84.7887
11
109.281
21
-84.7832
0
LINE
8
Black
10
109.281
20
-84.7832
11
109.286
21
-84.7675
0
LINE
8
Black
10
109.286
20
-84.7675
11
109.288
21
-84.7514
0
LINE
8
Black
10
109.288
20
-84.7514
11
109.291
21
-84.7466
0
LINE
8
Black
10
109.291
20
-84.7466
11
109.293
21
-84.7413
0
LINE
8
Black
10
109.293
20
-84.7413
11
109.302
21
-84.7279
0
LINE
8
Black
10
109.302
20
-84.7279
11
109.31
21
-84.7138
0
LINE
8
Black
10
109.31
20
-84.7138
11
109.314
21
-84.7103
0
LINE
8
Black
10
109.314
20
-84.7103
11
109.317
21
-84.7058
0
LINE
8
Black
10
109.317
20
-84.7058
11
109.507
21
-84.5164
0
LINE
8
Black
10
109.507
20
-84.5164
11
109.618
21
-84.4055
0
LINE
8
Black
10
109.618
20
-84.4055
11
109.599
21
-84.3531
0
LINE
8
Black
10
109.599
20
-84.3531
11
109.599
21
-84.2469
0
LINE
8
Black
10
109.599
20
-84.2469
11
109.635
21
-84.147
0
LINE
8
Black
10
109.635
20
-84.147
11
109.703
21
-84.0656
0
LINE
8
Black
10
109.703
20
-84.0656
11
109.795
21
-84.0125
0
LINE
8
Black
10
109.795
20
-84.0125
11
109.9
21
-83.994
0
LINE
8
Black
10
109.9
20
-83.994
11
110.005
21
-84.0125
0
LINE
8
Black
10
100.651
20
-87.7085
11
100.697
21
-87.7347
0
LINE
8
Black
10
100.697
20
-87.7347
11
100.73
21
-87.7747
0
LINE
8
Black
10
100.73
20
-87.7747
11
100.748
21
-87.8239
0
LINE
8
Black
10
100.748
20
-87.8239
11
100.748
21
-87.8761
0
LINE
8
Black
10
100.748
20
-87.8761
11
100.73
21
-87.9253
0
LINE
8
Black
10
100.73
20
-87.9253
11
100.697
21
-87.9653
0
LINE
8
Black
10
100.697
20
-87.9653
11
100.651
21
-87.9915
0
LINE
8
Black
10
100.651
20
-87.9915
11
100.6
21
-88.0006
0
LINE
8
Black
10
100.6
20
-88.0006
11
100.548
21
-87.9915
0
LINE
8
Black
10
100.548
20
-87.9915
11
100.503
21
-87.9653
0
LINE
8
Black
10
100.503
20
-87.9653
11
100.47
21
-87.9253
0
LINE
8
Black
10
100.47
20
-87.9253
11
100.452
21
-87.8761
0
LINE
8
Black
10
100.452
20
-87.8761
11
100.452
21
-87.8239
0
LINE
8
Black
10
100.452
20
-87.8239
11
100.47
21
-87.7747
0
LINE
8
Black
10
100.47
20
-87.7747
11
100.503
21
-87.7347
0
LINE
8
Black
10
100.503
20
-87.7347
11
100.548
21
-87.7085
0
LINE
8
Black
10
100.548
20
-87.7085
11
100.6
21
-87.6994
0
LINE
8
Black
10
100.6
20
-87.6994
11
100.651
21
-87.7085
0
LINE
8
Black
10
98.8515
20
-87.7085
11
98.8968
21
-87.7347
0
LINE
8
Black
10
98.8968
20
-87.7347
11
98.9304
21
-87.7747
0
LINE
8
Black
10
98.9304
20
-87.7747
11
98.9483
21
-87.8239
0
LINE
8
Black
10
98.9483
20
-87.8239
11
98.9483
21
-87.8761
0
LINE
8
Black
10
98.9483
20
-87.8761
11
98.9304
21
-87.9253
0
LINE
8
Black
10
98.9304
20
-87.9253
11
98.8968
21
-87.9653
0
LINE
8
Black
10
98.8968
20
-87.9653
11
98.8515
21
-87.9915
0
LINE
8
Black
10
98.8515
20
-87.9915
11
98.8
21
-88.0006
0
LINE
8
Black
10
98.8
20
-88.0006
11
98.7485
21
-87.9915
0
LINE
8
Black
10
98.7485
20
-87.9915
11
98.7032
21
-87.9653
0
LINE
8
Black
10
98.7032
20
-87.9653
11
98.6696
21
-87.9253
0
LINE
8
Black
10
98.6696
20
-87.9253
11
98.6517
21
-87.8761
0
LINE
8
Black
10
98.6517
20
-87.8761
11
98.6517
21
-87.8239
0
LINE
8
Black
10
98.6517
20
-87.8239
11
98.6696
21
-87.7747
0
LINE
8
Black
10
98.6696
20
-87.7747
11
98.7032
21
-87.7347
0
LINE
8
Black
10
98.7032
20
-87.7347
11
98.7485
21
-87.7085
0
LINE
8
Black
10
98.7485
20
-87.7085
11
98.8
21
-87.6994
0
LINE
8
Black
10
98.8
20
-87.6994
11
98.8515
21
-87.7085
0
LINE
8
Black
10
100.051
20
-87.7085
11
100.097
21
-87.7347
0
LINE
8
Black
10
100.097
20
-87.7347
11
100.13
21
-87.7747
0
LINE
8
Black
10
100.13
20
-87.7747
11
100.148
21
-87.8239
0
LINE
8
Black
10
100.148
20
-87.8239
11
100.148
21
-87.8761
0
LINE
8
Black
10
100.148
20
-87.8761
11
100.13
21
-87.9253
0
LINE
8
Black
10
100.13
20
-87.9253
11
100.097
21
-87.9653
0
LINE
8
Black
10
100.097
20
-87.9653
11
100.051
21
-87.9915
0
LINE
8
Black
10
100.051
20
-87.9915
11
100
21
-88.0006
0
LINE
8
Black
10
100
20
-88.0006
11
99.9485
21
-87.9915
0
LINE
8
Black
10
99.9485
20
-87.9915
11
99.9032
21
-87.9653
0
LINE
8
Black
10
99.9032
20
-87.9653
11
99.8696
21
-87.9253
0
LINE
8
Black
10
99.8696
20
-87.9253
11
99.8517
21
-87.8761
0
LINE
8
Black
10
99.8517
20
-87.8761
11
99.8517
21
-87.8239
0
LINE
8
Black
10
99.8517
20
-87.8239
11
99.8696
21
-87.7747
0
LINE
8
Black
10
99.8696
20
-87.7747
11
99.9032
21
-87.7347
0
LINE
8
Black
10
99.9032
20
-87.7347
11
99.9485
21
-87.7085
0
LINE
8
Black
10
99.9485
20
-87.7085
11
100
21
-87.6994
0
LINE
8
Black
10
100
20
-87.6994
11
100.051
21
-87.7085
0
LINE
8
Black
10
99.4515
20
-87.7085
11
99.4968
21
-87.7347
0
LINE
8
Black
10
99.4968
20
-87.7347
11
99.5304
21
-87.7747
0
LINE
8
Black
10
99.5304
20
-87.7747
11
99.5483
21
-87.8239
0
LINE
8
Black
10
99.5483
20
-87.8239
11
99.5483
21
-87.8761
0
LINE
8
Black
10
99.5483
20
-87.8761
11
99.5304
21
-87.9253
0
LINE
8
Black
10
99.5304
20
-87.9253
11
99.4968
21
-87.9653
0
LINE
8
Black
10
99.4968
20
-87.9653
11
99.4515
21
-87.9915
0
LINE
8
Black
10
99.4515
20
-87.9915
11
99.4
21
-88.0006
0
LINE
8
Black
10
99.4
20
-88.0006
11
99.3485
21
-87.9915
0
LINE
8
Black
10
99.3485
20
-87.9915
11
99.3032
21
-87.9653
0
LINE
8
Black
10
99.3032
20
-87.9653
11
99.2696
21
-87.9253
0
LINE
8
Black
10
99.2696
20
-87.9253
11
99.2517
21
-87.8761
0
LINE
8
Black
10
99.2517
20
-87.8761
11
99.2517
21
-87.8239
0
LINE
8
Black
10
99.2517
20
-87.8239
11
99.2696
21
-87.7747
0
LINE
8
Black
10
99.2696
20
-87.7747
11
99.3032
21
-87.7347
0
LINE
8
Black
10
99.3032
20
-87.7347
11
99.3485
21
-87.7085
0
LINE
8
Black
10
99.3485
20
-87.7085
11
99.4
21
-87.6994
0
LINE
8
Black
10
99.4
20
-87.6994
11
99.4515
21
-87.7085
0
LINE
8
Black
10
101.251
20
-87.7085
11
101.297
21
-87.7347
0
LINE
8
Black
10
101.297
20
-87.7347
11
101.33
21
-87.7747
0
LINE
8
Black
10
101.33
20
-87.7747
11
101.348
21
-87.8239
0
LINE
8
Black
10
101.348
20
-87.8239
11
101.348
21
-87.8761
0
LINE
8
Black
10
101.348
20
-87.8761
11
101.33
21
-87.9253
0
LINE
8
Black
10
101.33
20
-87.9253
11
101.297
21
-87.9653
0
LINE
8
Black
10
101.297
20
-87.9653
11
101.251
21
-87.9915
0
LINE
8
Black
10
101.251
20
-87.9915
11
101.2
21
-88.0006
0
LINE
8
Black
10
101.2
20
-88.0006
11
101.148
21
-87.9915
0
LINE
8
Black
10
101.148
20
-87.9915
11
101.103
21
-87.9653
0
LINE
8
Black
10
101.103
20
-87.9653
11
101.07
21
-87.9253
0
LINE
8
Black
10
101.07
20
-87.9253
11
101.052
21
-87.8761
0
LINE
8
Black
10
101.052
20
-87.8761
11
101.052
21
-87.8239
0
LINE
8
Black
10
101.052
20
-87.8239
11
101.07
21
-87.7747
0
LINE
8
Black
10
101.07
20
-87.7747
11
101.103
21
-87.7347
0
LINE
8
Black
10
101.103
20
-87.7347
11
101.148
21
-87.7085
0
LINE
8
Black
10
101.148
20
-87.7085
11
101.2
21
-87.6994
0
LINE
8
Black
10
101.2
20
-87.6994
11
101.251
21
-87.7085
0
LINE
8
Black
10
108.225
20
-85.3233
11
108.225
21
-87.3242
0
LINE
8
Black
10
108.225
20
-87.3242
11
108.297
21
-87.3656
0
LINE
8
Black
10
108.297
20
-87.3656
11
108.365
21
-87.447
0
LINE
8
Black
10
108.365
20
-87.447
11
108.401
21
-87.5469
0
LINE
8
Black
10
108.401
20
-87.5469
11
108.401
21
-87.6531
0
LINE
8
Black
10
108.401
20
-87.6531
11
108.365
21
-87.753
0
LINE
8
Black
10
108.365
20
-87.753
11
108.297
21
-87.8344
0
LINE
8
Black
10
108.297
20
-87.8344
11
108.205
21
-87.8875
0
LINE
8
Black
10
108.205
20
-87.8875
11
108.1
21
-87.906
0
LINE
8
Black
10
108.1
20
-87.906
11
107.995
21
-87.8875
0
LINE
8
Black
10
107.995
20
-87.8875
11
107.903
21
-87.8344
0
LINE
8
Black
10
107.903
20
-87.8344
11
107.835
21
-87.753
0
LINE
8
Black
10
107.835
20
-87.753
11
107.799
21
-87.6531
0
LINE
8
Black
10
107.799
20
-87.6531
11
107.799
21
-87.5469
0
LINE
8
Black
10
107.799
20
-87.5469
11
107.835
21
-87.447
0
LINE
8
Black
10
107.835
20
-87.447
11
107.903
21
-87.3656
0
LINE
8
Black
10
107.903
20
-87.3656
11
107.975
21
-87.3242
0
LINE
8
Black
10
107.975
20
-87.3242
11
107.975
21
-85.2715
0
LINE
8
Black
10
107.975
20
-85.2715
11
107.976
21
-85.2661
0
LINE
8
Black
10
107.976
20
-85.2661
11
107.975
21
-85.2606
0
LINE
8
Black
10
107.975
20
-85.2606
11
107.98
21
-85.2448
0
LINE
8
Black
10
107.98
20
-85.2448
11
107.983
21
-85.2287
0
LINE
8
Black
10
107.983
20
-85.2287
11
107.985
21
-85.224
0
LINE
8
Black
10
107.985
20
-85.224
11
107.987
21
-85.2187
0
LINE
8
Black
10
107.987
20
-85.2187
11
107.996
21
-85.2053
0
LINE
8
Black
10
107.996
20
-85.2053
11
108.004
21
-85.1911
0
LINE
8
Black
10
108.004
20
-85.1911
11
108.008
21
-85.1876
0
LINE
8
Black
10
108.008
20
-85.1876
11
108.012
21
-85.1831
0
LINE
8
Black
10
108.012
20
-85.1831
11
109.783
21
-83.4116
0
LINE
8
Black
10
109.783
20
-83.4116
11
109.788
21
-83.4085
0
LINE
8
Black
10
109.788
20
-83.4085
11
109.791
21
-83.4042
0
LINE
8
Black
10
109.791
20
-83.4042
11
109.805
21
-83.3961
0
LINE
8
Black
10
109.805
20
-83.3961
11
109.819
21
-83.3867
0
LINE
8
Black
10
109.819
20
-83.3867
11
109.824
21
-83.3853
0
LINE
8
Black
10
109.824
20
-83.3853
11
109.829
21
-83.3825
0
LINE
8
Black
10
109.829
20
-83.3825
11
109.845
21
-83.3797
0
LINE
8
Black
10
109.845
20
-83.3797
11
109.861
21
-83.3755
0
LINE
8
Black
10
109.861
20
-83.3755
11
109.866
21
-83.376
0
LINE
8
Black
10
109.866
20
-83.376
11
109.871
21
-83.375
0
LINE
8
Black
10
109.871
20
-83.375
11
110.319
21
-83.375
0
LINE
8
Black
10
110.319
20
-83.375
11
110.475
21
-83.375
0
LINE
8
Black
10
110.475
20
-83.375
11
110.485
21
-83.347
0
LINE
8
Black
10
110.485
20
-83.347
11
110.553
21
-83.2656
0
LINE
8
Black
10
110.553
20
-83.2656
11
110.645
21
-83.2125
0
LINE
8
Black
10
110.645
20
-83.2125
11
110.75
21
-83.194
0
LINE
8
Black
10
110.75
20
-83.194
11
110.855
21
-83.2125
0
LINE
8
Black
10
110.855
20
-83.2125
11
110.947
21
-83.2656
0
LINE
8
Black
10
110.947
20
-83.2656
11
111.015
21
-83.347
0
LINE
8
Black
10
111.015
20
-83.347
11
111.051
21
-83.4469
0
LINE
8
Black
10
111.051
20
-83.4469
11
111.051
21
-83.5531
0
LINE
8
Black
10
111.051
20
-83.5531
11
111.015
21
-83.653
0
LINE
8
Black
10
111.015
20
-83.653
11
110.947
21
-83.7344
0
LINE
8
Black
10
110.947
20
-83.7344
11
110.874
21
-83.7764
0
LINE
8
Black
10
110.874
20
-83.7764
11
110.874
21
-84.8558
0
LINE
8
Black
10
110.874
20
-84.8558
11
111.312
21
-85.2934
0
LINE
8
Black
10
111.312
20
-85.2934
11
111.315
21
-85.2979
0
LINE
8
Black
10
111.315
20
-85.2979
11
111.319
21
-85.3014
0
LINE
8
Black
10
111.319
20
-85.3014
11
111.327
21
-85.3156
0
LINE
8
Black
10
111.327
20
-85.3156
11
111.336
21
-85.3289
0
LINE
8
Black
10
111.336
20
-85.3289
11
111.338
21
-85.3343
0
LINE
8
Black
10
111.338
20
-85.3343
11
111.341
21
-85.339
0
LINE
8
Black
10
111.341
20
-85.339
11
111.343
21
-85.3551
0
LINE
8
Black
10
111.343
20
-85.3551
11
111.348
21
-85.3709
0
LINE
8
Black
10
111.348
20
-85.3709
11
111.347
21
-85.3763
0
LINE
8
Black
10
111.347
20
-85.3763
11
111.348
21
-85.3818
0
LINE
8
Black
10
111.348
20
-85.3818
11
111.348
21
-85.6068
0
LINE
8
Black
10
111.348
20
-85.6068
11
112.34
21
-86.599
0
LINE
8
Black
10
112.34
20
-86.599
11
111.803
21
-87.1364
0
LINE
8
Black
10
111.803
20
-87.1364
11
110.106
21
-85.4393
0
LINE
8
Black
10
110.106
20
-85.4393
11
110.625
21
-84.9203
0
LINE
8
Black
10
110.625
20
-84.9203
11
110.624
21
-84.9184
0
LINE
8
Black
10
110.624
20
-84.9184
11
110.625
21
-84.913
0
LINE
8
Black
10
110.625
20
-84.913
11
110.624
21
-84.9076
0
LINE
8
Black
10
110.624
20
-84.9076
11
110.624
21
-83.7751
0
LINE
8
Black
10
110.624
20
-83.7751
11
110.553
21
-83.7344
0
LINE
8
Black
10
110.553
20
-83.7344
11
110.485
21
-83.653
0
LINE
8
Black
10
110.485
20
-83.653
11
110.475
21
-83.625
0
LINE
8
Black
10
110.475
20
-83.625
11
110.319
21
-83.625
0
LINE
8
Black
10
110.319
20
-83.625
11
109.923
21
-83.625
0
LINE
8
Black
10
109.923
20
-83.625
11
108.225
21
-85.3233
0
LINE
8
Black
10
100.6
20
-85.9
11
100.55
21
-85.9
0
LINE
8
Black
10
100.55
20
-85.9
11
100.55
21
-86.15
0
LINE
8
Black
10
100.55
20
-86.15
11
100.55
21
-86.5017
0
LINE
8
Black
10
100.55
20
-86.5017
11
100.883
21
-86.8348
0
LINE
8
Black
10
100.883
20
-86.8348
11
101.317
21
-86.8348
0
LINE
8
Black
10
101.317
20
-86.8348
11
101.6
21
-86.5517
0
LINE
8
Black
10
101.6
20
-86.5517
11
101.6
21
-85.9
0
LINE
8
Black
10
101.6
20
-85.9
11
101.55
21
-85.9
0
LINE
8
Black
10
101.55
20
-85.9
11
101.55
21
-85.55
0
LINE
8
Black
10
101.55
20
-85.55
11
101.9
21
-85.55
0
LINE
8
Black
10
101.9
20
-85.55
11
101.9
21
-85.9
0
LINE
8
Black
10
101.9
20
-85.9
11
101.85
21
-85.9
0
LINE
8
Black
10
101.85
20
-85.9
11
101.85
21
-86.6035
0
LINE
8
Black
10
101.85
20
-86.6035
11
101.849
21
-86.6089
0
LINE
8
Black
10
101.849
20
-86.6089
11
101.85
21
-86.6144
0
LINE
8
Black
10
101.85
20
-86.6144
11
101.845
21
-86.6302
0
LINE
8
Black
10
101.845
20
-86.6302
11
101.842
21
-86.6463
0
LINE
8
Black
10
101.842
20
-86.6463
11
101.84
21
-86.651
0
LINE
8
Black
10
101.84
20
-86.651
11
101.838
21
-86.6563
0
LINE
8
Black
10
101.838
20
-86.6563
11
101.829
21
-86.6697
0
LINE
8
Black
10
101.829
20
-86.6697
11
101.821
21
-86.6839
0
LINE
8
Black
10
101.821
20
-86.6839
11
101.817
21
-86.6874
0
LINE
8
Black
10
101.817
20
-86.6874
11
101.813
21
-86.6919
0
LINE
8
Black
10
101.813
20
-86.6919
11
101.457
21
-87.0482
0
LINE
8
Black
10
101.457
20
-87.0482
11
101.453
21
-87.0513
0
LINE
8
Black
10
101.453
20
-87.0513
11
101.449
21
-87.0556
0
LINE
8
Black
10
101.449
20
-87.0556
11
101.435
21
-87.0637
0
LINE
8
Black
10
101.435
20
-87.0637
11
101.422
21
-87.0731
0
LINE
8
Black
10
101.422
20
-87.0731
11
101.416
21
-87.0745
0
LINE
8
Black
10
101.416
20
-87.0745
11
101.411
21
-87.0773
0
LINE
8
Black
10
101.411
20
-87.0773
11
101.395
21
-87.0801
0
LINE
8
Black
10
101.395
20
-87.0801
11
101.38
21
-87.0843
0
LINE
8
Black
10
101.38
20
-87.0843
11
101.374
21
-87.0838
0
LINE
8
Black
10
101.374
20
-87.0838
11
101.369
21
-87.0848
0
LINE
8
Black
10
101.369
20
-87.0848
11
100.831
21
-87.0848
0
LINE
8
Black
10
100.831
20
-87.0848
11
100.826
21
-87.0838
0
LINE
8
Black
10
100.826
20
-87.0838
11
100.82
21
-87.0843
0
LINE
8
Black
10
100.82
20
-87.0843
11
100.805
21
-87.0801
0
LINE
8
Black
10
100.805
20
-87.0801
11
100.789
21
-87.0773
0
LINE
8
Black
10
100.789
20
-87.0773
11
100.784
21
-87.0745
0
LINE
8
Black
10
100.784
20
-87.0745
11
100.778
21
-87.0731
0
LINE
8
Black
10
100.778
20
-87.0731
11
100.765
21
-87.0637
0
LINE
8
Black
10
100.765
20
-87.0637
11
100.751
21
-87.0556
0
LINE
8
Black
10
100.751
20
-87.0556
11
100.747
21
-87.0513
0
LINE
8
Black
10
100.747
20
-87.0513
11
100.743
21
-87.0482
0
LINE
8
Black
10
100.743
20
-87.0482
11
100.337
21
-86.6419
0
LINE
8
Black
10
100.337
20
-86.6419
11
100.333
21
-86.6374
0
LINE
8
Black
10
100.333
20
-86.6374
11
100.329
21
-86.6339
0
LINE
8
Black
10
100.329
20
-86.6339
11
100.321
21
-86.6197
0
LINE
8
Black
10
100.321
20
-86.6197
11
100.312
21
-86.6063
0
LINE
8
Black
10
100.312
20
-86.6063
11
100.31
21
-86.601
0
LINE
8
Black
10
100.31
20
-86.601
11
100.308
21
-86.5963
0
LINE
8
Black
10
100.308
20
-86.5963
11
100.305
21
-86.5802
0
LINE
8
Black
10
100.305
20
-86.5802
11
100.3
21
-86.5644
0
LINE
8
Black
10
100.3
20
-86.5644
11
100.301
21
-86.5589
0
LINE
8
Black
10
100.301
20
-86.5589
11
100.3
21
-86.5535
0
LINE
8
Black
10
100.3
20
-86.5535
11
100.3
21
-86.15
0
LINE
8
Black
10
100.3
20
-86.15
11
100.3
21
-85.9
0
LINE
8
Black
10
100.3
20
-85.9
11
100.25
21
-85.9
0
LINE
8
Black
10
100.25
20
-85.9
11
100.25
21
-85.55
0
LINE
8
Black
10
100.25
20
-85.55
11
100.6
21
-85.55
0
LINE
8
Black
10
100.6
20
-85.55
11
100.6
21
-85.9
0
LINE
8
Black
10
101.9
20
-84.45
11
101.848
21
-84.45
0
LINE
8
Black
10
101.848
20
-84.45
11
101.845
21
-84.4607
0
LINE
8
Black
10
101.845
20
-84.4607
11
101.842
21
-84.4768
0
LINE
8
Black
10
101.842
20
-84.4768
11
101.84
21
-84.4815
0
LINE
8
Black
10
101.84
20
-84.4815
11
101.838
21
-84.4868
0
LINE
8
Black
10
101.838
20
-84.4868
11
101.829
21
-84.5002
0
LINE
8
Black
10
101.829
20
-84.5002
11
101.821
21
-84.5143
0
LINE
8
Black
10
101.821
20
-84.5143
11
101.817
21
-84.5179
0
LINE
8
Black
10
101.817
20
-84.5179
11
101.813
21
-84.5224
0
LINE
8
Black
10
101.813
20
-84.5224
11
101.2
21
-85.1358
0
LINE
8
Black
10
101.2
20
-85.1358
11
101.2
21
-85.55
0
LINE
8
Black
10
101.2
20
-85.55
11
101.25
21
-85.55
0
LINE
8
Black
10
101.25
20
-85.55
11
101.25
21
-85.9
0
LINE
8
Black
10
101.25
20
-85.9
11
101.2
21
-85.9
0
LINE
8
Black
10
101.2
20
-85.9
11
101.2
21
-86.1117
0
LINE
8
Black
10
101.2
20
-86.1117
11
101.205
21
-86.1125
0
LINE
8
Black
10
101.205
20
-86.1125
11
101.297
21
-86.1656
0
LINE
8
Black
10
101.297
20
-86.1656
11
101.365
21
-86.247
0
LINE
8
Black
10
101.365
20
-86.247
11
101.401
21
-86.3469
0
LINE
8
Black
10
101.401
20
-86.3469
11
101.401
21
-86.4531
0
LINE
8
Black
10
101.401
20
-86.4531
11
101.365
21
-86.553
0
LINE
8
Black
10
101.365
20
-86.553
11
101.297
21
-86.6344
0
LINE
8
Black
10
101.297
20
-86.6344
11
101.205
21
-86.6875
0
LINE
8
Black
10
101.205
20
-86.6875
11
101.1
21
-86.706
0
LINE
8
Black
10
101.1
20
-86.706
11
100.995
21
-86.6875
0
LINE
8
Black
10
100.995
20
-86.6875
11
100.903
21
-86.6344
0
LINE
8
Black
10
100.903
20
-86.6344
11
100.835
21
-86.553
0
LINE
8
Black
10
100.835
20
-86.553
11
100.799
21
-86.4531
0
LINE
8
Black
10
100.799
20
-86.4531
11
100.799
21
-86.3469
0
LINE
8
Black
10
100.799
20
-86.3469
11
100.835
21
-86.247
0
LINE
8
Black
10
100.835
20
-86.247
11
100.903
21
-86.1656
0
LINE
8
Black
10
100.903
20
-86.1656
11
100.95
21
-86.1387
0
LINE
8
Black
10
100.95
20
-86.1387
11
100.95
21
-85.9
0
LINE
8
Black
10
100.95
20
-85.9
11
100.9
21
-85.9
0
LINE
8
Black
10
100.9
20
-85.9
11
100.9
21
-85.55
0
LINE
8
Black
10
100.9
20
-85.55
11
100.95
21
-85.55
0
LINE
8
Black
10
100.95
20
-85.55
11
100.95
21
-85.084
0
LINE
8
Black
10
100.95
20
-85.084
11
100.951
21
-85.0786
0
LINE
8
Black
10
100.951
20
-85.0786
11
100.95
21
-85.0731
0
LINE
8
Black
10
100.95
20
-85.0731
11
100.955
21
-85.0573
0
LINE
8
Black
10
100.955
20
-85.0573
11
100.958
21
-85.0412
0
LINE
8
Black
10
100.958
20
-85.0412
11
100.96
21
-85.0365
0
LINE
8
Black
10
100.96
20
-85.0365
11
100.962
21
-85.0312
0
LINE
8
Black
10
100.962
20
-85.0312
11
100.971
21
-85.0178
0
LINE
8
Black
10
100.971
20
-85.0178
11
100.979
21
-85.0037
0
LINE
8
Black
10
100.979
20
-85.0037
11
100.983
21
-85.0001
0
LINE
8
Black
10
100.983
20
-85.0001
11
100.987
21
-84.9956
0
LINE
8
Black
10
100.987
20
-84.9956
11
101.55
21
-84.4322
0
LINE
8
Black
10
101.55
20
-84.4322
11
101.55
21
-84.1
0
LINE
8
Black
10
101.55
20
-84.1
11
101.9
21
-84.1
0
LINE
8
Black
10
101.9
20
-84.1
11
101.9
21
-84.45
0
LINE
8
Black
10
113.238
20
-85.701
11
112.701
21
-86.2384
0
LINE
8
Black
10
112.701
20
-86.2384
11
111.004
21
-84.5413
0
LINE
8
Black
10
111.004
20
-84.5413
11
111.541
21
-84.0039
0
LINE
8
Black
10
111.541
20
-84.0039
11
113.238
21
-85.701
0
LINE
8
Black
10
98.5046
20
-85.5625
11
98.5696
21
-85.6
0
LINE
8
Black
10
98.5696
20
-85.6
11
99.6
21
-85.6
0
LINE
8
Black
10
99.6
20
-85.6
11
99.6
21
-85.55
0
LINE
8
Black
10
99.6
20
-85.55
11
99.95
21
-85.55
0
LINE
8
Black
10
99.95
20
-85.55
11
99.95
21
-85.9
0
LINE
8
Black
10
99.95
20
-85.9
11
99.6
21
-85.9
0
LINE
8
Black
10
99.6
20
-85.9
11
99.6
21
-85.85
0
LINE
8
Black
10
99.6
20
-85.85
11
98.7013
21
-85.85
0
LINE
8
Black
10
98.7013
20
-85.85
11
98.7013
21
-85.9031
0
LINE
8
Black
10
98.7013
20
-85.9031
11
98.665
21
-86.003
0
LINE
8
Black
10
98.665
20
-86.003
11
98.5967
21
-86.0844
0
LINE
8
Black
10
98.5967
20
-86.0844
11
98.5046
21
-86.1375
0
LINE
8
Black
10
98.5046
20
-86.1375
11
98.4
21
-86.156
0
LINE
8
Black
10
98.4
20
-86.156
11
98.2954
21
-86.1375
0
LINE
8
Black
10
98.2954
20
-86.1375
11
98.2033
21
-86.0844
0
LINE
8
Black
10
98.2033
20
-86.0844
11
98.135
21
-86.003
0
LINE
8
Black
10
98.135
20
-86.003
11
98.0987
21
-85.9031
0
LINE
8
Black
10
98.0987
20
-85.9031
11
98.0987
21
-85.7969
0
LINE
8
Black
10
98.0987
20
-85.7969
11
98.135
21
-85.697
0
LINE
8
Black
10
98.135
20
-85.697
11
98.2033
21
-85.6156
0
LINE
8
Black
10
98.2033
20
-85.6156
11
98.2954
21
-85.5625
0
LINE
8
Black
10
98.2954
20
-85.5625
11
98.4
21
-85.544
0
LINE
8
Black
10
98.4
20
-85.544
11
98.5046
21
-85.5625
0
LINE
8
Black
10
114.136
20
-84.8029
11
113.599
21
-85.3403
0
LINE
8
Black
10
113.599
20
-85.3403
11
111.902
21
-83.6433
0
LINE
8
Black
10
111.902
20
-83.6433
11
112.439
21
-83.1059
0
LINE
8
Black
10
112.439
20
-83.1059
11
114.136
21
-84.8029
0
LINE
8
Black
10
99.6164
20
-83.5423
11
99.7084
21
-83.5954
0
LINE
8
Black
10
99.7084
20
-83.5954
11
99.7767
21
-83.6768
0
LINE
8
Black
10
99.7767
20
-83.6768
11
99.8131
21
-83.7767
0
LINE
8
Black
10
99.8131
20
-83.7767
11
99.8131
21
-83.8829
0
LINE
8
Black
10
99.8131
20
-83.8829
11
99.794
21
-83.9353
0
LINE
8
Black
10
99.794
20
-83.9353
11
99.8634
21
-84.0047
0
LINE
8
Black
10
99.8634
20
-84.0047
11
99.8665
21
-84.0092
0
LINE
8
Black
10
99.8665
20
-84.0092
11
99.8708
21
-84.0127
0
LINE
8
Black
10
99.8708
20
-84.0127
11
99.8789
21
-84.0268
0
LINE
8
Black
10
99.8789
20
-84.0268
11
99.8883
21
-84.0402
0
LINE
8
Black
10
99.8883
20
-84.0402
11
99.8897
21
-84.0455
0
LINE
8
Black
10
99.8897
20
-84.0455
11
99.8925
21
-84.0503
0
LINE
8
Black
10
99.8925
20
-84.0503
11
99.8953
21
-84.0664
0
LINE
8
Black
10
99.8953
20
-84.0664
11
99.8995
21
-84.0821
0
LINE
8
Black
10
99.8995
20
-84.0821
11
99.899
21
-84.0876
0
LINE
8
Black
10
99.899
20
-84.0876
11
99.9
21
-84.093
0
LINE
8
Black
10
99.9
20
-84.093
11
99.9
21
-84.1
0
LINE
8
Black
10
99.9
20
-84.1
11
99.95
21
-84.1
0
LINE
8
Black
10
99.95
20
-84.1
11
99.95
21
-84.45
0
LINE
8
Black
10
99.95
20
-84.45
11
99.6
21
-84.45
0
LINE
8
Black
10
99.6
20
-84.45
11
99.6
21
-84.1202
0
LINE
8
Black
10
99.6
20
-84.1202
11
99.5118
21
-84.1358
0
LINE
8
Black
10
99.5118
20
-84.1358
11
99.4071
21
-84.1173
0
LINE
8
Black
10
99.4071
20
-84.1173
11
99.3151
21
-84.0642
0
LINE
8
Black
10
99.3151
20
-84.0642
11
99.2468
21
-83.9828
0
LINE
8
Black
10
99.2468
20
-83.9828
11
99.2105
21
-83.8829
0
LINE
8
Black
10
99.2105
20
-83.8829
11
99.2105
21
-83.7767
0
LINE
8
Black
10
99.2105
20
-83.7767
11
99.2468
21
-83.6768
0
LINE
8
Black
10
99.2468
20
-83.6768
11
99.3151
21
-83.5954
0
LINE
8
Black
10
99.3151
20
-83.5954
11
99.4071
21
-83.5423
0
LINE
8
Black
10
99.4071
20
-83.5423
11
99.5118
21
-83.5238
0
LINE
8
Black
10
99.5118
20
-83.5238
11
99.6164
21
-83.5423
0
LINE
8
Black
10
100.355
20
-83.4973
11
100.447
21
-83.5504
0
LINE
8
Black
10
100.447
20
-83.5504
11
100.515
21
-83.6318
0
LINE
8
Black
10
100.515
20
-83.6318
11
100.551
21
-83.7317
0
LINE
8
Black
10
100.551
20
-83.7317
11
100.551
21
-83.8379
0
LINE
8
Black
10
100.551
20
-83.8379
11
100.53
21
-83.8956
0
LINE
8
Black
10
100.53
20
-83.8956
11
100.538
21
-83.907
0
LINE
8
Black
10
100.538
20
-83.907
11
100.54
21
-83.9123
0
LINE
8
Black
10
100.54
20
-83.9123
11
100.542
21
-83.917
0
LINE
8
Black
10
100.542
20
-83.917
11
100.545
21
-83.9331
0
LINE
8
Black
10
100.545
20
-83.9331
11
100.55
21
-83.9489
0
LINE
8
Black
10
100.55
20
-83.9489
11
100.549
21
-83.9544
0
LINE
8
Black
10
100.549
20
-83.9544
11
100.55
21
-83.9598
0
LINE
8
Black
10
100.55
20
-83.9598
11
100.55
21
-84.1
0
LINE
8
Black
10
100.55
20
-84.1
11
100.6
21
-84.1
0
LINE
8
Black
10
100.6
20
-84.1
11
100.6
21
-84.45
0
LINE
8
Black
10
100.6
20
-84.45
11
100.25
21
-84.45
0
LINE
8
Black
10
100.25
20
-84.45
11
100.25
21
-84.1
0
LINE
8
Black
10
100.25
20
-84.1
11
100.3
21
-84.1
0
LINE
8
Black
10
100.3
20
-84.1
11
100.3
21
-84.0819
0
LINE
8
Black
10
100.3
20
-84.0819
11
100.25
21
-84.0908
0
LINE
8
Black
10
100.25
20
-84.0908
11
100.145
21
-84.0723
0
LINE
8
Black
10
100.145
20
-84.0723
11
100.053
21
-84.0192
0
LINE
8
Black
10
100.053
20
-84.0192
11
99.985
21
-83.9378
0
LINE
8
Black
10
99.985
20
-83.9378
11
99.9487
21
-83.8379
0
LINE
8
Black
10
99.9487
20
-83.8379
11
99.9487
21
-83.7317
0
LINE
8
Black
10
99.9487
20
-83.7317
11
99.985
21
-83.6318
0
LINE
8
Black
10
99.985
20
-83.6318
11
100.053
21
-83.5504
0
LINE
8
Black
10
100.053
20
-83.5504
11
100.145
21
-83.4973
0
LINE
8
Black
10
100.145
20
-83.4973
11
100.25
21
-83.4788
0
LINE
8
Black
10
100.25
20
-83.4788
11
100.355
21
-83.4973
0
LINE
8
Black
10
101.25
20
-84.45
11
100.9
21
-84.45
0
LINE
8
Black
10
100.9
20
-84.45
11
100.9
21
-84.1
0
LINE
8
Black
10
100.9
20
-84.1
11
101.25
21
-84.1
0
LINE
8
Black
10
101.25
20
-84.1
11
101.25
21
-84.45
0
LINE
8
Black
10
115.034
20
-83.9049
11
114.497
21
-84.4423
0
LINE
8
Black
10
114.497
20
-84.4423
11
112.8
21
-82.7453
0
LINE
8
Black
10
112.8
20
-82.7453
11
113.337
21
-82.2079
0
LINE
8
Black
10
113.337
20
-82.2079
11
115.034
21
-83.9049
0
CIRCLE
8
Black
10
105.95
20
-92.3
40
0.1524
0
CIRCLE
8
Black
10
92.6
20
-106.4
40
0.1524
0
CIRCLE
8
Black
10
93.7
20
-92.6
40
0.1524
0
CIRCLE
8
Black
10
106.4
20
-107.4
40
0.1524
0
CIRCLE
8
Black
10
79.4
20
-102.275
40
0.1524
0
CIRCLE
8
Black
10
98.4425
20
-113.665
40
0.1524
0
CIRCLE
8
Black
10
101.1
20
-86.4
40
0.1524
0
CIRCLE
8
Black
10
81.45
20
-103.275
40
0.1524
0
CIRCLE
8
Black
10
86.1
20
-99.1
40
0.1524
0
CIRCLE
8
Black
10
104.95
20
-92.6
40
0.1524
0
CIRCLE
8
Black
10
99.15
20
-113.4
40
0.1524
0
CIRCLE
8
Black
10
108.75
20
-100.75
40
0.1524
0
CIRCLE
8
Black
10
100.75
20
-91.25
40
0.1524
0
CIRCLE
8
Black
10
91.25
20
-99.25
40
0.1524
0
CIRCLE
8
Black
10
99.25
20
-108.75
40
0.1524
0
CIRCLE
8
Black
10
114.5
20
-101
40
0.1524
0
CIRCLE
8
Black
10
117.45
20
-100.2
40
0.1524
0
CIRCLE
8
Black
10
104.75
20
-95.25
40
0.1524
0
CIRCLE
8
Black
10
98.65
20
-96.7
40
0.1524
0
CIRCLE
8
Black
10
98.45
20
-98.4
40
0.1524
0
CIRCLE
8
Black
10
102.5
20
-97.5
40
0.1524
0
CIRCLE
8
Black
10
99.3
20
-103.3
40
0.1524
0
CIRCLE
8
Black
10
94.85
20
-104.5
40
0.1524
0
CIRCLE
8
Black
10
95.5
20
-105.15
40
0.1524
0
CIRCLE
8
Black
10
100.1
20
-103.3
40
0.1524
0
CIRCLE
8
Black
10
85.45
20
-99.7
40
0.1524
0
CIRCLE
8
Black
10
83.025
20
-102.025
40
0.1524
0
CIRCLE
8
Black
10
100.35
20
-93.4
40
0.1524
0
CIRCLE
8
Black
10
92.9
20
-98.5
40
0.1524
0
CIRCLE
8
Black
10
101.45
20
-99.95
40
0.1524
0
CIRCLE
8
Black
10
99.6
20
-106.8
40
0.1524
0
CIRCLE
8
Black
10
99.45
20
-116.2
40
0.1524
0
CIRCLE
8
Black
10
100.25
20
-83.7848
40
0.1524
0
CIRCLE
8
Black
10
99.615
20
-93.2953
40
0.1524
0
CIRCLE
8
Black
10
101.45
20
-99.05
40
0.1524
0
CIRCLE
8
Black
10
93.35
20
-100.5
40
0.1524
0
CIRCLE
8
Black
10
100.4
20
-106.8
40
0.1524
0
CIRCLE
8
Black
10
100.3
20
-116.2
40
0.1524
0
CIRCLE
8
Black
10
99.5118
20
-83.8298
40
0.1524
0
CIRCLE
8
Black
10
82.875
20
-97.625
40
0.1524
0
CIRCLE
8
Black
10
83.8
20
-97.625
40
0.1524
0
CIRCLE
8
Black
10
84.4
20
-98.175
40
0.1524
0
CIRCLE
8
Black
10
110
20
-89.9
40
0.1524
0
CIRCLE
8
Black
10
108.1
20
-87.6
40
0.1524
0
CIRCLE
8
Black
10
110.75
20
-83.5
40
0.1524
0
CIRCLE
8
Black
10
112.35
20
-91.25
40
0.1524
0
CIRCLE
8
Black
10
109.9
20
-84.3
40
0.1524
0
CIRCLE
8
Black
10
98.4
20
-85.85
40
0.1524
0
CIRCLE
8
Black
10
111.6
20
-88.1
40
0.1524
0
CIRCLE
8
Black
10
110.6
20
-89.4
40
0.1524
  0
ENDSEC
  0
EOF
