  0
SECTION
  2
HEADER
  9
$ACADVER
  1
AC1009
  9
$DWGCODEPAGE
  3
mac-roman
  9
$INSBASE
 10
0.0
 20
0.0
 30
0.0
  9
$EXTMIN
 10
77.37
 20
-117.9928496754568
 30
0.0
  9
$EXTMAX
 10
120.2153375179125
 20
-80.20629322501512
 30
0.0
  9
$LIMMIN
 10
0.0
 20
0.0
  9
$LIMMAX
 10
12.0
 20
9.0
  9
$ORTHOMODE
 70
     0
  9
$REGENMODE
 70
     1
  9
$FILLMODE
 70
     1
  9
$QTEXTMODE
 70
     0
  9
$MIRRTEXT
 70
     1
  9
$DRAGMODE
 70
     2
  9
$LTSCALE
 40
1.0
  9
$OSMODE
 70
    37
  9
$ATTMODE
 70
     1
  9
$TEXTSIZE
 40
0.2
  9
$TRACEWID
 40
0.05
  9
$TEXTSTYLE
  7
STANDARD
  9
$CLAYER
  8
OUTLINE
  9
$CELTYPE
  6
BYLAYER
  9
$CECOLOR
 62
   256
  9
$DIMSCALE
 40
1.0
  9
$DIMASZ
 40
0.18
  9
$DIMEXO
 40
0.0625
  9
$DIMDLI
 40
0.38
  9
$DIMRND
 40
0.0
  9
$DIMDLE
 40
0.0
  9
$DIMEXE
 40
0.18
  9
$DIMTP
 40
0.0
  9
$DIMTM
 40
0.0
  9
$DIMTXT
 40
0.18
  9
$DIMCEN
 40
0.09
  9
$DIMTSZ
 40
0.0
  9
$DIMTOL
 70
     0
  9
$DIMLIM
 70
     0
  9
$DIMTIH
 70
     1
  9
$DIMTOH
 70
     1
  9
$DIMSE1
 70
     0
  9
$DIMSE2
 70
     0
  9
$DIMTAD
 70
     0
  9
$DIMZIN
 70
     0
  9
$DIMBLK
  1

  9
$DIMASO
 70
     1
  9
$DIMSHO
 70
     1
  9
$DIMPOST
  1

  9
$DIMAPOST
  1

  9
$DIMALT
 70
     0
  9
$DIMALTD
 70
     2
  9
$DIMALTF
 40
25.4
  9
$DIMLFAC
 40
1.0
  9
$DIMTOFL
 70
     0
  9
$DIMTVP
 40
0.0
  9
$DIMTIX
 70
     0
  9
$DIMSOXD
 70
     0
  9
$DIMSAH
 70
     0
  9
$DIMBLK1
  1

  9
$DIMBLK2
  1

  9
$DIMSTYLE
  2
STANDARD
  9
$DIMCLRD
 70
     0
  9
$DIMCLRE
 70
     0
  9
$DIMCLRT
 70
     0
  9
$DIMTFAC
 40
1.0
  9
$DIMGAP
 40
0.09
  9
$LUNITS
 70
     2
  9
$LUPREC
 70
     3
  9
$SKETCHINC
 40
0.1
  9
$FILLETRAD
 40
0.5
  9
$AUNITS
 70
     0
  9
$AUPREC
 70
     0
  9
$MENU
  1
.
  9
$ELEVATION
 40
0.0
  9
$PELEVATION
 40
0.0
  9
$THICKNESS
 40
0.0
  9
$LIMCHECK
 70
     0
  9
$CHAMFERA
 40
0.0
  9
$CHAMFERB
 40
0.0
  9
$SKPOLY
 70
     0
  9
$TDCREATE
 40
2457773.751712963
  9
$TDUPDATE
 40
2457773.751736111
  9
$TDINDWG
 40
0.0000000116
  9
$TDUSRTIMER
 40
0.0000000116
  9
$USRTIMER
 70
     1
  9
$ANGBASE
 50
0.0
  9
$ANGDIR
 70
     0
  9
$PDMODE
 70
     0
  9
$PDSIZE
 40
0.0
  9
$PLINEWID
 40
0.0
  9
$COORDS
 70
     1
  9
$SPLFRAME
 70
     0
  9
$SPLINETYPE
 70
     6
  9
$SPLINESEGS
 70
     8
  9
$ATTDIA
 70
     0
  9
$ATTREQ
 70
     1
  9
$HANDLING
 70
     1
  9
$HANDSEED
  5
C9
  9
$SURFTAB1
 70
     6
  9
$SURFTAB2
 70
     6
  9
$SURFTYPE
 70
     6
  9
$SURFU
 70
     6
  9
$SURFV
 70
     6
  9
$UCSNAME
  2

  9
$UCSORG
 10
0.0
 20
0.0
 30
0.0
  9
$UCSXDIR
 10
1.0
 20
0.0
 30
0.0
  9
$UCSYDIR
 10
0.0
 20
1.0
 30
0.0
  9
$PUCSNAME
  2

  9
$PUCSORG
 10
0.0
 20
0.0
 30
0.0
  9
$PUCSXDIR
 10
1.0
 20
0.0
 30
0.0
  9
$PUCSYDIR
 10
0.0
 20
1.0
 30
0.0
  9
$USERI1
 70
     0
  9
$USERI2
 70
     0
  9
$USERI3
 70
     0
  9
$USERI4
 70
     0
  9
$USERI5
 70
     0
  9
$USERR1
 40
0.0
  9
$USERR2
 40
0.0
  9
$USERR3
 40
0.0
  9
$USERR4
 40
0.0
  9
$USERR5
 40
0.0
  9
$WORLDVIEW
 70
     1
  9
$SHADEDGE
 70
     3
  9
$SHADEDIF
 70
    70
  9
$TILEMODE
 70
     1
  9
$MAXACTVP
 70
    64
  9
$PLIMCHECK
 70
     0
  9
$PEXTMIN
 10
1.000000000000000E+20
 20
1.000000000000000E+20
 30
1.000000000000000E+20
  9
$PEXTMAX
 10
-1.000000000000000E+20
 20
-1.000000000000000E+20
 30
-1.000000000000000E+20
  9
$PLIMMIN
 10
0.0
 20
0.0
  9
$PLIMMAX
 10
12.0
 20
9.0
  9
$UNITMODE
 70
     0
  9
$VISRETAIN
 70
     1
  9
$PLINEGEN
 70
     0
  9
$PSLTSCALE
 70
     1
  0
ENDSEC
  0
SECTION
  2
TABLES
  0
TABLE
  2
VPORT
 70
     1
  0
VPORT
  2
*ACTIVE
 70
     0
 10
0.0
 20
0.0
 11
1.0
 21
1.0
 12
98.79266875895624
 22
-99.09957145023597
 13
0.0
 23
0.0
 14
0.5
 24
0.5
 15
0.5
 25
0.5
 16
0.0
 26
0.0
 36
1.0
 17
0.0
 27
0.0
 37
0.0
 40
38.54228757945054
 41
1.133877800537488
 42
50.0
 43
0.0
 44
0.0
 50
0.0
 51
0.0
 71
     0
 72
   100
 73
     1
 74
     3
 75
     0
 76
     0
 77
     0
 78
     0
  0
ENDTAB
  0
TABLE
  2
LTYPE
 70
     1
  0
LTYPE
  2
CONTINUOUS
 70
     0
  3
Solid line
 72
    65
 73
     0
 40
0.0
  0
ENDTAB
  0
TABLE
  2
LAYER
 70
     2
  0
LAYER
  2
0
 70
     0
 62
     7
  6
CONTINUOUS
  0
LAYER
  2
OUTLINE
 70
     0
 62
   111
  6
CONTINUOUS
  0
ENDTAB
  0
TABLE
  2
STYLE
 70
     1
  0
STYLE
  2
STANDARD
 70
     0
 40
0.0
 41
1.0
 50
0.0
 71
     0
 42
0.2
  3
txt
  4

  0
ENDTAB
  0
TABLE
  2
VIEW
 70
     0
  0
ENDTAB
  0
TABLE
  2
UCS
 70
     0
  0
ENDTAB
  0
TABLE
  2
APPID
 70
     1
  0
APPID
  2
ACAD
 70
     0
  0
ENDTAB
  0
TABLE
  2
DIMSTYLE
 70
     1
  0
DIMSTYLE
  2
STANDARD
 70
     0
  3

  4

  5

  6

  7

 40
1.0
 41
0.18
 42
0.0625
 43
0.38
 44
0.18
 45
0.0
 46
0.0
 47
0.0
 48
0.0
140
0.18
141
0.09
142
0.0
143
25.4
144
1.0
145
0.0
146
1.0
147
0.09
 71
     0
 72
     0
 73
     1
 74
     1
 75
     0
 76
     0
 77
     0
 78
     0
170
     0
171
     2
172
     0
173
     0
174
     0
175
     0
176
     0
177
     0
178
     0
  0
ENDTAB
  0
ENDSEC
  0
SECTION
  2
BLOCKS
  0
BLOCK
  8
0
  2
$MODEL_SPACE
 70
     0
 10
0.0
 20
0.0
 30
0.0
  3
$MODEL_SPACE
  1

  0
ENDBLK
  5
21
  8
0
  0
BLOCK
 67
     1
  8
0
  2
$PAPER_SPACE
 70
     0
 10
0.0
 20
0.0
 30
0.0
  3
$PAPER_SPACE
  1

  0
ENDBLK
  5
1D
 67
     1
  8
0
  0
ENDSEC
  0
SECTION
  2
ENTITIES
  0
LINE
  5
6F
  8
OUTLINE
 10
110.9245
 20
-98.22440029341399
 30
0.0
 11
110.9245
 21
-97.82668211446912
 31
0.0
  0
LINE
  5
70
  8
OUTLINE
 10
110.9245
 20
-97.82668211446912
 30
0.0
 11
110.1623073708309
 21
-94.52593981944726
 31
0.0
  0
ARC
  5
71
  8
OUTLINE
 10
110.6087861979571
 20
-94.07715372404317
 30
0.0
 40
0.6330499999999746
 50
45.14768813417263
 51
225.1476618133093
  0
LINE
  5
72
  8
OUTLINE
 10
111.0552648189172
 20
-93.62836742353313
 30
0.0
 11
111.0622426552047
 21
-93.63534525982061
 31
0.0
  0
LINE
  5
73
  8
OUTLINE
 10
111.0622426552047
 20
-93.63534525982061
 30
0.0
 11
113.9513615091283
 21
-93.63534525982062
 31
0.0
  0
LINE
  5
74
  8
OUTLINE
 10
113.9513615091283
 20
-93.63534525982062
 30
0.0
 11
119.7437067749849
 21
-87.84299999396399
 31
0.0
  0
LINE
  5
75
  8
OUTLINE
 10
119.7437067749849
 20
-87.84299999396399
 30
0.0
 11
112.107000006036
 21
-80.20629322501512
 31
0.0
  0
LINE
  5
76
  8
OUTLINE
 10
112.107000006036
 20
-80.20629322501512
 30
0.0
 11
106.3653609669428
 21
-85.94793226410835
 31
0.0
  0
LINE
  5
77
  8
OUTLINE
 10
106.3653609669428
 20
-85.94793226410835
 30
0.0
 11
106.3653609669428
 21
-88.93846357155861
 31
0.0
  0
ARC
  5
78
  8
OUTLINE
 10
105.9097820661626
 20
-89.3919212643404
 30
0.0
 40
0.642787689660479
 50
225.1890072264045
 51
44.86630236225049
  0
LINE
  5
79
  8
OUTLINE
 10
105.4567643705929
 20
-89.8479376911057
 30
0.0
 11
102.1728178855309
 21
-89.07500000000005
 31
0.0
  0
LINE
  5
7A
  8
OUTLINE
 10
102.1728178855309
 20
-89.07500000000005
 30
0.0
 11
101.7754999999999
 21
-89.07500000000002
 31
0.0
  0
ARC
  5
7B
  8
OUTLINE
 10
101.7755
 20
-88.49950000000004
 30
0.0
 40
0.5754999999999768
 50
90.0
 51
269.999999999993
  0
LINE
  5
7C
  8
OUTLINE
 10
101.7755
 20
-87.92400000000006
 30
0.0
 11
101.9530550014518
 21
-87.92400000000006
 31
0.0
  0
LINE
  5
7D
  8
OUTLINE
 10
101.9530550014518
 20
-87.92400000000006
 30
0.0
 11
103.071036295817
 21
-84.48320737546229
 31
0.0
  0
ARC
  5
7E
  8
OUTLINE
 10
102.6935857409124
 20
-84.36056625581972
 30
0.0
 40
0.3968749999999854
 50
341.9999999999977
 51
54.00000000000082
  0
LINE
  5
7F
  8
OUTLINE
 10
102.926863012916
 20
-84.03948763617717
 30
0.0
 11
100.2332272574847
 21
-82.08244670490065
 31
0.0
  0
ARC
  5
80
  8
OUTLINE
 10
99.99994998548115
 20
-82.40352532454318
 30
0.0
 40
0.3968749999999854
 50
53.99999999999796
 51
125.9999999999992
  0
LINE
  5
81
  8
OUTLINE
 10
99.76667271347759
 20
-82.08244670490063
 30
0.0
 11
97.07303695804643
 21
-84.03948763617726
 31
0.0
  0
ARC
  5
82
  8
OUTLINE
 10
97.30631423005002
 20
-84.3605662558198
 30
0.0
 40
0.3968750000000044
 50
126.0000000000025
 51
198.0000000000011
  0
LINE
  5
83
  8
OUTLINE
 10
96.92886367514538
 20
-84.48320737546237
 30
0.0
 11
98.04684496951066
 21
-87.92400000000012
 31
0.0
  0
LINE
  5
84
  8
OUTLINE
 10
98.04684496951066
 20
-87.92400000000012
 30
0.0
 11
98.22439997096255
 21
-87.92400000000015
 31
0.0
  0
ARC
  5
85
  8
OUTLINE
 10
98.22440000000005
 20
-88.49950000000013
 30
0.0
 40
0.5754999999999768
 50
270.0000292117867
 51
90.00000289092245
  0
LINE
  5
86
  8
OUTLINE
 10
98.22440029341404
 20
-89.07500000000003
 30
0.0
 11
97.82668211446911
 21
-89.07500000000005
 31
0.0
  0
LINE
  5
87
  8
OUTLINE
 10
97.82668211446911
 20
-89.07500000000005
 30
0.0
 11
93.81137623006987
 21
-90.73819415439465
 31
0.0
  0
LINE
  5
88
  8
OUTLINE
 10
93.81137623006987
 20
-90.73819415439465
 30
0.0
 11
90.73819415439466
 21
-93.81137623006992
 31
0.0
  0
LINE
  5
89
  8
OUTLINE
 10
90.73819415439466
 20
-93.81137623006992
 30
0.0
 11
89.07499999999999
 21
-97.82668211446921
 31
0.0
  0
LINE
  5
8A
  8
OUTLINE
 10
89.07499999999999
 20
-97.82668211446921
 30
0.0
 11
89.075
 21
-98.22400000000012
 31
0.0
  0
ARC
  5
8B
  8
OUTLINE
 10
88.49950000000003
 20
-98.22400000000005
 30
0.0
 40
0.5754999999999768
 50
180.0
 51
359.999999999993
  0
LINE
  5
8C
  8
OUTLINE
 10
87.92400000000005
 20
-98.22400000000005
 30
0.0
 11
87.92400000000005
 21
-97.81520000000002
 31
0.0
  0
LINE
  5
8D
  8
OUTLINE
 10
87.92400000000005
 20
-97.81520000000002
 30
0.0
 11
85.2577
 21
-97.8152
 31
0.0
  0
LINE
  5
8E
  8
OUTLINE
 10
85.2577
 20
-97.8152
 30
0.0
 11
85.2577
 21
-96.195
 31
0.0
  0
ARC
  5
8F
  8
OUTLINE
 10
84.75770000000001
 20
-96.19499999999998
 30
0.0
 40
0.4999999999999858
 50
359.9999999999984
 51
90.00000000000162
  0
LINE
  5
90
  8
OUTLINE
 10
84.7577
 20
-95.695
 30
0.0
 11
77.87
 21
-95.695
 31
0.0
  0
ARC
  5
91
  8
OUTLINE
 10
77.87
 20
-96.19499999999998
 30
0.0
 40
0.4999999999999858
 50
90.0
 51
180.0000000000016
  0
LINE
  5
92
  8
OUTLINE
 10
77.37
 20
-96.195
 30
0.0
 11
77.37
 21
-103.581
 31
0.0
  0
ARC
  5
93
  8
OUTLINE
 10
77.86999999999999
 20
-103.581
 30
0.0
 40
0.4999999999999858
 50
179.9999999999967
 51
270.0000000000016
  0
LINE
  5
94
  8
OUTLINE
 10
77.87
 20
-104.081
 30
0.0
 11
84.7577
 21
-104.081
 31
0.0
  0
ARC
  5
95
  8
OUTLINE
 10
84.7577
 20
-103.581
 30
0.0
 40
0.5
 50
270.0
 51
0.0
  0
LINE
  5
96
  8
OUTLINE
 10
85.2577
 20
-103.581
 30
0.0
 11
85.2577
 21
-102.195
 31
0.0
  0
LINE
  5
97
  8
OUTLINE
 10
85.2577
 20
-102.195
 30
0.0
 11
87.9240000211866
 21
-102.195
 31
0.0
  0
LINE
  5
98
  8
OUTLINE
 10
87.9240000211866
 20
-102.195
 30
0.0
 11
87.92400000000009
 21
-101.7751000290375
 31
0.0
  0
ARC
  5
99
  8
OUTLINE
 10
88.49950000000007
 20
-101.7751
 30
0.0
 40
0.5754999999999768
 50
0.0000292117867536
 51
180.0000028909224
  0
LINE
  5
9A
  8
OUTLINE
 10
89.07499999999997
 20
-101.775099706586
 30
0.0
 11
89.07500000000005
 21
-102.172817885531
 31
0.0
  0
LINE
  5
9B
  8
OUTLINE
 10
89.07500000000005
 20
-102.172817885531
 30
0.0
 11
90.73819415439466
 21
-106.1881237699302
 31
0.0
  0
LINE
  5
9C
  8
OUTLINE
 10
90.73819415439466
 20
-106.1881237699302
 30
0.0
 11
93.81137623006991
 21
-109.2613058456054
 31
0.0
  0
LINE
  5
9D
  8
OUTLINE
 10
93.81137623006991
 20
-109.2613058456054
 30
0.0
 11
97.82668211446911
 21
-110.9245
 31
0.0
  0
LINE
  5
9E
  8
OUTLINE
 10
97.82668211446911
 20
-110.9245
 30
0.0
 11
98.2240000000001
 21
-110.9245
 31
0.0
  0
ARC
  5
9F
  8
OUTLINE
 10
98.22400000000003
 20
-111.5
 30
0.0
 40
0.5754999999999768
 50
270.0
 51
89.99999999999292
  0
LINE
  5
A0
  8
OUTLINE
 10
98.22400000000003
 20
-112.0755
 30
0.0
 11
98.04644499854818
 21
-112.0755
 31
0.0
  0
LINE
  5
A1
  8
OUTLINE
 10
98.04644499854818
 20
-112.0755
 30
0.0
 11
96.92846370418302
 21
-115.5162926245377
 31
0.0
  0
ARC
  5
A2
  8
OUTLINE
 10
97.30591425908763
 20
-115.6389337441803
 30
0.0
 40
0.3968749999999854
 50
161.9999999999976
 51
234.0000000000008
  0
LINE
  5
A3
  8
OUTLINE
 10
97.07263698708407
 20
-115.9600123638228
 30
0.0
 11
99.7662727425153
 21
-117.9170532950994
 31
0.0
  0
ARC
  5
A4
  8
OUTLINE
 10
99.99955001451887
 20
-117.5959746754569
 30
0.0
 40
0.3968749999999854
 50
233.999999999998
 51
305.9999999999992
  0
LINE
  5
A5
  8
OUTLINE
 10
100.2328272865224
 20
-117.9170532950994
 30
0.0
 11
102.9264630419536
 21
-115.9600123638228
 31
0.0
  0
ARC
  5
A6
  8
OUTLINE
 10
102.69318576995
 20
-115.6389337441802
 30
0.0
 40
0.3968750000000044
 50
306.0000000000025
 51
18.0000000000011
  0
LINE
  5
A7
  8
OUTLINE
 10
103.0706363248546
 20
-115.5162926245377
 30
0.0
 11
101.9526550304894
 21
-112.0754999999999
 31
0.0
  0
LINE
  5
A8
  8
OUTLINE
 10
101.9526550304894
 20
-112.0754999999999
 30
0.0
 11
101.7751000290375
 21
-112.0754999999999
 31
0.0
  0
ARC
  5
A9
  8
OUTLINE
 10
101.7751
 20
-111.4999999999999
 30
0.0
 40
0.5754999999999768
 50
90.00002921178677
 51
270.0000028909224
  0
LINE
  5
AA
  8
OUTLINE
 10
101.775099706586
 20
-110.9245
 30
0.0
 11
102.172817885531
 21
-110.9245
 31
0.0
  0
LINE
  5
AB
  8
OUTLINE
 10
102.172817885531
 20
-110.9245
 30
0.0
 11
106.1881237699301
 21
-109.2613058456054
 31
0.0
  0
LINE
  5
AC
  8
OUTLINE
 10
106.1881237699301
 20
-109.2613058456054
 30
0.0
 11
109.2613058456054
 21
-106.1881237699301
 31
0.0
  0
LINE
  5
AD
  8
OUTLINE
 10
109.2613058456054
 20
-106.1881237699301
 30
0.0
 11
110.9245
 21
-102.1728178855308
 31
0.0
  0
LINE
  5
AE
  8
OUTLINE
 10
110.9245
 20
-102.1728178855308
 30
0.0
 11
110.9245
 21
-101.7754999999999
 31
0.0
  0
ARC
  5
AF
  8
OUTLINE
 10
111.5
 20
-101.7755
 30
0.0
 40
0.5754999999999768
 50
0.0
 51
179.9999999999929
  0
LINE
  5
B0
  8
OUTLINE
 10
112.0755
 20
-101.7755
 30
0.0
 11
112.0754999895454
 21
-102.19
 31
0.0
  0
LINE
  5
B1
  8
OUTLINE
 10
112.0754999895454
 20
-102.19
 30
0.0
 11
114.3828935804287
 21
-102.19
 31
0.0
  0
LINE
  5
B2
  8
OUTLINE
 10
114.3828935804287
 20
-102.19
 30
0.0
 11
114.3828935804287
 21
-102.8200357088202
 31
0.0
  0
LINE
  5
B3
  8
OUTLINE
 10
114.3828935804287
 20
-102.8200357088202
 30
0.0
 11
115.74
 21
-104.15
 31
0.0
  0
LINE
  5
B4
  8
OUTLINE
 10
115.74
 20
-104.15
 30
0.0
 11
116.4705751257216
 21
-104.15
 31
0.0
  0
LINE
  5
B5
  8
OUTLINE
 10
116.4705751257216
 20
-104.15
 30
0.0
 11
116.4713833395621
 21
-105.0000102107565
 31
0.0
  0
ARC
  5
B6
  8
OUTLINE
 10
118.1004865506772
 20
-105.0001031089321
 30
0.0
 40
1.62910321376382
 50
179.9967327586461
 51
0.0000000009416188
  0
LINE
  5
B7
  8
OUTLINE
 10
119.729589764441
 20
-105.0001031089053
 30
0.0
 11
120.2153375179125
 21
-101.4681230016097
 31
0.0
  0
LINE
  5
B8
  8
OUTLINE
 10
120.2153375179125
 20
-101.4681230016097
 30
0.0
 11
120.2153375179125
 21
-98.53187699839027
 31
0.0
  0
LINE
  5
B9
  8
OUTLINE
 10
120.2153375179125
 20
-98.53187699839027
 30
0.0
 11
119.7291548098814
 21
-94.99989691590056
 31
0.0
  0
ARC
  5
BA
  8
OUTLINE
 10
118.0998649691263
 20
-94.9999898353318
 30
0.0
 40
1.629289843404718
 50
0.0032676145801772
 51
180.0000000013043
  0
LINE
  5
BB
  8
OUTLINE
 10
116.4705751257215
 20
-94.9999898353689
 30
0.0
 11
116.4705751257216
 21
-95.85000000000002
 31
0.0
  0
LINE
  5
BC
  8
OUTLINE
 10
116.4705751257216
 20
-95.85000000000002
 30
0.0
 11
115.74
 21
-95.85000000000002
 31
0.0
  0
LINE
  5
BD
  8
OUTLINE
 10
115.74
 20
-95.85000000000002
 30
0.0
 11
114.3828935804287
 21
-97.17996429117983
 31
0.0
  0
LINE
  5
BE
  8
OUTLINE
 10
114.3828935804287
 20
-97.17996429117983
 30
0.0
 11
114.3828935804287
 21
-97.81
 31
0.0
  0
LINE
  5
BF
  8
OUTLINE
 10
114.3828935804287
 20
-97.81
 30
0.0
 11
112.0754999790909
 21
-97.81
 31
0.0
  0
LINE
  5
C0
  8
OUTLINE
 10
112.0754999790909
 20
-97.81
 30
0.0
 11
112.0754999999999
 21
-98.22439997096251
 31
0.0
  0
ARC
  5
C1
  8
OUTLINE
 10
111.4999999999999
 20
-98.2244
 30
0.0
 40
0.5754999999999775
 50
180.0000292117867
 51
0.0000028909224406
  0
ENDSEC
  0
EOF
